<svg xmlns="http://www.w3.org/2000/svg" width="170" height="168" viewBox="0 0 170 168" fill="none"><path d="M29.8233 48.5876C39.8725 37.3758 56.1729 35.6177 70.7778 32.0676C85.3827 28.5175 98.1929 23.2326 111.491 27.0343C124.633 30.7944 138.205 43.542 143.438 61.7639C148.671 79.9859 145.409 103.64 130.985 121.468C116.66 139.239 91.172 151.184 69.6407 146.858C48.0521 142.433 30.2788 121.951 23.2055 101.228C16.1893 80.6053 19.8312 59.8983 29.8233 48.5876Z" fill="#FFCEBC"></path><g clip-path="url(#clip0_210_799)"><path d="M61.5312 105.174L52.4322 105.086C43.8541 105.003 38.293 97.4671 40.5389 88.9677L46.2095 67.5082C48.1986 59.9805 55.4265 54.3601 63.0239 54.4333L68.974 54.4905L61.5312 105.174Z" fill="url(#paint0_linear_210_799)"></path><path d="M108.309 105.623L117.408 105.711C125.986 105.794 131.691 98.3654 129.609 89.8246L124.353 68.2599C122.509 60.6953 115.39 54.9369 107.793 54.8638L101.843 54.8066L108.309 105.623Z" fill="url(#paint1_linear_210_799)"></path><path d="M94.5468 113.345H75.7816C65.0372 113.345 56.3271 104.635 56.3271 93.8908V77.431C56.3271 69.3919 59.6167 62.121 64.9234 56.8913C70.1296 51.7604 77.2772 50.5352 85.1644 50.5352C92.9226 50.5352 99.965 51.6577 105.148 56.641C110.605 61.8879 114.001 69.2629 114.001 77.431V93.8908C114.001 104.635 105.291 113.345 94.5468 113.345Z" fill="url(#paint2_linear_210_799)"></path><path d="M105.555 57.0402C105.926 57.4108 106.286 57.7912 106.634 58.18C106.487 58.016 106.337 57.854 106.185 57.692C102.749 54.0358 97.9327 51.9908 92.9158 51.9908C90.7221 51.9908 88.9437 53.7693 88.9437 55.963V65.0352C88.9437 67.1226 87.2513 68.815 85.1638 68.815C83.0764 68.815 81.384 67.1226 81.384 65.0352V55.963C81.384 53.7693 79.6055 51.9908 77.4118 51.9908C72.395 51.9908 67.5785 54.0356 64.1428 57.692C63.9911 57.854 63.8412 58.016 63.6934 58.18C68.1778 53.1793 74.3871 49.7558 81.384 48.8387C82.6211 48.6767 83.8823 48.5938 85.1638 48.5938C86.4454 48.5938 87.7066 48.6767 88.9437 48.8387C95.396 49.6829 101.176 52.661 105.555 57.0402Z" fill="url(#paint3_linear_210_799)"></path><path d="M85.1646 121.106C90.1404 121.106 94.174 117.072 94.174 112.096C94.174 107.121 90.1404 103.087 85.1646 103.087C80.1889 103.087 76.1553 107.121 76.1553 112.096C76.1553 117.072 80.1889 121.106 85.1646 121.106Z" fill="url(#paint4_linear_210_799)"></path><path d="M85.1638 117.557C88.1797 117.557 90.6245 115.112 90.6245 112.096C90.6245 109.08 88.1797 106.635 85.1638 106.635C82.148 106.635 79.7031 109.08 79.7031 112.096C79.7031 115.112 82.148 117.557 85.1638 117.557Z" fill="url(#paint5_linear_210_799)"></path><path d="M71.4991 120.142H65.9591C58.4122 120.142 52.2939 114.024 52.2939 106.477C52.2939 98.9298 58.412 92.8115 65.9591 92.8115H85.1642V106.477C85.1642 114.024 79.0462 120.142 71.4991 120.142Z" fill="url(#paint6_linear_210_799)"></path><path d="M98.8291 120.142H104.369C111.916 120.142 118.034 114.024 118.034 106.477C118.034 98.9298 111.916 92.8115 104.369 92.8115H85.1641V106.477C85.1641 114.024 91.2821 120.142 98.8291 120.142Z" fill="url(#paint7_linear_210_799)"></path><path d="M118.035 106.478C118.035 109.537 117.027 112.365 115.329 114.643C112.836 117.98 108.856 120.142 104.37 120.142H103.438L78.5241 95.2274C77.8641 94.5674 77.5867 93.6705 77.6961 92.812H104.37C108.143 92.812 111.561 94.3406 114.033 96.8145C116.505 99.2887 118.035 102.704 118.035 106.478Z" fill="url(#paint8_linear_210_799)"></path><path d="M91.8046 91.1189C88.137 87.4513 82.1905 87.4513 78.5229 91.1189C77.3882 92.2536 77.3882 94.0931 78.5229 95.2278L80.9711 97.676C83.2867 99.9916 87.041 99.9916 89.3564 97.676L91.8046 95.2278C92.9393 94.0931 92.9393 92.2536 91.8046 91.1189Z" fill="url(#paint9_radial_210_799)"></path><path d="M74.5205 83.129C74.5205 85.4748 72.6189 87.3766 70.2729 87.3766C67.927 87.3766 66.0254 85.475 66.0254 83.129C66.0254 80.783 67.927 78.8813 70.2729 78.8813C72.6189 78.8813 74.5205 80.783 74.5205 83.129Z" fill="url(#paint10_linear_210_799)"></path><path d="M72.1731 79.3291C72.4595 79.9009 72.6212 80.546 72.6212 81.2292C72.6212 83.5752 70.7195 85.4768 68.3737 85.4768C67.6906 85.4768 67.0454 85.3153 66.4736 85.0289C67.171 86.4207 68.6103 87.3763 70.2732 87.3763C72.619 87.3763 74.5209 85.4747 74.5209 83.1287C74.5205 81.466 73.5649 80.0265 72.1731 79.3291Z" fill="url(#paint11_linear_210_799)"></path><path d="M104.304 83.129C104.304 85.4748 102.402 87.3766 100.056 87.3766C97.7102 87.3766 95.8086 85.475 95.8086 83.129C95.8086 80.783 97.7102 78.8813 100.056 78.8813C102.402 78.8813 104.304 80.783 104.304 83.129Z" fill="url(#paint12_linear_210_799)"></path><path d="M101.956 79.3291C102.243 79.9009 102.404 80.546 102.404 81.2292C102.404 83.5752 100.503 85.4768 98.1569 85.4768C97.4738 85.4768 96.8286 85.3153 96.2568 85.0289C96.9542 86.4207 98.3935 87.3763 100.056 87.3763C102.402 87.3763 104.304 85.4747 104.304 83.1287C104.304 81.466 103.348 80.0265 101.956 79.3291Z" fill="url(#paint13_linear_210_799)"></path></g><defs><linearGradient id="paint0_linear_210_799" x1="45.4549" y1="72.6347" x2="73.2589" y2="87.2115" gradientUnits="userSpaceOnUse"><stop stop-color="#FCB37E"></stop><stop offset="0.156" stop-color="#F3AC78"></stop><stop offset="0.4123" stop-color="#DA9A69"></stop><stop offset="0.735" stop-color="#B27E50"></stop><stop offset="1" stop-color="#8C6239"></stop></linearGradient><linearGradient id="paint1_linear_210_799" x1="101.639" y1="75.5476" x2="128.499" y2="90.5294" gradientUnits="userSpaceOnUse"><stop stop-color="#FCB37E"></stop><stop offset="0.156" stop-color="#F3AC78"></stop><stop offset="0.4123" stop-color="#DA9A69"></stop><stop offset="0.735" stop-color="#B27E50"></stop><stop offset="1" stop-color="#8C6239"></stop></linearGradient><linearGradient id="paint2_linear_210_799" x1="70.86" y1="69.6983" x2="112.724" y2="110.639" gradientUnits="userSpaceOnUse"><stop stop-color="#FCB37E"></stop><stop offset="0.156" stop-color="#F3AC78"></stop><stop offset="0.4123" stop-color="#DA9A69"></stop><stop offset="0.735" stop-color="#B27E50"></stop><stop offset="1" stop-color="#8C6239"></stop></linearGradient><linearGradient id="paint3_linear_210_799" x1="84.0872" y1="56.7649" x2="94.3449" y2="62.8386" gradientUnits="userSpaceOnUse"><stop stop-color="#F8F6FB"></stop><stop offset="1" stop-color="#EFDCFB"></stop></linearGradient><linearGradient id="paint4_linear_210_799" x1="85.1646" y1="113.319" x2="85.1646" y2="120.917" gradientUnits="userSpaceOnUse"><stop stop-color="#F8F6FB"></stop><stop offset="1" stop-color="#EFDCFB"></stop></linearGradient><linearGradient id="paint5_linear_210_799" x1="85.1638" y1="111.549" x2="85.1638" y2="116.154" gradientUnits="userSpaceOnUse"><stop stop-color="#FF819C"></stop><stop offset="0.2594" stop-color="#FF7E9A"></stop><stop offset="0.4757" stop-color="#FE7396"></stop><stop offset="0.6765" stop-color="#FC628E"></stop><stop offset="0.8668" stop-color="#FA4A83"></stop><stop offset="1" stop-color="#F83479"></stop></linearGradient><linearGradient id="paint6_linear_210_799" x1="68.3104" y1="99.9305" x2="75.8012" y2="118.556" gradientUnits="userSpaceOnUse"><stop stop-color="#F8F6FB"></stop><stop offset="1" stop-color="#EFDCFB"></stop></linearGradient><linearGradient id="paint7_linear_210_799" x1="97.9275" y1="98.124" x2="106.026" y2="116.548" gradientUnits="userSpaceOnUse"><stop stop-color="#F8F6FB"></stop><stop offset="1" stop-color="#EFDCFB"></stop></linearGradient><linearGradient id="paint8_linear_210_799" x1="102.728" y1="109.451" x2="85.6208" y2="71.5918" gradientUnits="userSpaceOnUse"><stop stop-color="#EFDCFB" stop-opacity="0"></stop><stop offset="0.4856" stop-color="#BAAAD6" stop-opacity="0.486"></stop><stop offset="1" stop-color="#8679B2"></stop></linearGradient><radialGradient id="paint9_radial_210_799" cx="0" cy="0" r="1" gradientUnits="userSpaceOnUse" gradientTransform="translate(82.8992 90.117) scale(9.63353)"><stop stop-color="#8A7889"></stop><stop offset="0.3639" stop-color="#877586"></stop><stop offset="0.6755" stop-color="#7F6A7E"></stop><stop offset="0.967" stop-color="#705970"></stop><stop offset="1" stop-color="#6E566E"></stop></radialGradient><linearGradient id="paint10_linear_210_799" x1="68.6837" y1="81.5397" x2="74.185" y2="87.041" gradientUnits="userSpaceOnUse"><stop stop-color="#8A7889"></stop><stop offset="1" stop-color="#6E566E"></stop></linearGradient><linearGradient id="paint11_linear_210_799" x1="70.4206" y1="84.7568" x2="76.2591" y2="73.8979" gradientUnits="userSpaceOnUse"><stop stop-color="#6E566E" stop-opacity="0"></stop><stop offset="0.0471" stop-color="#6E566E" stop-opacity="0.047"></stop><stop offset="1" stop-color="#6E566E"></stop></linearGradient><linearGradient id="paint12_linear_210_799" x1="98.4669" y1="81.5397" x2="103.968" y2="87.041" gradientUnits="userSpaceOnUse"><stop stop-color="#8A7889"></stop><stop offset="1" stop-color="#6E566E"></stop></linearGradient><linearGradient id="paint13_linear_210_799" x1="100.204" y1="84.7568" x2="106.042" y2="73.8979" gradientUnits="userSpaceOnUse"><stop stop-color="#6E566E" stop-opacity="0"></stop><stop offset="0.0471" stop-color="#6E566E" stop-opacity="0.047"></stop><stop offset="1" stop-color="#6E566E"></stop></linearGradient><clipPath id="clip0_210_799"><rect width="90" height="90" fill="white" transform="translate(40.0391 39.8496)"></rect></clipPath></defs></svg>