<svg xmlns="http://www.w3.org/2000/svg" width="170" height="168" viewBox="0 0 170 168" fill="none"><path d="M29.8233 48.5876C39.8725 37.3758 56.1729 35.6177 70.7778 32.0676C85.3827 28.5175 98.1929 23.2326 111.491 27.0343C124.633 30.7944 138.205 43.542 143.438 61.7639C148.671 79.9859 145.409 103.64 130.985 121.468C116.66 139.239 91.172 151.184 69.6407 146.858C48.0521 142.433 30.2788 121.951 23.2055 101.228C16.1893 80.6053 19.8312 59.8983 29.8233 48.5876Z" fill="#FFCEBC"></path><g clip-path="url(#clip0_210_778)"><path d="M125.152 91.6414C123.108 86.3213 122.06 77.3174 122.06 71.6183C122.06 69.2756 105.485 67.3765 85.0393 67.3765C64.5936 67.3765 48.0189 69.2756 48.0189 71.6183C48.0189 77.3174 46.9708 86.3213 44.927 91.6414C43.2304 96.0574 41.6021 100.303 41.606 100.317C42.3724 103.105 61.8073 105.293 85.0393 105.293C108.271 105.293 127.706 103.105 128.472 100.317C128.476 100.302 126.848 96.0574 125.152 91.6414Z" fill="url(#paint0_linear_210_778)"></path><path d="M57.1082 75.8926C59.2984 75.8926 61.0739 74.2277 61.0739 72.1738C61.0739 70.12 59.2984 68.4551 57.1082 68.4551C54.9181 68.4551 53.1426 70.12 53.1426 72.1738C53.1426 74.2277 54.9181 75.8926 57.1082 75.8926Z" fill="url(#paint1_linear_210_778)"></path><path d="M58.1321 68.5811C58.6402 69.2061 58.9425 69.9863 58.9425 70.8328C58.9425 72.8866 57.167 74.5516 54.9768 74.5516C54.6227 74.5516 54.2798 74.5075 53.9531 74.4258C54.6775 75.3171 55.8211 75.8928 57.1084 75.8928C59.2986 75.8928 61.0741 74.2278 61.0741 72.174C61.0741 70.4523 59.8259 69.0044 58.1321 68.5811Z" fill="url(#paint2_linear_210_778)"></path><path d="M69.4427 76.5537C71.6329 76.5537 73.4083 74.8888 73.4083 72.835C73.4083 70.7812 71.6329 69.1162 69.4427 69.1162C67.2525 69.1162 65.4771 70.7812 65.4771 72.835C65.4771 74.8888 67.2525 76.5537 69.4427 76.5537Z" fill="url(#paint3_linear_210_778)"></path><path d="M70.4666 69.2422C70.9747 69.8672 71.2769 70.6474 71.2769 71.494C71.2769 73.5477 69.5015 75.2127 67.3113 75.2127C66.9571 75.2127 66.6142 75.1686 66.2876 75.0869C67.012 75.9782 68.1555 76.5539 69.4429 76.5539C71.6331 76.5539 73.4085 74.8889 73.4085 72.8351C73.4085 71.1133 72.1605 69.6655 70.4666 69.2422Z" fill="url(#paint4_linear_210_778)"></path><path d="M70.658 65.5235C72.8482 65.5235 74.6237 63.8585 74.6237 61.8047C74.6237 59.7509 72.8482 58.0859 70.658 58.0859C68.4679 58.0859 66.6924 59.7509 66.6924 61.8047C66.6924 63.8585 68.4679 65.5235 70.658 65.5235Z" fill="url(#paint5_linear_210_778)"></path><path d="M71.6819 58.2119C72.19 58.837 72.4923 59.6171 72.4923 60.4637C72.4923 62.5174 70.7168 64.1824 68.5266 64.1824C68.1725 64.1824 67.8296 64.1383 67.5029 64.0566C68.2273 64.948 69.3709 65.5236 70.6582 65.5236C72.8484 65.5236 74.6239 63.8586 74.6239 61.8049C74.6237 60.0832 73.3757 58.6353 71.6819 58.2119Z" fill="url(#paint6_linear_210_778)"></path><path d="M77.2532 64.9732C79.4434 64.9732 81.2189 63.3082 81.2189 61.2544C81.2189 59.2006 79.4434 57.5356 77.2532 57.5356C75.0631 57.5356 73.2876 59.2006 73.2876 61.2544C73.2876 63.3082 75.0631 64.9732 77.2532 64.9732Z" fill="url(#paint7_linear_210_778)"></path><path d="M78.2771 57.6616C78.7852 58.2867 79.0875 59.0669 79.0875 59.9134C79.0875 61.9671 77.312 63.6321 75.1218 63.6321C74.7677 63.6321 74.4248 63.588 74.0981 63.5063C74.8226 64.3977 75.9661 64.9733 77.2534 64.9733C79.4436 64.9733 81.2191 63.3083 81.2191 61.2546C81.2191 59.5329 79.9709 58.085 78.2771 57.6616Z" fill="url(#paint8_linear_210_778)"></path><path d="M78.7562 70.5821C80.9463 70.5821 82.7218 68.9171 82.7218 66.8633C82.7218 64.8095 80.9463 63.1445 78.7562 63.1445C76.566 63.1445 74.7905 64.8095 74.7905 66.8633C74.7905 68.9171 76.566 70.5821 78.7562 70.5821Z" fill="url(#paint9_linear_210_778)"></path><path d="M79.7801 63.2705C80.2881 63.8956 80.5904 64.6757 80.5904 65.5223C80.5904 67.576 78.815 69.241 76.6248 69.241C76.2706 69.241 75.9277 69.1969 75.6011 69.1152C76.3255 70.0066 77.469 70.5822 78.7564 70.5822C80.9465 70.5822 82.722 68.9172 82.722 66.8635C82.722 65.1418 81.474 63.6939 79.7801 63.2705Z" fill="url(#paint10_linear_210_778)"></path><path d="M73.8133 69.9048C76.0035 69.9048 77.7789 68.2399 77.7789 66.186C77.7789 64.1322 76.0035 62.4673 73.8133 62.4673C71.6231 62.4673 69.8477 64.1322 69.8477 66.186C69.8477 68.2399 71.6231 69.9048 73.8133 69.9048Z" fill="url(#paint11_linear_210_778)"></path><path d="M74.8372 62.5933C75.3453 63.2183 75.6476 63.9985 75.6476 64.845C75.6476 66.8988 73.8721 68.5638 71.6819 68.5638C71.3277 68.5638 70.9848 68.5197 70.6582 68.438C71.3826 69.3293 72.5261 69.905 73.8135 69.905C76.0037 69.905 77.7791 68.24 77.7791 66.1862C77.7791 64.4644 76.531 63.0166 74.8372 62.5933Z" fill="url(#paint12_linear_210_778)"></path><path d="M59.7039 70.9658C61.8941 70.9658 63.6696 69.3009 63.6696 67.2471C63.6696 65.1933 61.8941 63.5283 59.7039 63.5283C57.5138 63.5283 55.7383 65.1933 55.7383 67.2471C55.7383 69.3009 57.5138 70.9658 59.7039 70.9658Z" fill="url(#paint13_linear_210_778)"></path><path d="M60.7278 63.6543C61.2359 64.2794 61.5382 65.0595 61.5382 65.9061C61.5382 67.9598 59.7627 69.6248 57.5725 69.6248C57.2184 69.6248 56.8755 69.5807 56.5488 69.499C57.2732 70.3904 58.4168 70.966 59.7041 70.966C61.8943 70.966 63.6698 69.301 63.6698 67.2472C63.6698 65.5256 62.4218 64.0777 60.7278 63.6543Z" fill="url(#paint14_linear_210_778)"></path><path d="M63.2645 75.231C65.4546 75.231 67.2301 73.566 67.2301 71.5122C67.2301 69.4584 65.4546 67.7935 63.2645 67.7935C61.0743 67.7935 59.2988 69.4584 59.2988 71.5122C59.2988 73.566 61.0743 75.231 63.2645 75.231Z" fill="url(#paint15_linear_210_778)"></path><path d="M64.2884 67.9194C64.7964 68.5445 65.0987 69.3247 65.0987 70.1712C65.0987 72.225 63.3233 73.89 61.1331 73.89C60.7789 73.89 60.436 73.8458 60.1094 73.7641C60.8338 74.6555 61.9773 75.2311 63.2647 75.2311C65.4548 75.2311 67.2303 73.5661 67.2303 71.5124C67.2301 69.7907 65.9821 68.3428 64.2884 67.9194Z" fill="url(#paint16_linear_210_778)"></path><path d="M75.7918 75.9556C77.982 75.9556 79.7575 74.2906 79.7575 72.2368C79.7575 70.183 77.982 68.5181 75.7918 68.5181C73.6017 68.5181 71.8262 70.183 71.8262 72.2368C71.8262 74.2906 73.6017 75.9556 75.7918 75.9556Z" fill="url(#paint17_linear_210_778)"></path><path d="M76.8157 68.6436C77.3238 69.2686 77.6261 70.0488 77.6261 70.8953C77.6261 72.9491 75.8506 74.6141 73.6604 74.6141C73.3062 74.6141 72.9634 74.57 72.6367 74.4883C73.3611 75.3796 74.5047 75.9553 75.792 75.9553C77.9822 75.9553 79.7577 74.2903 79.7577 72.2365C79.7577 70.5149 78.5095 69.0669 76.8157 68.6436Z" fill="url(#paint18_linear_210_778)"></path><path d="M65.4769 69.1162C67.667 69.1162 69.4425 67.4513 69.4425 65.3975C69.4425 63.3437 67.667 61.6787 65.4769 61.6787C63.2867 61.6787 61.5112 63.3437 61.5112 65.3975C61.5112 67.4513 63.2867 69.1162 65.4769 69.1162Z" fill="url(#paint19_linear_210_778)"></path><path d="M66.5008 61.8047C67.0088 62.4297 67.3111 63.2099 67.3111 64.0565C67.3111 66.1102 65.5357 67.7752 63.3455 67.7752C62.9913 67.7752 62.6484 67.7311 62.3218 67.6494C63.0462 68.5407 64.1897 69.1164 65.4771 69.1164C67.6673 69.1164 69.4427 67.4514 69.4427 65.3976C69.4425 63.676 68.1945 62.228 66.5008 61.8047Z" fill="url(#paint20_linear_210_778)"></path><path d="M69.4427 71.6382C71.6329 71.6382 73.4083 69.9733 73.4083 67.9194C73.4083 65.8656 71.6329 64.2007 69.4427 64.2007C67.2525 64.2007 65.4771 65.8656 65.4771 67.9194C65.4771 69.9733 67.2525 71.6382 69.4427 71.6382Z" fill="url(#paint21_linear_210_778)"></path><path d="M70.4666 64.3267C70.9747 64.9517 71.2769 65.7319 71.2769 66.5784C71.2769 68.6322 69.5015 70.2972 67.3113 70.2972C66.9571 70.2972 66.6142 70.2531 66.2876 70.1714C67.012 71.0627 68.1555 71.6384 69.4429 71.6384C71.6331 71.6384 73.4085 69.9734 73.4085 67.9196C73.4085 66.198 72.1605 64.75 70.4666 64.3267Z" fill="url(#paint22_linear_210_778)"></path><path d="M81.2191 75.8926C83.4092 75.8926 85.1847 74.2277 85.1847 72.1738C85.1847 70.12 83.4092 68.4551 81.2191 68.4551C79.0289 68.4551 77.2534 70.12 77.2534 72.1738C77.2534 74.2277 79.0289 75.8926 81.2191 75.8926Z" fill="url(#paint23_linear_210_778)"></path><path d="M82.243 68.5811C82.751 69.2061 83.0533 69.9863 83.0533 70.8328C83.0533 72.8866 81.2778 74.5516 79.0877 74.5516C78.7335 74.5516 78.3906 74.5075 78.064 74.4258C78.7884 75.3171 79.9319 75.8928 81.2193 75.8928C83.4094 75.8928 85.1849 74.2278 85.1849 72.174C85.1847 70.4523 83.9367 69.0044 82.243 68.5811Z" fill="url(#paint24_linear_210_778)"></path><path d="M91.7459 61.3174C93.9361 61.3174 95.7116 59.6525 95.7116 57.5986C95.7116 55.5448 93.9361 53.8799 91.7459 53.8799C89.5557 53.8799 87.7803 55.5448 87.7803 57.5986C87.7803 59.6525 89.5557 61.3174 91.7459 61.3174Z" fill="url(#paint25_linear_210_778)"></path><path d="M92.7698 54.0059C93.2779 54.6309 93.5802 55.4111 93.5802 56.2576C93.5802 58.3114 91.8047 59.9764 89.6145 59.9764C89.2604 59.9764 88.9175 59.9323 88.5908 59.8506C89.3152 60.7419 90.4588 61.3176 91.7461 61.3176C93.9363 61.3176 95.7118 59.6526 95.7118 57.5988C95.7118 55.877 94.4636 54.4292 92.7698 54.0059Z" fill="url(#paint26_linear_210_778)"></path><path d="M93.5535 76.5537C95.7437 76.5537 97.5192 74.8888 97.5192 72.835C97.5192 70.7812 95.7437 69.1162 93.5535 69.1162C91.3634 69.1162 89.5879 70.7812 89.5879 72.835C89.5879 74.8888 91.3634 76.5537 93.5535 76.5537Z" fill="url(#paint27_linear_210_778)"></path><path d="M94.5774 69.2422C95.0855 69.8672 95.3878 70.6474 95.3878 71.494C95.3878 73.5477 93.6123 75.2127 91.4221 75.2127C91.068 75.2127 90.7251 75.1686 90.3984 75.0869C91.1229 75.9782 92.2664 76.5539 93.5537 76.5539C95.7439 76.5539 97.5194 74.8889 97.5194 72.8351C97.5194 71.1133 96.2714 69.6655 94.5774 69.2422Z" fill="url(#paint28_linear_210_778)"></path><path d="M110.226 70.9658C112.417 70.9658 114.192 69.3009 114.192 67.2471C114.192 65.1933 112.417 63.5283 110.226 63.5283C108.036 63.5283 106.261 65.1933 106.261 67.2471C106.261 69.3009 108.036 70.9658 110.226 70.9658Z" fill="url(#paint29_linear_210_778)"></path><path d="M111.25 63.6543C111.758 64.2794 112.061 65.0595 112.061 65.9061C112.061 67.9598 110.285 69.6248 108.095 69.6248C107.741 69.6248 107.398 69.5807 107.071 69.499C107.796 70.3904 108.939 70.966 110.227 70.966C112.417 70.966 114.192 69.301 114.192 67.2472C114.192 65.5256 112.944 64.0777 111.25 63.6543Z" fill="url(#paint30_linear_210_778)"></path><path d="M103.868 66.8721C106.058 66.8721 107.834 65.2071 107.834 63.1533C107.834 61.0995 106.058 59.4346 103.868 59.4346C101.678 59.4346 99.9023 61.0995 99.9023 63.1533C99.9023 65.2071 101.678 66.8721 103.868 66.8721Z" fill="url(#paint31_linear_210_778)"></path><path d="M104.892 59.5605C105.4 60.1856 105.702 60.9658 105.702 61.8123C105.702 63.8661 103.927 65.5311 101.737 65.5311C101.382 65.5311 101.04 65.487 100.713 65.4053C101.437 66.2966 102.581 66.8723 103.868 66.8723C106.058 66.8723 107.834 65.2073 107.834 63.1535C107.834 61.4317 106.586 59.9839 104.892 59.5605Z" fill="url(#paint32_linear_210_778)"></path><path d="M104.056 71.2364C106.247 71.2364 108.022 69.5714 108.022 67.5176C108.022 65.4638 106.247 63.7988 104.056 63.7988C101.866 63.7988 100.091 65.4638 100.091 67.5176C100.091 69.5714 101.866 71.2364 104.056 71.2364Z" fill="url(#paint33_linear_210_778)"></path><path d="M105.08 63.9243C105.588 64.5494 105.891 65.3296 105.891 66.1761C105.891 68.2299 104.115 69.8949 101.925 69.8949C101.571 69.8949 101.228 69.8507 100.901 69.769C101.626 70.6604 102.769 71.236 104.057 71.236C106.247 71.236 108.022 69.571 108.022 67.5173C108.022 65.7956 106.774 64.3478 105.08 63.9243Z" fill="url(#paint34_linear_210_778)"></path><path d="M105.855 75.8926C108.045 75.8926 109.821 74.2277 109.821 72.1738C109.821 70.12 108.045 68.4551 105.855 68.4551C103.665 68.4551 101.89 70.12 101.89 72.1738C101.89 74.2277 103.665 75.8926 105.855 75.8926Z" fill="url(#paint35_linear_210_778)"></path><path d="M106.879 68.5811C107.387 69.2061 107.69 69.9863 107.69 70.8328C107.69 72.8866 105.914 74.5516 103.724 74.5516C103.37 74.5516 103.027 74.5075 102.7 74.4258C103.425 75.3171 104.568 75.8928 105.855 75.8928C108.046 75.8928 109.821 74.2278 109.821 72.174C109.821 70.4523 108.573 69.0044 106.879 68.5811Z" fill="url(#paint36_linear_210_778)"></path><path d="M82.098 61.9307C84.2881 61.9307 86.0636 60.2657 86.0636 58.2119C86.0636 56.1581 84.2881 54.4932 82.098 54.4932C79.9078 54.4932 78.1323 56.1581 78.1323 58.2119C78.1323 60.2657 79.9078 61.9307 82.098 61.9307Z" fill="url(#paint37_linear_210_778)"></path><path d="M83.1219 54.6191C83.6299 55.2442 83.9322 56.0244 83.9322 56.8709C83.9322 58.9247 82.1568 60.5897 79.9666 60.5897C79.6124 60.5897 79.2695 60.5456 78.9429 60.4638C79.6673 61.3552 80.8108 61.9308 82.0982 61.9308C84.2883 61.9308 86.0638 60.2658 86.0638 58.2121C86.0636 56.4903 84.8156 55.0425 83.1219 54.6191Z" fill="url(#paint38_linear_210_778)"></path><path d="M87.7806 64.2007C89.9707 64.2007 91.7462 62.5358 91.7462 60.482C91.7462 58.4281 89.9707 56.7632 87.7806 56.7632C85.5904 56.7632 83.8149 58.4281 83.8149 60.482C83.8149 62.5358 85.5904 64.2007 87.7806 64.2007Z" fill="url(#paint39_linear_210_778)"></path><path d="M88.8045 56.8892C89.3126 57.5142 89.6149 58.2944 89.6149 59.1409C89.6149 61.1947 87.8394 62.8597 85.6492 62.8597C85.295 62.8597 84.9521 62.8156 84.6255 62.7339C85.3499 63.6252 86.4934 64.2009 87.7808 64.2009C89.971 64.2009 91.7464 62.5359 91.7464 60.4821C91.7464 58.7605 90.4983 57.3125 88.8045 56.8892Z" fill="url(#paint40_linear_210_778)"></path><path d="M82.722 65.3975C84.9122 65.3975 86.6876 63.7325 86.6876 61.6787C86.6876 59.6249 84.9122 57.96 82.722 57.96C80.5318 57.96 78.7563 59.6249 78.7563 61.6787C78.7563 63.7325 80.5318 65.3975 82.722 65.3975Z" fill="url(#paint41_linear_210_778)"></path><path d="M83.7459 58.0859C84.254 58.711 84.5562 59.4912 84.5562 60.3377C84.5562 62.3915 82.7808 64.0565 80.5906 64.0565C80.2364 64.0565 79.8935 64.0123 79.5669 63.9306C80.2913 64.822 81.4348 65.3976 82.7222 65.3976C84.9124 65.3976 86.6878 63.7326 86.6878 61.6789C86.6878 59.9572 85.4397 58.5093 83.7459 58.0859Z" fill="url(#paint42_linear_210_778)"></path><path d="M98.2088 63.3335C100.399 63.3335 102.174 61.6686 102.174 59.6148C102.174 57.5609 100.399 55.896 98.2088 55.896C96.0186 55.896 94.2432 57.5609 94.2432 59.6148C94.2432 61.6686 96.0186 63.3335 98.2088 63.3335Z" fill="url(#paint43_linear_210_778)"></path><path d="M99.2327 56.022C99.7408 56.647 100.043 57.4272 100.043 58.2737C100.043 60.3275 98.2676 61.9925 96.0774 61.9925C95.7232 61.9925 95.3804 61.9484 95.0537 61.8667C95.7781 62.758 96.9217 63.3337 98.209 63.3337C100.399 63.3337 102.175 61.6687 102.175 59.6149C102.174 57.8931 100.926 56.4453 99.2327 56.022Z" fill="url(#paint44_linear_210_778)"></path><path d="M93.5535 65.4605C95.7437 65.4605 97.5192 63.7955 97.5192 61.7417C97.5192 59.6879 95.7437 58.0229 93.5535 58.0229C91.3634 58.0229 89.5879 59.6879 89.5879 61.7417C89.5879 63.7955 91.3634 65.4605 93.5535 65.4605Z" fill="url(#paint45_linear_210_778)"></path><path d="M94.5774 58.1489C95.0855 58.774 95.3878 59.5542 95.3878 60.4007C95.3878 62.4545 93.6123 64.1195 91.4221 64.1195C91.068 64.1195 90.7251 64.0753 90.3984 63.9936C91.1229 64.885 92.2664 65.4606 93.5537 65.4606C95.7439 65.4606 97.5194 63.7956 97.5194 61.7419C97.5194 60.02 96.2714 58.5723 94.5774 58.1489Z" fill="url(#paint46_linear_210_778)"></path><path d="M97.9241 69.9048C100.114 69.9048 101.89 68.2399 101.89 66.186C101.89 64.1322 100.114 62.4673 97.9241 62.4673C95.734 62.4673 93.9585 64.1322 93.9585 66.186C93.9585 68.2399 95.734 69.9048 97.9241 69.9048Z" fill="url(#paint47_linear_210_778)"></path><path d="M98.948 62.5933C99.4561 63.2183 99.7584 63.9985 99.7584 64.845C99.7584 66.8988 97.9829 68.5638 95.7927 68.5638C95.4386 68.5638 95.0957 68.5197 94.769 68.438C95.4935 69.3293 96.637 69.905 97.9243 69.905C100.115 69.905 101.89 68.24 101.89 66.1862C101.89 64.4644 100.642 63.0166 98.948 62.5933Z" fill="url(#paint48_linear_210_778)"></path><path d="M84.4388 70.5821C86.629 70.5821 88.4044 68.9171 88.4044 66.8633C88.4044 64.8095 86.629 63.1445 84.4388 63.1445C82.2486 63.1445 80.4731 64.8095 80.4731 66.8633C80.4731 68.9171 82.2486 70.5821 84.4388 70.5821Z" fill="url(#paint49_linear_210_778)"></path><path d="M85.4627 63.2705C85.9707 63.8956 86.273 64.6757 86.273 65.5223C86.273 67.576 84.4976 69.241 82.3074 69.241C81.9532 69.241 81.6103 69.1969 81.2837 69.1152C82.0081 70.0066 83.1516 70.5822 84.439 70.5822C86.6292 70.5822 88.4046 68.9172 88.4046 66.8635C88.4046 65.1418 87.1566 63.6939 85.4627 63.2705Z" fill="url(#paint50_linear_210_778)"></path><path d="M87.3753 75.231C89.5655 75.231 91.341 73.566 91.341 71.5122C91.341 69.4584 89.5655 67.7935 87.3753 67.7935C85.1851 67.7935 83.4097 69.4584 83.4097 71.5122C83.4097 73.566 85.1851 75.231 87.3753 75.231Z" fill="url(#paint51_linear_210_778)"></path><path d="M88.3992 67.9194C88.9073 68.5445 89.2096 69.3247 89.2096 70.1712C89.2096 72.225 87.4341 73.89 85.2439 73.89C84.8897 73.89 84.5469 73.8458 84.2202 73.7641C84.9446 74.6555 86.0882 75.2311 87.3755 75.2311C89.5657 75.2311 91.3412 73.5661 91.3412 71.5124C91.3412 69.7907 90.0932 68.3428 88.3992 67.9194Z" fill="url(#paint52_linear_210_778)"></path><path d="M99.9027 75.9556C102.093 75.9556 103.868 74.2906 103.868 72.2368C103.868 70.183 102.093 68.5181 99.9027 68.5181C97.7125 68.5181 95.937 70.183 95.937 72.2368C95.937 74.2906 97.7125 75.9556 99.9027 75.9556Z" fill="url(#paint53_linear_210_778)"></path><path d="M100.927 68.6436C101.435 69.2686 101.737 70.0488 101.737 70.8953C101.737 72.9491 99.9615 74.6141 97.7713 74.6141C97.4171 74.6141 97.0742 74.57 96.7476 74.4883C97.472 75.3796 98.6155 75.9553 99.9029 75.9553C102.093 75.9553 103.869 74.2903 103.869 72.2365C103.868 70.5149 102.62 69.0669 100.927 68.6436Z" fill="url(#paint54_linear_210_778)"></path><path d="M112.971 75.9556C115.161 75.9556 116.937 74.2906 116.937 72.2368C116.937 70.183 115.161 68.5181 112.971 68.5181C110.781 68.5181 109.005 70.183 109.005 72.2368C109.005 74.2906 110.781 75.9556 112.971 75.9556Z" fill="url(#paint55_linear_210_778)"></path><path d="M113.995 68.6436C114.503 69.2686 114.805 70.0488 114.805 70.8953C114.805 72.9491 113.03 74.6141 110.84 74.6141C110.485 74.6141 110.143 74.57 109.816 74.4883C110.54 75.3796 111.684 75.9553 112.971 75.9553C115.161 75.9553 116.937 74.2903 116.937 72.2365C116.937 70.5149 115.689 69.0669 113.995 68.6436Z" fill="url(#paint56_linear_210_778)"></path><path d="M89.5877 69.1162C91.7779 69.1162 93.5534 67.4513 93.5534 65.3975C93.5534 63.3437 91.7779 61.6787 89.5877 61.6787C87.3976 61.6787 85.6221 63.3437 85.6221 65.3975C85.6221 67.4513 87.3976 69.1162 89.5877 69.1162Z" fill="url(#paint57_linear_210_778)"></path><path d="M90.6116 61.8047C91.1197 62.4297 91.422 63.2099 91.422 64.0565C91.422 66.1102 89.6465 67.7752 87.4563 67.7752C87.1021 67.7752 86.7593 67.7311 86.4326 67.6494C87.157 68.5407 88.3006 69.1164 89.5879 69.1164C91.7781 69.1164 93.5536 67.4514 93.5536 65.3976C93.5536 63.676 92.3056 62.228 90.6116 61.8047Z" fill="url(#paint58_linear_210_778)"></path><path d="M93.5535 71.6382C95.7437 71.6382 97.5192 69.9733 97.5192 67.9194C97.5192 65.8656 95.7437 64.2007 93.5535 64.2007C91.3634 64.2007 89.5879 65.8656 89.5879 67.9194C89.5879 69.9733 91.3634 71.6382 93.5535 71.6382Z" fill="url(#paint59_linear_210_778)"></path><path d="M94.5774 64.3267C95.0855 64.9517 95.3878 65.7319 95.3878 66.5784C95.3878 68.6322 93.6123 70.2972 91.4221 70.2972C91.068 70.2972 90.7251 70.2531 90.3984 70.1714C91.1229 71.0627 92.2664 71.6384 93.5537 71.6384C95.7439 71.6384 97.5194 69.9734 97.5194 67.9196C97.5194 66.198 96.2714 64.75 94.5774 64.3267Z" fill="url(#paint60_linear_210_778)"></path><path d="M125.151 91.6414C123.108 86.3208 122.059 77.3172 122.059 71.6172C122.059 70.6996 119.516 69.8508 115.191 69.1572C116.033 69.6902 116.644 70.5178 116.855 71.4831V71.4866C116.884 71.529 116.896 71.5731 116.896 71.6172C116.896 71.6331 116.894 71.649 116.889 71.6649C116.816 72.0161 115.913 72.3496 114.337 72.6549C113.045 72.9037 111.298 73.1331 109.182 73.3361C103.341 73.8972 94.6906 74.2519 85.0394 74.2519C75.3759 74.2519 66.7164 73.8955 60.8753 73.3343C58.77 73.1331 57.03 72.9037 55.7417 72.6549C54.1217 72.3408 53.2112 71.9966 53.1847 71.6349C53.1829 71.6296 53.1829 71.6225 53.1829 71.6172C53.1829 71.5855 53.19 71.5519 53.2041 71.5202L53.2059 71.5184C53.3859 70.5602 53.9576 69.729 54.7623 69.1766C50.5147 69.8666 48.0194 70.7084 48.0194 71.6172C48.0194 74.4672 47.7564 80.6578 47.2394 83.4478C46.7223 86.2396 45.9494 88.9819 44.9276 91.6414C43.2335 96.0514 41.6064 100.29 41.6064 100.317C42.3723 103.105 61.807 105.293 85.0394 105.293C108.272 105.293 127.706 103.105 128.472 100.317C128.472 100.29 126.845 96.0514 125.151 91.6414Z" fill="url(#paint61_linear_210_778)"></path><path d="M128.472 100.317C127.706 103.105 108.271 105.293 85.0392 105.293C61.8077 105.293 42.3725 103.105 41.6064 100.317C41.6064 100.29 43.2332 96.0511 44.9271 91.6407C45.9497 88.9815 46.722 86.239 47.2389 83.4477C47.757 80.6577 48.0185 74.4675 48.0185 71.6177C48.0185 73.9605 64.594 75.86 85.0394 75.86C105.485 75.86 122.06 73.9607 122.06 71.6177C122.06 77.3171 123.108 86.321 125.152 91.6407C126.845 96.0511 128.472 100.29 128.472 100.317Z" fill="url(#paint62_linear_210_778)"></path><path d="M85.0394 98.8188C67.7286 98.8188 52.3546 97.7035 44.0947 96.0269C42.5376 95.7108 40.9716 96.5215 40.3297 97.9751C39.4776 99.905 40.5789 102.142 42.6316 102.629C50.4429 104.482 66.6493 105.741 85.0394 105.741C103.43 105.741 119.636 104.482 127.447 102.629C129.5 102.142 130.601 99.905 129.749 97.9753C129.107 96.5219 127.541 95.711 125.984 96.0271C117.724 97.7035 102.35 98.8188 85.0394 98.8188Z" fill="url(#paint63_linear_210_778)"></path><path d="M125.151 91.6413C123.108 86.3208 122.059 77.3172 122.059 71.6172C122.059 70.6996 119.517 69.8508 115.191 69.1572C116.033 69.6902 116.644 70.5178 116.855 71.4831V71.4866C116.884 71.529 116.896 71.5731 116.896 71.6172C116.896 71.6331 116.894 71.649 116.889 71.6649C116.817 72.0161 115.913 72.3496 114.337 72.6549C113.045 72.9037 111.298 73.1331 109.182 73.3361C103.341 73.8972 94.6906 74.2519 85.0395 74.2519C75.3759 74.2519 66.7165 73.8955 60.8753 73.3343C58.77 73.1331 57.03 72.9037 55.7418 72.6549C54.7377 72.4608 54.0053 72.2543 53.5889 72.039L86.8377 105.288C109.267 105.18 127.726 103.033 128.472 100.317C128.472 100.29 126.845 96.0513 125.151 91.6413Z" fill="url(#paint64_linear_210_778)"></path><path d="M124.664 103.202L101.348 79.8865C100.94 79.3107 100.27 78.9336 99.5098 78.9336H70.5686C69.324 78.9336 68.3149 79.9427 68.3149 81.1873V93.4615C68.3149 94.2212 68.6919 94.8917 69.2679 95.2998L79.6729 105.705C81.4368 105.729 83.2271 105.741 85.0392 105.741C101.465 105.741 116.148 104.737 124.664 103.202Z" fill="url(#paint65_linear_210_778)"></path><path d="M99.5098 95.7152H70.5686C69.324 95.7152 68.3149 94.7062 68.3149 93.4615V81.1873C68.3149 79.9427 69.324 78.9336 70.5686 78.9336H99.5098C100.754 78.9336 101.764 79.9427 101.764 81.1873V93.4615C101.763 94.7064 100.754 95.7152 99.5098 95.7152Z" fill="url(#paint66_linear_210_778)"></path><path d="M98.4249 94.0358H71.6533C70.5881 94.0358 69.7246 93.1723 69.7246 92.1071V82.5424C69.7246 81.4772 70.5881 80.6138 71.6533 80.6138H98.4247C99.4899 80.6138 100.353 81.4772 100.353 82.5424V92.1071C100.354 93.1721 99.4901 94.0358 98.4249 94.0358Z" fill="url(#paint67_linear_210_778)"></path><path d="M101.763 93.4618V91.2758L93.4947 83.0071C93.0269 82.4525 92.3197 82.1061 91.5339 82.1295C90.192 82.1694 89.1415 83.3055 89.1415 84.648C89.1415 85.2848 88.6252 85.801 87.9885 85.801H83.141C83.1131 85.7751 80.3167 82.9851 80.3167 82.9851C79.8823 82.4811 79.2553 82.1507 78.5446 82.1295C77.1503 82.0881 76.0029 83.2102 76.0029 84.5954C76.0029 85.293 76.3006 85.9612 76.8198 86.4289C76.8198 86.4289 77.1985 86.806 77.2193 86.8283C77.4606 87.1879 77.4147 87.6845 77.0768 87.9889L76.8198 88.2204C76.3006 88.6881 76.0029 89.3564 76.0029 90.054C76.0029 90.7976 76.3356 91.4634 76.8578 91.9161L80.6572 95.7155H99.5099C100.755 95.7153 101.763 94.7064 101.763 93.4618Z" fill="url(#paint68_linear_210_778)"></path><path d="M91.5339 92.5198C90.1921 92.4799 89.1415 91.3438 89.1415 90.0014C89.1415 89.3645 88.6252 88.8483 87.9885 88.8483H82.0901C81.4532 88.8483 80.937 89.3647 80.937 90.0014C80.937 91.3438 79.8865 92.4799 78.5446 92.5198C77.1503 92.5611 76.0029 91.4391 76.0029 90.054C76.0029 89.3564 76.3006 88.6881 76.8198 88.2204L77.0768 87.9889C77.471 87.6338 77.471 87.0155 77.0768 86.6604L76.8198 86.4289C76.3006 85.9612 76.0029 85.2929 76.0029 84.5954C76.0029 83.2102 77.1503 82.0881 78.5446 82.1295C79.8865 82.1694 80.937 83.3055 80.937 84.6479C80.937 85.2848 81.4534 85.801 82.0901 85.801H87.9885C88.6253 85.801 89.1415 85.2847 89.1415 84.6479C89.1415 83.3055 90.1921 82.1694 91.5339 82.1295C92.9282 82.0881 94.0756 83.2102 94.0756 84.5954C94.0756 85.2929 93.7779 85.9612 93.2588 86.4289L93.0018 86.6604C92.6076 87.0155 92.6076 87.6338 93.0018 87.9889L93.2588 88.2204C93.7779 88.6881 94.0756 89.3564 94.0756 90.054C94.0756 91.4389 92.9282 92.5611 91.5339 92.5198Z" fill="url(#paint69_linear_210_778)"></path><path d="M109.468 104.919L104.721 100.172C103.995 99.4099 102.939 98.9297 101.764 98.9297C99.5734 98.9297 97.7979 100.595 97.7979 102.648C97.7979 102.69 97.7999 102.731 97.8013 102.773C97.4764 102.692 97.1353 102.648 96.7834 102.648C94.8556 102.648 93.2499 103.938 92.8926 105.648C98.8502 105.529 104.455 105.278 109.468 104.919Z" fill="url(#paint70_linear_210_778)"></path><path d="M101.763 106.382C103.954 106.382 105.729 104.717 105.729 102.664C105.729 100.61 103.954 98.9448 101.763 98.9448C99.5733 98.9448 97.7979 100.61 97.7979 102.664C97.7979 104.717 99.5733 106.382 101.763 106.382Z" fill="url(#paint71_linear_210_778)"></path><path d="M102.787 99.0703C103.295 99.6954 103.598 100.476 103.598 101.322C103.598 103.376 101.822 105.041 99.6321 105.041C99.2779 105.041 98.935 104.997 98.6084 104.915C99.3328 105.806 100.476 106.382 101.764 106.382C103.954 106.382 105.729 104.717 105.729 102.663C105.729 100.942 104.481 99.4938 102.787 99.0703Z" fill="url(#paint72_linear_210_778)"></path><path d="M96.7835 110.101C98.9737 110.101 100.749 108.436 100.749 106.382C100.749 104.329 98.9737 102.664 96.7835 102.664C94.5934 102.664 92.8179 104.329 92.8179 106.382C92.8179 108.436 94.5934 110.101 96.7835 110.101Z" fill="url(#paint73_linear_210_778)"></path><path d="M97.8074 102.79C98.3155 103.415 98.6178 104.195 98.6178 105.041C98.6178 107.095 96.8423 108.76 94.6521 108.76C94.2979 108.76 93.9551 108.716 93.6284 108.634C94.3528 109.526 95.4964 110.101 96.7837 110.101C98.9739 110.101 100.749 108.436 100.749 106.382C100.749 104.661 99.5012 103.213 97.8074 102.79Z" fill="url(#paint74_linear_210_778)"></path><path d="M103.426 111.719C105.616 111.719 107.392 110.054 107.392 108C107.392 105.946 105.616 104.281 103.426 104.281C101.236 104.281 99.4604 105.946 99.4604 108C99.4604 110.054 101.236 111.719 103.426 111.719Z" fill="url(#paint75_linear_210_778)"></path><path d="M104.45 104.407C104.958 105.032 105.26 105.812 105.26 106.659C105.26 108.713 103.485 110.378 101.295 110.378C100.941 110.378 100.598 110.334 100.271 110.252C100.995 111.143 102.139 111.719 103.426 111.719C105.616 111.719 107.392 110.054 107.392 108C107.392 106.279 106.144 104.831 104.45 104.407Z" fill="url(#paint76_linear_210_778)"></path><path d="M116.936 113.82C119.127 113.82 120.902 112.155 120.902 110.101C120.902 108.047 119.127 106.382 116.936 106.382C114.746 106.382 112.971 108.047 112.971 110.101C112.971 112.155 114.746 113.82 116.936 113.82Z" fill="url(#paint77_linear_210_778)"></path><path d="M117.96 106.508C118.468 107.133 118.771 107.914 118.771 108.76C118.771 110.814 116.995 112.479 114.805 112.479C114.451 112.479 114.108 112.435 113.781 112.353C114.506 113.244 115.649 113.82 116.937 113.82C119.127 113.82 120.902 112.155 120.902 110.101C120.902 108.38 119.654 106.932 117.96 106.508Z" fill="url(#paint78_linear_210_778)"></path></g><defs><linearGradient id="paint0_linear_210_778" x1="74.6321" y1="74.2449" x2="97.6544" y2="111.575" gradientUnits="userSpaceOnUse"><stop stop-color="#FFD945"></stop><stop offset="0.3043" stop-color="#FFCD3E"></stop><stop offset="0.8558" stop-color="#FFAD2B"></stop><stop offset="1" stop-color="#FFA325"></stop></linearGradient><linearGradient id="paint1_linear_210_778" x1="53.1426" y1="72.191" x2="61.0737" y2="72.191" gradientUnits="userSpaceOnUse"><stop stop-color="#FCB37E"></stop><stop offset="1" stop-color="#8C6239"></stop></linearGradient><linearGradient id="paint2_linear_210_778" x1="55.1009" y1="71.3887" x2="69.2452" y2="76.9233" gradientUnits="userSpaceOnUse"><stop stop-color="#8C6239" stop-opacity="0"></stop><stop offset="1" stop-color="#8C6239"></stop></linearGradient><linearGradient id="paint3_linear_210_778" x1="65.4771" y1="72.852" x2="73.4083" y2="72.852" gradientUnits="userSpaceOnUse"><stop stop-color="#FCB37E"></stop><stop offset="1" stop-color="#8C6239"></stop></linearGradient><linearGradient id="paint4_linear_210_778" x1="67.4355" y1="72.0498" x2="81.5797" y2="77.5845" gradientUnits="userSpaceOnUse"><stop stop-color="#8C6239" stop-opacity="0"></stop><stop offset="1" stop-color="#8C6239"></stop></linearGradient><linearGradient id="paint5_linear_210_778" x1="66.6924" y1="61.8241" x2="74.6235" y2="61.8241" gradientUnits="userSpaceOnUse"><stop stop-color="#FCB37E"></stop><stop offset="1" stop-color="#8C6239"></stop></linearGradient><linearGradient id="paint6_linear_210_778" x1="68.6507" y1="61.0196" x2="82.7948" y2="66.5542" gradientUnits="userSpaceOnUse"><stop stop-color="#8C6239" stop-opacity="0"></stop><stop offset="1" stop-color="#8C6239"></stop></linearGradient><linearGradient id="paint7_linear_210_778" x1="73.2876" y1="61.274" x2="81.2187" y2="61.274" gradientUnits="userSpaceOnUse"><stop stop-color="#FCB37E"></stop><stop offset="1" stop-color="#8C6239"></stop></linearGradient><linearGradient id="paint8_linear_210_778" x1="75.2459" y1="60.4693" x2="89.3902" y2="66.0039" gradientUnits="userSpaceOnUse"><stop stop-color="#8C6239" stop-opacity="0"></stop><stop offset="1" stop-color="#8C6239"></stop></linearGradient><linearGradient id="paint9_linear_210_778" x1="74.7905" y1="66.8817" x2="82.7218" y2="66.8817" gradientUnits="userSpaceOnUse"><stop stop-color="#FCB37E"></stop><stop offset="1" stop-color="#8C6239"></stop></linearGradient><linearGradient id="paint10_linear_210_778" x1="76.7488" y1="66.0782" x2="90.8931" y2="71.613" gradientUnits="userSpaceOnUse"><stop stop-color="#8C6239" stop-opacity="0"></stop><stop offset="1" stop-color="#8C6239"></stop></linearGradient><linearGradient id="paint11_linear_210_778" x1="69.8477" y1="66.2046" x2="77.7789" y2="66.2046" gradientUnits="userSpaceOnUse"><stop stop-color="#FCB37E"></stop><stop offset="1" stop-color="#8C6239"></stop></linearGradient><linearGradient id="paint12_linear_210_778" x1="71.806" y1="65.4009" x2="85.9503" y2="70.9355" gradientUnits="userSpaceOnUse"><stop stop-color="#8C6239" stop-opacity="0"></stop><stop offset="1" stop-color="#8C6239"></stop></linearGradient><linearGradient id="paint13_linear_210_778" x1="55.7383" y1="67.2654" x2="63.6696" y2="67.2654" gradientUnits="userSpaceOnUse"><stop stop-color="#FCB37E"></stop><stop offset="1" stop-color="#8C6239"></stop></linearGradient><linearGradient id="paint14_linear_210_778" x1="57.6966" y1="66.4619" x2="71.8409" y2="71.9966" gradientUnits="userSpaceOnUse"><stop stop-color="#8C6239" stop-opacity="0"></stop><stop offset="1" stop-color="#8C6239"></stop></linearGradient><linearGradient id="paint15_linear_210_778" x1="59.2988" y1="71.5296" x2="67.2301" y2="71.5296" gradientUnits="userSpaceOnUse"><stop stop-color="#FCB37E"></stop><stop offset="1" stop-color="#8C6239"></stop></linearGradient><linearGradient id="paint16_linear_210_778" x1="61.2571" y1="70.7271" x2="75.4013" y2="76.2617" gradientUnits="userSpaceOnUse"><stop stop-color="#8C6239" stop-opacity="0"></stop><stop offset="1" stop-color="#8C6239"></stop></linearGradient><linearGradient id="paint17_linear_210_778" x1="71.8262" y1="72.2539" x2="79.7573" y2="72.2539" gradientUnits="userSpaceOnUse"><stop stop-color="#FCB37E"></stop><stop offset="1" stop-color="#8C6239"></stop></linearGradient><linearGradient id="paint18_linear_210_778" x1="73.7845" y1="71.4512" x2="87.9288" y2="76.986" gradientUnits="userSpaceOnUse"><stop stop-color="#8C6239" stop-opacity="0"></stop><stop offset="1" stop-color="#8C6239"></stop></linearGradient><linearGradient id="paint19_linear_210_778" x1="61.5112" y1="65.4162" x2="69.4425" y2="65.4162" gradientUnits="userSpaceOnUse"><stop stop-color="#FCB37E"></stop><stop offset="1" stop-color="#8C6239"></stop></linearGradient><linearGradient id="paint20_linear_210_778" x1="63.4695" y1="64.6123" x2="77.6137" y2="70.147" gradientUnits="userSpaceOnUse"><stop stop-color="#8C6239" stop-opacity="0"></stop><stop offset="1" stop-color="#8C6239"></stop></linearGradient><linearGradient id="paint21_linear_210_778" x1="65.4771" y1="67.9375" x2="73.4083" y2="67.9375" gradientUnits="userSpaceOnUse"><stop stop-color="#FCB37E"></stop><stop offset="1" stop-color="#8C6239"></stop></linearGradient><linearGradient id="paint22_linear_210_778" x1="67.4355" y1="67.1343" x2="81.5797" y2="72.669" gradientUnits="userSpaceOnUse"><stop stop-color="#8C6239" stop-opacity="0"></stop><stop offset="1" stop-color="#8C6239"></stop></linearGradient><linearGradient id="paint23_linear_210_778" x1="77.2534" y1="72.191" x2="85.1845" y2="72.191" gradientUnits="userSpaceOnUse"><stop stop-color="#FCB37E"></stop><stop offset="1" stop-color="#8C6239"></stop></linearGradient><linearGradient id="paint24_linear_210_778" x1="79.2117" y1="71.3887" x2="93.3558" y2="76.9233" gradientUnits="userSpaceOnUse"><stop stop-color="#8C6239" stop-opacity="0"></stop><stop offset="1" stop-color="#8C6239"></stop></linearGradient><linearGradient id="paint25_linear_210_778" x1="87.7803" y1="57.6189" x2="95.7114" y2="57.6189" gradientUnits="userSpaceOnUse"><stop stop-color="#FCB37E"></stop><stop offset="1" stop-color="#8C6239"></stop></linearGradient><linearGradient id="paint26_linear_210_778" x1="89.7386" y1="56.8133" x2="103.883" y2="62.3482" gradientUnits="userSpaceOnUse"><stop stop-color="#8C6239" stop-opacity="0"></stop><stop offset="1" stop-color="#8C6239"></stop></linearGradient><linearGradient id="paint27_linear_210_778" x1="89.5879" y1="72.852" x2="97.5192" y2="72.852" gradientUnits="userSpaceOnUse"><stop stop-color="#FCB37E"></stop><stop offset="1" stop-color="#8C6239"></stop></linearGradient><linearGradient id="paint28_linear_210_778" x1="91.5462" y1="72.0498" x2="105.691" y2="77.5845" gradientUnits="userSpaceOnUse"><stop stop-color="#8C6239" stop-opacity="0"></stop><stop offset="1" stop-color="#8C6239"></stop></linearGradient><linearGradient id="paint29_linear_210_778" x1="106.261" y1="67.2654" x2="114.192" y2="67.2654" gradientUnits="userSpaceOnUse"><stop stop-color="#FCB37E"></stop><stop offset="1" stop-color="#8C6239"></stop></linearGradient><linearGradient id="paint30_linear_210_778" x1="108.219" y1="66.4619" x2="122.363" y2="71.9966" gradientUnits="userSpaceOnUse"><stop stop-color="#8C6239" stop-opacity="0"></stop><stop offset="1" stop-color="#8C6239"></stop></linearGradient><linearGradient id="paint31_linear_210_778" x1="99.9023" y1="63.1725" x2="107.834" y2="63.1725" gradientUnits="userSpaceOnUse"><stop stop-color="#FCB37E"></stop><stop offset="1" stop-color="#8C6239"></stop></linearGradient><linearGradient id="paint32_linear_210_778" x1="101.861" y1="62.3682" x2="116.005" y2="67.9029" gradientUnits="userSpaceOnUse"><stop stop-color="#8C6239" stop-opacity="0"></stop><stop offset="1" stop-color="#8C6239"></stop></linearGradient><linearGradient id="paint33_linear_210_778" x1="100.091" y1="67.5357" x2="108.022" y2="67.5357" gradientUnits="userSpaceOnUse"><stop stop-color="#FCB37E"></stop><stop offset="1" stop-color="#8C6239"></stop></linearGradient><linearGradient id="paint34_linear_210_778" x1="102.049" y1="66.732" x2="116.193" y2="72.2668" gradientUnits="userSpaceOnUse"><stop stop-color="#8C6239" stop-opacity="0"></stop><stop offset="1" stop-color="#8C6239"></stop></linearGradient><linearGradient id="paint35_linear_210_778" x1="101.89" y1="72.191" x2="109.821" y2="72.191" gradientUnits="userSpaceOnUse"><stop stop-color="#FCB37E"></stop><stop offset="1" stop-color="#8C6239"></stop></linearGradient><linearGradient id="paint36_linear_210_778" x1="103.848" y1="71.3887" x2="117.992" y2="76.9234" gradientUnits="userSpaceOnUse"><stop stop-color="#8C6239" stop-opacity="0"></stop><stop offset="1" stop-color="#8C6239"></stop></linearGradient><linearGradient id="paint37_linear_210_778" x1="78.1323" y1="58.2321" x2="86.0636" y2="58.2321" gradientUnits="userSpaceOnUse"><stop stop-color="#FCB37E"></stop><stop offset="1" stop-color="#8C6239"></stop></linearGradient><linearGradient id="paint38_linear_210_778" x1="80.0906" y1="57.4268" x2="94.2348" y2="62.9614" gradientUnits="userSpaceOnUse"><stop stop-color="#8C6239" stop-opacity="0"></stop><stop offset="1" stop-color="#8C6239"></stop></linearGradient><linearGradient id="paint39_linear_210_778" x1="83.8149" y1="60.5017" x2="91.746" y2="60.5017" gradientUnits="userSpaceOnUse"><stop stop-color="#FCB37E"></stop><stop offset="1" stop-color="#8C6239"></stop></linearGradient><linearGradient id="paint40_linear_210_778" x1="85.7733" y1="59.6968" x2="99.9176" y2="65.2315" gradientUnits="userSpaceOnUse"><stop stop-color="#8C6239" stop-opacity="0"></stop><stop offset="1" stop-color="#8C6239"></stop></linearGradient><linearGradient id="paint41_linear_210_778" x1="78.7563" y1="61.6982" x2="86.6875" y2="61.6982" gradientUnits="userSpaceOnUse"><stop stop-color="#FCB37E"></stop><stop offset="1" stop-color="#8C6239"></stop></linearGradient><linearGradient id="paint42_linear_210_778" x1="80.7147" y1="60.8936" x2="94.8589" y2="66.4284" gradientUnits="userSpaceOnUse"><stop stop-color="#8C6239" stop-opacity="0"></stop><stop offset="1" stop-color="#8C6239"></stop></linearGradient><linearGradient id="paint43_linear_210_778" x1="94.2432" y1="59.6346" x2="102.174" y2="59.6346" gradientUnits="userSpaceOnUse"><stop stop-color="#FCB37E"></stop><stop offset="1" stop-color="#8C6239"></stop></linearGradient><linearGradient id="paint44_linear_210_778" x1="96.2015" y1="58.8296" x2="110.346" y2="64.3643" gradientUnits="userSpaceOnUse"><stop stop-color="#8C6239" stop-opacity="0"></stop><stop offset="1" stop-color="#8C6239"></stop></linearGradient><linearGradient id="paint45_linear_210_778" x1="89.5879" y1="61.7611" x2="97.5192" y2="61.7611" gradientUnits="userSpaceOnUse"><stop stop-color="#FCB37E"></stop><stop offset="1" stop-color="#8C6239"></stop></linearGradient><linearGradient id="paint46_linear_210_778" x1="91.5462" y1="60.9566" x2="105.691" y2="66.4912" gradientUnits="userSpaceOnUse"><stop stop-color="#8C6239" stop-opacity="0"></stop><stop offset="1" stop-color="#8C6239"></stop></linearGradient><linearGradient id="paint47_linear_210_778" x1="93.9585" y1="66.2046" x2="101.89" y2="66.2046" gradientUnits="userSpaceOnUse"><stop stop-color="#FCB37E"></stop><stop offset="1" stop-color="#8C6239"></stop></linearGradient><linearGradient id="paint48_linear_210_778" x1="95.9168" y1="65.4009" x2="110.061" y2="70.9356" gradientUnits="userSpaceOnUse"><stop stop-color="#8C6239" stop-opacity="0"></stop><stop offset="1" stop-color="#8C6239"></stop></linearGradient><linearGradient id="paint49_linear_210_778" x1="80.4731" y1="66.8817" x2="88.4044" y2="66.8817" gradientUnits="userSpaceOnUse"><stop stop-color="#FCB37E"></stop><stop offset="1" stop-color="#8C6239"></stop></linearGradient><linearGradient id="paint50_linear_210_778" x1="82.4315" y1="66.0782" x2="96.5757" y2="71.613" gradientUnits="userSpaceOnUse"><stop stop-color="#8C6239" stop-opacity="0"></stop><stop offset="1" stop-color="#8C6239"></stop></linearGradient><linearGradient id="paint51_linear_210_778" x1="83.4097" y1="71.5296" x2="91.341" y2="71.5296" gradientUnits="userSpaceOnUse"><stop stop-color="#FCB37E"></stop><stop offset="1" stop-color="#8C6239"></stop></linearGradient><linearGradient id="paint52_linear_210_778" x1="85.368" y1="70.7271" x2="99.5123" y2="76.2617" gradientUnits="userSpaceOnUse"><stop stop-color="#8C6239" stop-opacity="0"></stop><stop offset="1" stop-color="#8C6239"></stop></linearGradient><linearGradient id="paint53_linear_210_778" x1="95.937" y1="72.2539" x2="103.868" y2="72.2539" gradientUnits="userSpaceOnUse"><stop stop-color="#FCB37E"></stop><stop offset="1" stop-color="#8C6239"></stop></linearGradient><linearGradient id="paint54_linear_210_778" x1="97.8953" y1="71.4512" x2="112.039" y2="76.986" gradientUnits="userSpaceOnUse"><stop stop-color="#8C6239" stop-opacity="0"></stop><stop offset="1" stop-color="#8C6239"></stop></linearGradient><linearGradient id="paint55_linear_210_778" x1="109.005" y1="72.2539" x2="116.937" y2="72.2539" gradientUnits="userSpaceOnUse"><stop stop-color="#FCB37E"></stop><stop offset="1" stop-color="#8C6239"></stop></linearGradient><linearGradient id="paint56_linear_210_778" x1="110.964" y1="71.4512" x2="125.108" y2="76.986" gradientUnits="userSpaceOnUse"><stop stop-color="#8C6239" stop-opacity="0"></stop><stop offset="1" stop-color="#8C6239"></stop></linearGradient><linearGradient id="paint57_linear_210_778" x1="85.6221" y1="65.4162" x2="93.5534" y2="65.4162" gradientUnits="userSpaceOnUse"><stop stop-color="#FCB37E"></stop><stop offset="1" stop-color="#8C6239"></stop></linearGradient><linearGradient id="paint58_linear_210_778" x1="87.5806" y1="64.6123" x2="101.725" y2="70.147" gradientUnits="userSpaceOnUse"><stop stop-color="#8C6239" stop-opacity="0"></stop><stop offset="1" stop-color="#8C6239"></stop></linearGradient><linearGradient id="paint59_linear_210_778" x1="89.5879" y1="67.9375" x2="97.5192" y2="67.9375" gradientUnits="userSpaceOnUse"><stop stop-color="#FCB37E"></stop><stop offset="1" stop-color="#8C6239"></stop></linearGradient><linearGradient id="paint60_linear_210_778" x1="91.5462" y1="67.1343" x2="105.691" y2="72.669" gradientUnits="userSpaceOnUse"><stop stop-color="#8C6239" stop-opacity="0"></stop><stop offset="1" stop-color="#8C6239"></stop></linearGradient><linearGradient id="paint61_linear_210_778" x1="84.7276" y1="57.4359" x2="84.9893" y2="93.4348" gradientUnits="userSpaceOnUse"><stop stop-color="#FFD945"></stop><stop offset="0.3043" stop-color="#FFCD3E"></stop><stop offset="0.8558" stop-color="#FFAD2B"></stop><stop offset="1" stop-color="#FFA325"></stop></linearGradient><linearGradient id="paint62_linear_210_778" x1="74.7312" y1="74.4807" x2="97.6387" y2="111.625" gradientUnits="userSpaceOnUse"><stop stop-color="#FFD945"></stop><stop offset="0.3043" stop-color="#FFCD3E"></stop><stop offset="0.8558" stop-color="#FFAD2B"></stop><stop offset="1" stop-color="#FFA325"></stop></linearGradient><linearGradient id="paint63_linear_210_778" x1="85.0394" y1="97.1948" x2="85.0394" y2="107.664" gradientUnits="userSpaceOnUse"><stop stop-color="#FFD945"></stop><stop offset="0.3043" stop-color="#FFCD3E"></stop><stop offset="0.8558" stop-color="#FFAD2B"></stop><stop offset="1" stop-color="#FFA325"></stop></linearGradient><linearGradient id="paint64_linear_210_778" x1="90.9694" y1="85.6881" x2="86.3812" y2="48.9822" gradientUnits="userSpaceOnUse"><stop stop-color="#F35227" stop-opacity="0"></stop><stop offset="1" stop-color="#F35227"></stop></linearGradient><linearGradient id="paint65_linear_210_778" x1="97.8577" y1="102.601" x2="85.6812" y2="66.248" gradientUnits="userSpaceOnUse"><stop stop-color="#F35227" stop-opacity="0"></stop><stop offset="1" stop-color="#F35227"></stop></linearGradient><linearGradient id="paint66_linear_210_778" x1="81.2167" y1="76.1009" x2="88.9163" y2="98.7082" gradientUnits="userSpaceOnUse"><stop stop-color="#9B62CD"></stop><stop offset="0.3063" stop-color="#975BCB"></stop><stop offset="0.7468" stop-color="#8B48C5"></stop><stop offset="1" stop-color="#833AC1"></stop></linearGradient><linearGradient id="paint67_linear_210_778" x1="86.2643" y1="98.7595" x2="82.3325" y2="62.0635" gradientUnits="userSpaceOnUse"><stop stop-color="#9B62CD"></stop><stop offset="0.3063" stop-color="#975BCB"></stop><stop offset="0.7468" stop-color="#8B48C5"></stop><stop offset="1" stop-color="#833AC1"></stop></linearGradient><linearGradient id="paint68_linear_210_778" x1="93.0281" y1="102.771" x2="85.5281" y2="81.2417" gradientUnits="userSpaceOnUse"><stop stop-color="#9B62CD" stop-opacity="0"></stop><stop offset="1" stop-color="#662D90"></stop></linearGradient><linearGradient id="paint69_linear_210_778" x1="85.0393" y1="85.8961" x2="85.0393" y2="91.878" gradientUnits="userSpaceOnUse"><stop stop-color="#F8F6FB"></stop><stop offset="1" stop-color="#EFDCFB"></stop></linearGradient><linearGradient id="paint70_linear_210_778" x1="107.021" y1="111.123" x2="94.1492" y2="98.2515" gradientUnits="userSpaceOnUse"><stop stop-color="#F35227" stop-opacity="0"></stop><stop offset="1" stop-color="#F35227"></stop></linearGradient><linearGradient id="paint71_linear_210_778" x1="97.7979" y1="102.674" x2="105.729" y2="102.674" gradientUnits="userSpaceOnUse"><stop stop-color="#FCB37E"></stop><stop offset="1" stop-color="#8C6239"></stop></linearGradient><linearGradient id="paint72_linear_210_778" x1="99.7562" y1="101.878" x2="113.9" y2="107.413" gradientUnits="userSpaceOnUse"><stop stop-color="#8C6239" stop-opacity="0"></stop><stop offset="1" stop-color="#8C6239"></stop></linearGradient><linearGradient id="paint73_linear_210_778" x1="92.8179" y1="106.392" x2="100.749" y2="106.392" gradientUnits="userSpaceOnUse"><stop stop-color="#FCB37E"></stop><stop offset="1" stop-color="#8C6239"></stop></linearGradient><linearGradient id="paint74_linear_210_778" x1="94.7762" y1="105.597" x2="108.92" y2="111.132" gradientUnits="userSpaceOnUse"><stop stop-color="#8C6239" stop-opacity="0"></stop><stop offset="1" stop-color="#8C6239"></stop></linearGradient><linearGradient id="paint75_linear_210_778" x1="99.4604" y1="108.009" x2="107.392" y2="108.009" gradientUnits="userSpaceOnUse"><stop stop-color="#FCB37E"></stop><stop offset="1" stop-color="#8C6239"></stop></linearGradient><linearGradient id="paint76_linear_210_778" x1="101.419" y1="107.215" x2="115.563" y2="112.75" gradientUnits="userSpaceOnUse"><stop stop-color="#8C6239" stop-opacity="0"></stop><stop offset="1" stop-color="#8C6239"></stop></linearGradient><linearGradient id="paint77_linear_210_778" x1="112.971" y1="110.11" x2="120.902" y2="110.11" gradientUnits="userSpaceOnUse"><stop stop-color="#FCB37E"></stop><stop offset="1" stop-color="#8C6239"></stop></linearGradient><linearGradient id="paint78_linear_210_778" x1="114.929" y1="109.316" x2="129.073" y2="114.851" gradientUnits="userSpaceOnUse"><stop stop-color="#8C6239" stop-opacity="0"></stop><stop offset="1" stop-color="#8C6239"></stop></linearGradient><clipPath id="clip0_210_778"><rect width="90" height="90" fill="white" transform="translate(40.0396 38.8496)"></rect></clipPath></defs></svg>