<svg id="Capa_1" enable-background="new 0 0 512 512" height="512" viewBox="0 0 512 512" width="512" xmlns="http://www.w3.org/2000/svg"><g><g><path d="m245.669 105h-60v-50c0-16.569 13.431-30 30-30 16.569 0 30 13.431 30 30z" fill="#fb695b"/><path d="m254.02 115v141l-206.52-20 49.53-121 71.488-20z" fill="#83deff"/><g><path d="m504.5 236-108.453 10-86.477-10c-53.57-30.095-75.07-73.35-75.07-118.67 0-18.19 12.779-33.902 38.79-52.33h175.62c20.29 0 37.37 15.2 39.72 35.35z" fill="#fff8e6"/><path d="m220.66 138.26c2.01-12.18-7.39-23.26-19.74-23.26h-103.89c12.38-30.24 41.82-50 74.5-50h101.76c-4.96 16.57-7.62 34.14-7.62 52.33 0 45.32 16.54 86.78 43.9 118.67l-55.07 10-50-10z" fill="#fff1cf"/></g><g fill="#fd7a6e"><path d="m324.5 188.723c0-13.556 13.431-27.818 30-27.818s30 14.262 30 27.818-13.431 17.182-30 17.182-30-3.626-30-17.182z"/><ellipse cx="354.5" cy="113.405" rx="15" ry="17.5"/><ellipse cx="301.23" cy="138.405" rx="15" ry="17.5" transform="matrix(.707 -.707 .707 .707 -9.639 253.54)"/><ellipse cx="407.5" cy="138.405" rx="17.5" ry="15" transform="matrix(.707 -.707 .707 .707 21.487 328.684)"/></g><path d="m504.5 236v156l-231.98 28.01c-68.388-51.291-62.604-114.527-18.02-184.01z" fill="#fd7a6e"/><path d="m360.89 409.34-88.37 10.67-16.52 1.99-248.5-30v-40.5l20-26-20-29v-16.423c0-9.671 4.663-18.75 12.523-24.384l27.477-19.693h207s-8.831 126.861 106.39 173.34z" fill="#fb695b"/><path d="m50 351.5h-42.5v-55h42.5c15.188 0 27.5 12.312 27.5 27.5 0 15.188-12.312 27.5-27.5 27.5z" fill="#f9ee80"/><path d="m7.5 392v10c0 16.57 13.43 30 30 30h437c16.569 0 30-13.432 30-30v-10z" fill="#b7b7b7"/><g><circle cx="384.5" cy="427" fill="#7888af" r="60"/><circle cx="384.5" cy="427" fill="#fff8e6" r="20"/></g><g><circle cx="127.5" cy="427" fill="#7888af" r="60"/><circle cx="127.5" cy="427" fill="#fff8e6" r="20"/></g><g><ellipse cx="194.55" cy="325.374" fill="#ffa1ac" rx="29.387" ry="23.403"/><ellipse cx="353.84" cy="325.374" fill="#ffa1ac" rx="29.387" ry="23.403"/><path d="m297.889 307.393c0-14.643-10.608-16.019-23.693-16.019-13.086 0-23.694 1.376-23.694 16.019s10.608 26.513 23.694 26.513c13.085 0 23.693-11.87 23.693-26.513z" fill="#666667"/></g></g><g><path d="m392 188.723c0-18.484-17.874-35.318-37.5-35.318s-37.5 16.834-37.5 35.318c0 9.149 4.633 16.408 13.046 20.438 5.96 2.855 13.959 4.244 24.454 4.244s18.493-1.388 24.454-4.244c8.413-4.03 13.046-11.288 13.046-20.438zm-37.5 9.682c-22.5 0-22.5-7.034-22.5-9.682 0-11.255 12.309-20.318 22.5-20.318s22.5 9.063 22.5 20.318c0 2.648 0 9.682-22.5 9.682z"/><path d="m377 113.405c0-13.785-10.093-25-22.5-25s-22.5 11.215-22.5 25 10.093 25 22.5 25 22.5-11.215 22.5-25zm-30 0c0-5.42 3.435-10 7.5-10s7.5 4.58 7.5 10-3.435 10-7.5 10-7.5-4.579-7.5-10z"/><path d="m317.14 122.495c-9.747-9.747-24.814-10.541-33.588-1.768-8.773 8.773-7.98 23.84 1.768 33.587 5.21 5.21 11.94 7.862 18.417 7.862 5.639 0 11.087-2.011 15.17-6.094 8.773-8.771 7.98-23.839-1.767-33.587zm-8.839 22.982c-2.875 2.874-8.541 2.065-12.375-1.768-3.833-3.833-4.642-9.5-1.768-12.375 1.164-1.164 2.785-1.724 4.558-1.724 2.605 0 5.536 1.21 7.816 3.491 3.834 3.834 4.643 9.501 1.769 12.376z"/><path d="m425.178 120.728c-8.773-8.773-23.84-7.979-33.587 1.768-9.748 9.748-10.541 24.815-1.768 33.588 4.084 4.083 9.53 6.094 15.17 6.094 6.476 0 13.208-2.652 18.417-7.862 4.57-4.57 7.347-10.46 7.818-16.585.497-6.464-1.708-12.661-6.05-17.003zm-8.906 15.852c-.194 2.52-1.458 5.118-3.469 7.128-3.833 3.833-9.5 4.643-12.374 1.768s-2.065-8.542 1.768-12.375c2.281-2.281 5.212-3.491 7.817-3.491 1.772 0 3.394.56 4.558 1.724 1.699 1.7 1.795 4.017 1.7 5.246z"/><path d="m504.5 287.43c4.142 0 7.5-3.358 7.5-7.5v-43.93c0-.01 0-.02 0-.03 0-.037-.001-.073-.001-.11-.001-.031-.001-.061-.002-.092s-.002-.062-.004-.093c-.002-.038-.004-.076-.006-.115-.001-.022-.003-.043-.004-.065-.003-.052-.007-.103-.012-.155l-.002-.023c-.009-.096-.019-.192-.031-.287l-15.858-135.549c-2.792-23.933-23.07-41.981-47.17-41.981h-195.74v-2.5c0-10.012-3.902-19.428-10.982-26.508-7.075-7.088-16.492-10.992-26.518-10.992-20.678 0-37.5 16.822-37.5 37.5v2.5h-6.64c-35.88 0-67.847 21.455-81.441 54.658-.005.013-.01.025-.015.038l-48.697 118.965-25.729 18.436c-9.798 7.03-15.648 18.426-15.648 30.483v121.92c0 20.678 16.822 37.5 37.5 37.5h23.661c5.878 31.268 33.39 55 66.339 55s60.461-23.732 66.339-55h124.321c5.878 31.268 33.39 55 66.339 55s60.461-23.732 66.339-55h23.662c20.678 0 37.5-16.822 37.5-37.5v-87.07c0-4.142-3.358-7.5-7.5-7.5s-7.5 3.358-7.5 7.5v69.57h-60.096c-12.386-15.244-31.277-25-52.404-25s-40.018 9.756-52.404 25h-72.976c-4.142 0-7.5 3.358-7.5 7.5s3.358 7.5 7.5 7.5h63.738c-3.442 7.685-5.488 16.127-5.812 25h-122.092c-.325-8.873-2.37-17.315-5.812-25h34.978c4.142 0 7.5-3.358 7.5-7.5s-3.358-7.5-7.5-7.5h-44.216c-12.386-15.244-31.277-25-52.404-25s-40.018 9.756-52.404 25h-60.096v-25.5h35c19.299 0 35-15.701 35-35s-15.701-35-35-35h-35v-8.92c0-7.236 3.511-14.076 9.388-18.293l25.522-18.287h284.88c4.142 0 7.5-3.358 7.5-7.5s-3.358-7.5-7.5-7.5h-121.448l14.718-89.019c1.317-7.983-.93-16.1-6.166-22.271s-12.881-9.71-20.974-9.71h-91.738c13.095-21.576 36.497-35 62.348-35h277.38c16.487 0 30.361 12.347 32.271 28.722l14.89 127.278h-126.281c-4.142 0-7.5 3.358-7.5 7.5s3.358 7.5 7.5 7.5h127.21v36.43c0 4.142 3.358 7.5 7.5 7.5zm-7.5 112.07v2.5c0 12.407-10.093 22.5-22.5 22.5h-22.546c-.325-8.873-2.37-17.315-5.812-25zm-112.5-25c28.949 0 52.5 23.551 52.5 52.5s-23.551 52.5-52.5 52.5-52.5-23.551-52.5-52.5 23.551-52.5 52.5-52.5zm-257 0c28.949 0 52.5 23.551 52.5 52.5s-23.551 52.5-52.5 52.5-52.5-23.551-52.5-52.5 23.551-52.5 52.5-52.5zm-61.642 25c-3.442 7.685-5.488 16.127-5.812 25h-22.546c-12.407 0-22.5-10.093-22.5-22.5v-2.5zm-15.858-95.5c11.028 0 20 8.972 20 20s-8.972 20-20 20h-35v-40zm150.92-181.5c3.68 0 7.156 1.609 9.537 4.416 2.38 2.805 3.402 6.495 2.804 10.121l-15.123 91.463h-139.464l43.39-106zm-7.75-67.5c0-12.407 10.093-22.5 22.5-22.5 6.014 0 11.661 2.34 15.907 6.593 4.252 4.252 6.593 9.901 6.593 15.907v2.5h-45z"/><path d="m384.5 454.5c15.164 0 27.5-12.336 27.5-27.5s-12.336-27.5-27.5-27.5-27.5 12.336-27.5 27.5 12.336 27.5 27.5 27.5zm0-40c6.893 0 12.5 5.607 12.5 12.5s-5.607 12.5-12.5 12.5-12.5-5.607-12.5-12.5 5.607-12.5 12.5-12.5z"/><path d="m127.5 454.5c15.164 0 27.5-12.336 27.5-27.5s-12.336-27.5-27.5-27.5-27.5 12.336-27.5 27.5 12.336 27.5 27.5 27.5zm0-40c6.893 0 12.5 5.607 12.5 12.5s-5.607 12.5-12.5 12.5-12.5-5.607-12.5-12.5 5.607-12.5 12.5-12.5z"/><path d="m274.195 283.874c-8.152 0-14.697.566-20.146 3.33-5.04 2.556-11.047 8.133-11.047 20.189 0 18.755 13.993 34.013 31.193 34.013s31.194-15.258 31.194-34.013c0-12.057-6.008-17.634-11.047-20.19-5.449-2.763-11.995-3.329-20.147-3.329zm0 42.532c-8.929 0-16.193-8.529-16.193-19.013 0-5.907.655-8.519 16.193-8.519 15.539 0 16.194 2.612 16.194 8.519 0 10.483-7.265 19.013-16.194 19.013z"/><path d="m191.963 285.434v12c0 4.142 3.358 7.5 7.5 7.5s7.5-3.358 7.5-7.5v-12c0-4.142-3.358-7.5-7.5-7.5s-7.5 3.358-7.5 7.5z"/><path d="m348.927 277.934c-4.142 0-7.5 3.358-7.5 7.5v12c0 4.142 3.358 7.5 7.5 7.5s7.5-3.358 7.5-7.5v-12c0-4.142-3.358-7.5-7.5-7.5z"/></g></g></svg>