<svg id="Capa_1" enable-background="new 0 0 511.998 511.998" height="512" viewBox="0 0 511.998 511.998" width="512" xmlns="http://www.w3.org/2000/svg"><g><g><g><path d="m404.812 15.419c-15.675-.924-29.898 5.381-39.656 15.89-7.924 8.534-1.865 22.419 9.781 22.419 3.665 0 7.204-1.475 9.684-4.174 4.492-4.888 11.041-7.854 18.278-7.517 11.375.529 20.886 9.449 22.073 20.774 1.307 12.466-7.22 23.2-18.774 25.414v26.899c26.586-2.327 47.21-25.446 45.487-53.008-1.564-25.013-21.855-45.223-46.873-46.697z" fill="#6f6571"/></g><g><path d="m188.461 112.8h286.138v355.675h-286.138z" fill="#fc8d94"/></g><g><path d="m305.648 374.811c-2.824-18.741-23.488-27.012-32.862-29.83-2.902-.872-5.384-2.754-7.079-5.265-4.588-6.795-10.836-12.499-18.374-16.485-.554-.293-1.026-1.194-1.151-2.219l-.066-.513c-2.282-17.2-13.03-31.547-27.933-38.833-4.338-2.121-7.043-6.575-7.043-11.404v-157.462h-22.68v355.675h134.703z" fill="#fc7585"/></g><g><path d="m484.338 124.928h-305.617c-11.134 0-20.16-9.026-20.16-20.16 0-11.134 9.026-20.16 20.16-20.16h305.618c11.134 0 20.16 9.026 20.16 20.16-.001 11.134-9.027 20.16-20.161 20.16z" fill="#867c89"/></g><g><path d="m181.241 104.768c0-11.134 9.026-20.16 20.16-20.16h-22.68c-11.134 0-20.16 9.026-20.16 20.16 0 11.134 9.026 20.16 20.16 20.16h22.68c-11.135 0-20.16-9.026-20.16-20.16z" fill="#6f6571"/></g><g><path d="m484.338 496.668h-305.617c-11.134 0-20.16-9.026-20.16-20.16 0-11.134 9.026-20.16 20.16-20.16h305.618c11.134 0 20.16 9.026 20.16 20.16-.001 11.134-9.027 20.16-20.161 20.16z" fill="#867c89"/></g><g><path d="m158.561 476.508c0 11.134 9.026 20.16 20.16 20.16h141.138c4.09-7.579 5.517-16.363 3.901-25.002l-2.864-15.318h-142.175c-11.134 0-20.16 9.026-20.16 20.16z" fill="#6f6571"/></g><g><path d="m369.601 327.495-17.517-27.862c-9.52-15.143-31.59-15.143-41.11 0l-17.517 27.862c-5.558 8.841.796 20.341 11.239 20.341h53.667c10.442 0 16.796-11.501 11.238-20.341z" fill="#f8f8ff"/></g><g><path d="m302.304 263.44c-8.284 0-15-6.716-15-15 0-8.284 6.716-15 15-15 8.284 0 15 6.716 15 15 0 8.284-6.716 15-15 15z" fill="#f8f8ff"/></g><g><path d="m263.31 304.927c-8.284 0-15-6.716-15-15 0-8.284 6.716-15 15-15 8.284 0 15 6.716 15 15 0 8.284-6.716 15-15 15z" fill="#f8f8ff"/></g><g><path d="m360.754 263.44c8.284 0 15-6.716 15-15 0-8.284-6.716-15-15-15-8.284 0-15 6.716-15 15 0 8.284 6.716 15 15 15z" fill="#f8f8ff"/></g><g><path d="m399.749 304.927c8.284 0 15-6.716 15-15 0-8.284-6.716-15-15-15-8.284 0-15 6.716-15 15 0 8.284 6.715 15 15 15z" fill="#f8f8ff"/></g><g><path d="m225.992 323.463c-.014-.111-.028-.222-.042-.332-1.838-13.851-13.065-24.853-26.948-26.43-.351-.04-.701-.074-1.05-.102-6.262-.502-11.578-4.565-14.213-10.268-4.878-10.557-15.559-17.883-27.953-17.883s-23.075 7.326-27.953 17.883c-2.635 5.702-7.95 9.766-14.212 10.268-.35.028-.701.062-1.053.102-13.883 1.578-25.11 12.58-26.946 26.432-.015.11-.029.22-.042.329-.898 7.358-5.099 13.986-11.653 17.451-9.723 5.141-16.361 15.336-16.411 27.088-.072 17.005 14.361 30.915 31.366 30.915h133.807c17.005 0 31.438-13.91 31.366-30.915-.05-11.753-6.687-21.948-16.411-27.088-6.552-3.465-10.754-10.092-11.652-17.45z" fill="#ffd064"/></g><g><path d="m79.475 368.001c.05-11.753 6.687-21.948 16.411-27.088 6.553-3.465 10.754-10.093 11.653-17.451.013-.11.027-.219.042-.329 1.837-13.851 13.063-24.854 26.947-26.432.352-.04.703-.074 1.053-.102 6.261-.502 11.577-4.566 14.212-10.268 3.356-7.262 9.457-12.995 16.973-15.866-3.41-1.303-7.112-2.017-10.98-2.017-12.394 0-23.075 7.326-27.953 17.883-2.635 5.702-7.95 9.766-14.212 10.268-.35.028-.701.062-1.053.102-13.883 1.578-25.11 12.58-26.946 26.432-.015.11-.029.22-.042.329-.898 7.358-5.099 13.986-11.653 17.451-9.723 5.141-16.361 15.336-16.411 27.088-.072 17.005 14.361 30.915 31.366 30.915h21.96c-17.005 0-31.439-13.911-31.367-30.915z" fill="#ffc269"/></g><g><path d="m25.922 378.487-18.112 96.854c-2.073 11.084 6.432 21.326 17.708 21.326h260.534c11.276 0 19.781-10.242 17.708-21.326l-18.111-96.854c-1.594-8.525-9.036-14.704-17.708-14.704h-224.311c-8.673 0-16.114 6.179-17.708 14.704z" fill="#b3e59f"/></g><g><path d="m29.77 475.341 18.111-96.854c1.594-8.525 9.036-14.704 17.708-14.704h-21.959c-8.672 0-16.114 6.179-17.708 14.704l-18.112 96.854c-2.073 11.084 6.432 21.326 17.708 21.326h21.96c-11.276.001-19.78-10.241-17.708-21.326z" fill="#95d6a4"/></g><g><path d="m218.347 425.607c1.77-3.059 2.682-6.674 2.399-10.526-.657-8.948-7.919-16.243-16.864-16.931-8.454-.649-15.812 4.431-18.608 11.764-1.096 2.874-3.759 4.845-6.835 4.845h-45.308c-3.076 0-5.739-1.971-6.835-4.845-2.797-7.334-10.154-12.414-18.608-11.764-8.945.687-16.207 7.983-16.864 16.931-.283 3.852.629 7.467 2.399 10.526 1.646 2.845 1.646 6.392 0 9.237-1.77 3.059-2.682 6.674-2.399 10.526.657 8.948 7.919 16.243 16.864 16.93 8.454.649 15.811-4.431 18.608-11.764 1.096-2.874 3.759-4.845 6.835-4.845h45.308c3.076 0 5.739 1.971 6.835 4.845 2.797 7.334 10.154 12.414 18.608 11.764 8.945-.687 16.207-7.983 16.864-16.93.283-3.852-.629-7.467-2.399-10.526-1.645-2.845-1.645-6.392 0-9.237z" fill="#f8f8ff"/></g></g><g><path d="m484.338 448.848h-2.24v-316.42h2.24c15.252 0 27.66-12.408 27.66-27.66 0-15.251-12.408-27.66-27.66-27.66h-26.277c1.046-5.017 1.438-10.205 1.109-15.46-1.808-28.919-24.987-52.012-53.917-53.716-17.252-1.016-33.868 5.644-45.594 18.273-5.727 6.167-7.193 14.792-3.829 22.509 3.366 7.719 10.687 12.514 19.105 12.514 5.81 0 11.353-2.405 15.207-6.599 3.179-3.46 7.696-5.319 12.406-5.101 7.728.36 14.161 6.406 14.963 14.064.555 5.299-1.492 10.232-5.158 13.515h-156.355c-4.142 0-7.5 3.358-7.5 7.5s3.358 7.5 7.5 7.5h228.34c6.981 0 12.66 5.679 12.66 12.66s-5.679 12.66-12.66 12.66h-305.618c-6.98 0-12.66-5.679-12.66-12.66 0-6.98 5.679-12.66 12.66-12.66h43.877c4.142 0 7.5-3.358 7.5-7.5s-3.358-7.5-7.5-7.5h-43.877c-15.251 0-27.66 12.408-27.66 27.66s12.408 27.66 27.66 27.66h2.24v116.013c0 4.142 3.358 7.5 7.5 7.5s7.5-3.358 7.5-7.5v-116.012h271.137v316.42h-160.661l-13.415-71.739c-2.256-12.066-12.804-20.825-25.08-20.825h-8.275c-3.026-9.318-9.562-17.268-18.516-22.001-4.205-2.223-7.088-6.607-7.713-11.729 0-.004-.001-.009-.002-.014l-.05-.396c-2.307-17.388-16.098-30.916-33.534-32.896-.436-.05-.871-.092-1.301-.126-3.369-.27-6.436-2.545-8.003-5.938-6.242-13.508-19.887-22.237-34.762-22.237s-28.52 8.729-34.761 22.237c-1.568 3.393-4.634 5.668-7.998 5.938-.431.034-.863.076-1.306.126-17.439 1.982-31.229 15.511-33.533 32.893l-.053.411c-.625 5.122-3.509 9.507-7.713 11.73-8.954 4.734-15.49 12.683-18.516 22.001h-8.275c-12.276 0-22.824 8.758-25.08 20.825l-18.112 96.855c-1.399 7.483.587 15.133 5.451 20.99 4.863 5.856 12.018 9.215 19.629 9.215h260.534c7.612 0 14.767-3.359 19.629-9.215 4.863-5.856 6.85-13.507 5.451-20.99l-1.892-10.115h175.097c6.981 0 12.66 5.679 12.66 12.66 0 6.98-5.679 12.66-12.66 12.66h-148.46c-4.142 0-7.5 3.358-7.5 7.5s3.358 7.5 7.5 7.5h148.46c15.252 0 27.66-12.408 27.66-27.66.001-15.252-12.407-27.66-27.659-27.66zm-51.907-386.819c-1.568-14.968-14.115-26.783-29.185-27.484-9.158-.432-17.956 3.195-24.148 9.935-1.021 1.111-2.538 1.749-4.162 1.749-3.549 0-4.997-2.686-5.355-3.509-.46-1.054-1.276-3.779 1.071-6.307 8.668-9.335 20.96-14.255 33.719-13.506 21.37 1.259 38.493 18.317 39.828 39.678.316 5.056-.252 9.943-1.555 14.524h-12.364c1.893-4.611 2.709-9.749 2.151-15.08zm-355 285.514c8.543-4.517 14.372-13.179 15.594-23.188l.03-.237c1.376-10.385 9.938-18.782 20.349-19.965.271-.03.541-.057.815-.079 8.76-.702 16.585-6.296 20.421-14.598 3.797-8.219 12.097-13.529 21.145-13.529s17.348 5.31 21.145 13.529c3.836 8.302 11.662 13.896 20.425 14.598.265.021.53.047.8.078 10.419 1.183 18.982 9.58 20.359 19.96l.035.27c1.222 9.988 7.05 18.645 15.59 23.161 3.886 2.055 7.023 5.105 9.173 8.741h-175.054c2.15-3.636 5.287-6.686 9.173-8.741zm216.711 137.827c-2.004 2.413-4.953 3.797-8.089 3.797h-260.535c-3.137 0-6.085-1.384-8.089-3.797-2.004-2.414-2.823-5.566-2.247-8.65l18.111-96.854c.93-4.973 5.277-8.583 10.336-8.583h224.312c5.059 0 9.406 3.609 10.336 8.582l18.111 96.854c.577 3.085-.242 6.238-2.246 8.651z"/><path d="m304.625 295.641-17.516 27.862c-4.085 6.498-4.308 14.387-.597 21.104s10.509 10.728 18.184 10.728h53.667c7.675 0 14.473-4.011 18.185-10.729 3.711-6.717 3.488-14.606-.596-21.104l-17.517-27.863c-5.852-9.308-15.91-14.865-26.905-14.865s-21.053 5.559-26.905 14.867zm41.11 7.983 17.517 27.862c1.636 2.603.661 4.969.166 5.866-.496.897-1.979 2.982-5.055 2.982h-53.667c-3.075 0-4.56-2.085-5.055-2.982-.496-.897-1.471-3.263.166-5.867l17.517-27.862c3.136-4.988 8.313-7.849 14.205-7.849 5.892.002 11.07 2.863 14.206 7.85z"/><path d="m302.304 225.94c-12.407 0-22.5 10.093-22.5 22.5s10.093 22.5 22.5 22.5 22.5-10.093 22.5-22.5-10.093-22.5-22.5-22.5zm0 30c-4.136 0-7.5-3.364-7.5-7.5s3.364-7.5 7.5-7.5 7.5 3.364 7.5 7.5-3.364 7.5-7.5 7.5z"/><path d="m263.31 267.427c-12.407 0-22.5 10.093-22.5 22.5s10.094 22.5 22.501 22.5c12.406 0 22.5-10.093 22.5-22.5s-10.095-22.5-22.501-22.5zm0 30c-4.136 0-7.501-3.364-7.501-7.5s3.365-7.5 7.501-7.5c4.135 0 7.5 3.364 7.5 7.5s-3.365 7.5-7.5 7.5z"/><path d="m360.755 225.94c-12.407 0-22.5 10.093-22.5 22.5s10.093 22.5 22.5 22.5 22.5-10.093 22.5-22.5-10.094-22.5-22.5-22.5zm0 30c-4.136 0-7.5-3.364-7.5-7.5s3.364-7.5 7.5-7.5 7.5 3.364 7.5 7.5-3.365 7.5-7.5 7.5z"/><path d="m399.749 312.427c12.407 0 22.5-10.093 22.5-22.5s-10.093-22.5-22.5-22.5-22.5 10.093-22.5 22.5 10.093 22.5 22.5 22.5zm0-30c4.136 0 7.5 3.364 7.5 7.5s-3.364 7.5-7.5 7.5-7.5-3.364-7.5-7.5 3.364-7.5 7.5-7.5z"/><path d="m224.84 429.362c2.598-4.492 3.769-9.62 3.387-14.83-.927-12.632-11.146-22.89-23.77-23.86-11.51-.887-22.027 5.744-26.213 16.588h-44.936c0-.005-.001-.011-.004-.018-4.119-10.798-14.644-17.455-26.191-16.57-12.624.97-22.842 11.228-23.769 23.86-.382 5.21.789 10.338 3.387 14.831.303.524.303 1.202 0 1.726-2.598 4.491-3.769 9.62-3.387 14.83.927 12.633 11.146 22.89 23.77 23.86.688.053 1.37.079 2.05.079 10.702 0 20.227-6.471 24.163-16.667h44.936c0 .005.001.011.004.018 4.118 10.797 14.64 17.455 26.19 16.57 12.624-.97 22.842-11.227 23.77-23.86.382-5.21-.789-10.339-3.387-14.831-.304-.524-.304-1.201 0-1.726zm-12.984-7.511c-2.989 5.166-2.989 11.583 0 16.749 1.084 1.875 1.572 4.026 1.411 6.222-.382 5.208-4.756 9.602-9.958 10.001-4.872.374-9.297-2.424-11.027-6.959-2.241-5.875-7.675-9.672-13.842-9.672h-45.309c-6.167 0-11.601 3.797-13.842 9.673-1.73 4.536-6.153 7.333-11.026 6.959-5.202-.399-9.576-4.793-9.958-10.001-.161-2.196.327-4.347 1.411-6.221 2.989-5.166 2.989-11.583 0-16.749-1.084-1.875-1.572-4.026-1.411-6.222.382-5.208 4.756-9.602 9.958-10.001.291-.022.58-.033.867-.033 4.518 0 8.533 2.727 10.16 6.993 2.241 5.875 7.675 9.672 13.842 9.672h45.309c6.167 0 11.601-3.797 13.842-9.673 1.73-4.536 6.16-7.337 11.026-6.959 5.202.4 9.576 4.793 9.958 10.001.16 2.195-.327 4.346-1.411 6.22z"/></g></g></svg>