<svg id="_x33_0" enable-background="new 0 0 64 64" height="512" viewBox="0 0 64 64" width="512" xmlns="http://www.w3.org/2000/svg"><g><g><g><path d="m31.68 15.28-.43 1.73-.01.01c-.54-.63-1.34-1.02-2.24-1.02h-1v-2c0-1.1-.9-2-2-2h-4-1c-1.63 0-3.09-.79-4-2h-1c-2.21 0-4 1.79-4 4v2h-1c-.85 0-1.62.35-2.15.92l-.01-.01-.8-5.6c-.03-.21-.04-.41-.04-.62 0-.83.23-1.61.65-2.29s1.02-1.24 1.76-1.6l1.59-.8c0-1.1.45-2.1 1.17-2.83.73-.72 1.73-1.17 2.83-1.17h5.32c5.9 0 10.68 4.78 10.68 10.68 0 .88-.11 1.75-.32 2.6z" fill="#b27946"/></g><g><path d="m54 32v2c0 1.1-.9 2-2 2h-6c-1.1 0-2-.9-2-2v-2z" fill="#969faa"/></g><g><path d="m44 22h10v10h-10z" fill="#69d6f4"/></g><g><path d="m54 20v2h-10v-2c0-1.1.9-2 2-2h6c1.1 0 2 .9 2 2z" fill="#969faa"/></g><g><path d="m8 56h24v6h-24z" fill="#b4dd7f"/></g><g><path d="m32 47v5h-24v-2h-6v-1.68c0-4.18 1.46-8.07 3.94-11.14 1.66-2.05 3.79-3.74 6.24-4.88l2.82 4.7 5-3 5 3 2.65-4.41c1.33.65 2.61 1.38 3.85 2.18 2.36 1.51 4.55 3.28 6.54 5.27l.46.46z" fill="#b4dd7f"/></g><g><path d="m27.65 32.59-2.65 4.41-5-3 4-3c1.25.47 2.47 1 3.65 1.59z" fill="#a0d468"/></g><g><path d="m20 34-5 3-2.82-4.7c1.2-.57 2.48-1.01 3.82-1.3z" fill="#a0d468"/></g><g><path d="m8 52h24v4h-24z" fill="#fcd770"/></g><g><path d="m8 52v4 6h-6v-12h6z" fill="#f0d0b4"/></g><g><path d="m38.93 40.93 1.07-6.93-1.66-3.32c-.22-.45-.34-.94-.34-1.44 0-.9.36-1.7.95-2.29s1.39-.95 2.29-.95h2.76c1.1 0 2 .9 2 2 0 .55-.22 1.05-.59 1.41-.36.37-.86.59-1.41.59v2 2c0 1.1.9 2 2 2v9.64c0 3.51-2.85 6.36-6.36 6.36-1.69 0-3.31-.67-4.5-1.86l-3.14-3.14 6.5-6.5z" fill="#f0d0b4"/></g><g><path d="m23.22 27.88.78 3.12-4 3-4-3 .78-3.12c.39.08.8.12 1.22.12h4c.42 0 .83-.04 1.22-.12z" fill="#f0d0b4"/></g><g><path d="m29 16c.9 0 1.7.39 2.24 1.02.47.53.76 1.22.76 1.98 0 .83-.34 1.58-.88 2.12s-1.29.88-2.12.88h-1v-6z" fill="#f0d0b4"/></g><g><path d="m28 16v6c0 2.89-2.05 5.31-4.78 5.88-.39.08-.8.12-1.22.12h-4c-.42 0-.83-.04-1.22-.12-2.73-.57-4.78-2.99-4.78-5.88v-6-2c0-2.21 1.79-4 4-4h1c.91 1.21 2.37 2 4 2h1 4c1.1 0 2 .9 2 2z" fill="#f0d0b4"/></g><g><path d="m12 16v6h-1c-.83 0-1.58-.34-2.12-.88s-.88-1.29-.88-2.12c0-.81.32-1.54.85-2.08.53-.57 1.3-.92 2.15-.92z" fill="#f0d0b4"/></g><g><path d="m16 20h8c0 2.21-1.79 4-4 4-1.1 0-2.1-.45-2.83-1.17-.72-.73-1.17-1.73-1.17-2.83z" fill="#ff826e"/></g></g><g><circle cx="16" cy="16" r="1"/><circle cx="24" cy="16" r="1"/><path d="m25 20v-1h-10v1c0 2.757 2.243 5 5 5s5-2.243 5-5zm-7.829 1h5.658c-.413 1.164-1.525 2-2.829 2s-2.416-.836-2.829-2z"/><path d="m52 17h-6c-1.654 0-3 1.346-3 3v5h-1.764c-2.336 0-4.236 1.9-4.236 4.236 0 .654.154 1.31.447 1.895l1.516 3.031-.721 4.69c-3.875-3.746-8.372-6.643-13.398-8.601l-.424-1.691c2.367-.876 4.13-2.993 4.5-5.56h.08c2.206 0 4-1.794 4-4 0-.815-.248-1.573-.668-2.206l.319-1.276c.232-.927.35-1.88.35-2.834-.001-6.443-5.242-11.684-11.686-11.684h-5.315c-2.541 0-4.645 1.905-4.959 4.361l-1.082.541c-1.825.913-2.959 2.747-2.959 4.788 0 .254.018.507.054.758l.74 5.183c-.493.665-.794 1.48-.794 2.369 0 2.206 1.794 4 4 4h.08c.37 2.567 2.133 4.683 4.5 5.56l-.402 1.604c-8.252 2.065-14.178 9.6-14.178 18.153v14.683h32v-13.586l1.429 1.429c1.39 1.391 3.24 2.157 5.207 2.157 4.06 0 7.364-3.304 7.364-7.364v-8.636h5c1.654 0 3-1.346 3-3v-14c0-1.654-1.346-3-3-3zm-6 2h6c.552 0 1 .448 1 1v1h-8v-1c0-.552.448-1 1-1zm-1 11.816c1.161-.414 2-1.514 2-2.816s-.839-2.402-2-2.816v-2.184h8v8h-8zm-18.779 2.205-1.564 2.607-2.868-1.721 2.358-1.769c.703.275 1.394.57 2.074.883zm2.779-12.021v-4c1.103 0 2 .897 2 2s-.897 2-2 2zm-20-2c0-1.103.897-2 2-2v4c-1.103 0-2-.897-2-2zm2-5v1c-.487 0-.949.1-1.381.26l-.585-4.095c-.022-.157-.034-.316-.034-.475 0-1.278.71-2.428 1.854-2.999l2.146-1.073v-.618c0-1.654 1.346-3 3-3h5.315c5.34 0 9.685 4.345 9.685 9.685 0 .79-.098 1.581-.289 2.35l-.08.321c-.5-.225-1.049-.356-1.631-.356v-1c0-1.654-1.346-3-3-3h-1.184c.112-.314.184-.648.184-1 0-1.654-1.346-3-3-3v2c.552 0 1 .448 1 1s-.448 1-1 1h-1c-2.206 0-4-1.794-4-4h-2c0 .716.126 1.403.357 2.041-2.454.316-4.357 2.42-4.357 4.959zm2 8v-8c0-1.654 1.346-3 3-3h.531c1.1 1.227 2.695 2 4.469 2h5c.552 0 1 .448 1 1v8c0 2.757-2.243 5-5 5h-4c-2.757 0-5-2.243-5-5zm5 7h4c.156 0 .31-.013.464-.023l.405 1.622-2.869 2.151-2.869-2.152.405-1.622c.154.011.308.024.464.024zm-2.215 3.088 2.425 1.819-2.868 1.721-1.718-2.863c.697-.274 1.42-.497 2.161-.677zm-3.98 1.531 2.853 4.753 4.342-2.606v7.234h2v-7.234l4.343 2.606 2.68-4.467c3.318 1.739 6.352 3.945 9.056 6.601l-4.079 4.08v-3.586h-2v10h-22v-10h-2v8h-4v-.683c0-6.223 3.518-11.832 8.805-14.698zm-2.805 19.381h22v2h-22zm-6-2h4v10h-4zm6 10v-4h22v4zm30.636-10c-1.412 0-2.794-.572-3.793-1.571l-2.429-2.429 4.224-4.224-.626 4.072 1.977.305 2.049-13.314-1.801-3.602c-.154-.309-.236-.655-.236-1-.001-1.234 1.002-2.237 2.235-2.237h2.764c.552 0 1 .448 1 1s-.448 1-1 1h-3v2h2v3c0 1.302.839 2.402 2 2.816v8.82c0 2.958-2.406 5.364-5.364 5.364zm12.364-16h-6c-.552 0-1-.448-1-1v-1h8v1c0 .552-.448 1-1 1z"/><path d="m61 13h2v12h-2z"/><path d="m57 17h2v4h-2z"/><path d="m35 13h2v12h-2z"/><path d="m39 17h2v4h-2z"/></g></g></svg>