<svg height="480pt" viewBox="0 -76 480 480" width="480pt" xmlns="http://www.w3.org/2000/svg"><path d="m456 256.015625h-432l26.648438-126.589844c3.117187-14.8125 16.183593-25.410156 31.320312-25.410156h316.0625c15.136719 0 28.203125 10.597656 31.320312 25.410156zm0 0" fill="#c8d952"/><path d="m376 64.015625c-8.75-.671875-17.402344 2.210937-24 8-1.523438-12.566406-11.429688-22.472656-24-24h-8c-3.570312-23.558594-24.183594-40.734375-48-40-23.675781-.328125-44.054688 16.652344-48 40-6.824219-5.375-15.3125-8.207031-24-8-8.699219-.277344-17.207031 2.5625-24 8-4.265625-15.640625-19.382812-25.765625-35.46875-23.753906-16.089844 2.011719-28.25 15.546875-28.53125 31.753906.035156 2.746094.429688 5.476563 1.167969 8.121094-.398438 0-.800781-.121094-1.167969-.121094-9.933594-.117187-19.34375 4.4375-25.414062 12.300781-6.066407 7.863282-8.089844 18.121094-5.457032 27.699219h317.742188c.714844-2.605469 1.09375-5.292969 1.128906-8 0-17.671875-6.328125-32-24-32zm0 0" fill="#ffd782"/><path d="m8 256.015625h464v64h-464zm0 0" fill="#55b56a"/><g fill="#c8d952"><path d="m104 296.015625h-96c-4.417969 0-8-3.582031-8-8s3.582031-8 8-8h96c4.417969 0 8 3.582031 8 8s-3.582031 8-8 8zm0 0"/><path d="m152 296.015625h-16c-4.417969 0-8-3.582031-8-8s3.582031-8 8-8h16c4.417969 0 8 3.582031 8 8s-3.582031 8-8 8zm0 0"/><path d="m472 296.015625h-288c-4.417969 0-8-3.582031-8-8s3.582031-8 8-8h288c4.417969 0 8 3.582031 8 8s-3.582031 8-8 8zm0 0"/></g><path d="m152 80.015625h-8c-4.417969 0-8-3.582031-8-8s3.582031-8 8-8h8c4.417969 0 8 3.582031 8 8s-3.582031 8-8 8zm0 0" fill="#e97424"/><path d="m280 56.015625h-8c-4.417969 0-8-3.582031-8-8s3.582031-8 8-8h8c4.417969 0 8 3.582031 8 8s-3.582031 8-8 8zm0 0" fill="#e97424"/><path d="m256 80.015625h-8c-4.417969 0-8-3.582031-8-8s3.582031-8 8-8h8c4.417969 0 8 3.582031 8 8s-3.582031 8-8 8zm0 0" fill="#e97424"/><path d="m440 176.015625h-65.136719c-3.589843-14.113281-16.300781-23.992187-30.863281-23.992187s-27.273438 9.878906-30.863281 23.992187h-33.9375c-3.785157-18.640625-20.175781-32.039063-39.199219-32.039063s-35.414062 13.398438-39.199219 32.039063h-33.9375c-3.589843-14.113281-16.300781-23.992187-30.863281-23.992187s-27.273438 9.878906-30.863281 23.992187h-65.136719c-4.417969 0-8 3.582031-8 8s3.582031 8 8 8h65.136719c3.589843 14.113281 16.300781 23.992187 30.863281 23.992187s27.273438-9.878906 30.863281-23.992187h33.9375c3.785157 18.644531 20.175781 32.042969 39.199219 32.042969s35.414062-13.398438 39.199219-32.042969h33.945312c3.589844 14.113281 16.300781 23.992187 30.863281 23.992187s27.273438-9.878906 30.863282-23.992187h65.128906c4.417969 0 8-3.582031 8-8s-3.582031-8-8-8zm0 0" fill="#55b56a"/><path d="m472 248.015625h-9.511719l-25.3125-120.238281c-3.21875-14.847656-14.550781-26.601563-29.273437-30.359375 0-.464844.097656-.945313.097656-1.402344 0-25.046875-11.960938-40-32-40-6.738281-.3125-13.453125.953125-19.617188 3.699219-4.984374-11.398438-15.964843-19.015625-28.382812-19.699219h-1.464844c-6.960937-24.1875-29.375-40.625-54.535156-40-23.40625-.320313-44.546875 13.941406-53.015625 35.761719-6.003906-2.546875-12.464844-3.824219-18.984375-3.761719-6.9375-.109375-13.8125 1.324219-20.128906 4.203125-7.523438-12.625-21.175782-20.316406-35.871094-20.203125-22.082031.027344-39.972656 17.921875-40 40v.800781c-18.613281 3.828125-31.976562 20.199219-32 39.199219 0 .457031.078125.9375.097656 1.402344-14.722656 3.757812-26.054687 15.511719-29.273437 30.359375l-25.3125 120.238281h-9.511719c-4.417969 0-8 3.582031-8 8v64c0 4.417969 3.582031 8 8 8h464c4.417969 0 8-3.582031 8-8v-64c0-4.417969-3.582031-8-8-8zm-360.496094-176c.273438 0 1.070313.121094 1.34375.128906 2.539063.117188 4.980469-.992187 6.558594-2.984375 1.59375-1.980468 2.148438-4.597656 1.496094-7.054687-.566406-1.980469-.867188-4.027344-.902344-6.089844 0-13.253906 10.746094-24 24-24 11.199219-.355469 21.191406 6.984375 24.199219 17.777344.613281 2.6875 2.5625 4.871093 5.164062 5.777343 2.601563.910157 5.484375.417969 7.636719-1.304687 5.367188-4.3125 12.121094-6.535156 19-6.25 6.894531-.21875 13.640625 2.011719 19.046875 6.289063 2.238281 1.761718 5.242187 2.199218 7.886719 1.152343 2.648437-1.042969 4.542968-3.417969 4.96875-6.230469 3.453125-19.382812 20.414062-33.429687 40.097656-33.210937 19.800781-.722656 37.015625 13.480469 40.070312 33.058594.53125 3.972656 3.921876 6.941406 7.929688 6.941406h8c7.679688 0 14.953125 9.210937 16.078125 17.128906.382813 2.644531 2.058594 4.921875 4.46875 6.074219s5.234375 1.023438 7.53125-.335938c1.128906-.683593 2.195313-1.441406 3.296875-2.257812 4.726562-3.652344 10.695312-5.304688 16.625-4.609375 3.960938 0 16 0 16 24h-304c-.027344-13.074219 10.433594-23.753906 23.503906-24zm-53.023437 59.058594c2.375-11.085938 12.152343-19.019531 23.488281-19.058594h316.0625c11.335938.039063 21.113281 7.972656 23.488281 19.058594l9.464844 44.941406h-56.121094c-3.589843-14.113281-16.300781-23.992187-30.863281-23.992187s-27.273438 9.878906-30.863281 23.992187h-33.9375c-3.785157-18.640625-20.175781-32.039063-39.199219-32.039063s-35.414062 13.398438-39.199219 32.039063h-33.9375c-3.589843-14.113281-16.300781-23.992187-30.863281-23.992187s-27.273438 9.878906-30.863281 23.992187h-56.121094zm301.519531 52.941406c0 8.839844-7.164062 16-16 16s-16-7.160156-16-16c0-8.835937 7.164062-16 16-16s16 7.164063 16 16zm-96 0c0 13.257813-10.746094 24-24 24s-24-10.742187-24-24c0-13.253906 10.746094-24 24-24s24 10.746094 24 24zm-112 0c0 8.839844-7.164062 16-16 16s-16-7.160156-16-16c0-8.835937 7.164062-16 16-16s16 7.164063 16 16zm-106.351562 8h59.488281c3.589843 14.113281 16.300781 23.992187 30.863281 23.992187s27.273438-9.878906 30.863281-23.992187h33.9375c3.785157 18.644531 20.175781 32.042969 39.199219 32.042969s35.414062-13.398438 39.199219-32.042969h33.945312c3.589844 14.113281 16.300781 23.992187 30.863281 23.992187s27.273438-9.878906 30.863282-23.992187h59.488281l11.792969 56h-412.296875zm418.351562 88h-280c-4.417969 0-8 3.582031-8 8s3.582031 8 8 8h280v16h-448v-16h88c4.417969 0 8-3.582031 8-8s-3.582031-8-8-8h-88v-16h448zm0 0"/><path d="m152 280.015625h-16c-4.417969 0-8 3.582031-8 8s3.582031 8 8 8h16c4.417969 0 8-3.582031 8-8s-3.582031-8-8-8zm0 0"/><path d="m152 64.015625h-8c-4.417969 0-8 3.582031-8 8s3.582031 8 8 8h8c4.417969 0 8-3.582031 8-8s-3.582031-8-8-8zm0 0"/><path d="m280 40.015625h-8c-4.417969 0-8 3.582031-8 8s3.582031 8 8 8h8c4.417969 0 8-3.582031 8-8s-3.582031-8-8-8zm0 0"/><path d="m256 64.015625h-8c-4.417969 0-8 3.582031-8 8s3.582031 8 8 8h8c4.417969 0 8-3.582031 8-8s-3.582031-8-8-8zm0 0"/></svg>