<svg viewBox="0 -24 511.99837 511" xmlns="http://www.w3.org/2000/svg"><path d="m386.441406 383.398438c-19.996094 0-40.417968-9.359376-64.296875-28.578126-7.554687-6.082031-8.753906-17.140624-2.667969-24.695312 6.078126-7.558594 17.136719-8.753906 24.695313-2.671875 33.988281 27.355469 48.492187 22.722656 63.921875 13.820313 8.40625-4.847657 19.144531-1.96875 23.992188 6.4375 4.851562 8.402343 1.96875 19.140624-6.433594 23.988281-13.4375 7.753906-26.238282 11.699219-39.210938 11.699219zm0 0" fill="#495059"/><g fill="#ddaf89"><path d="m230.453125 455.859375c-6.695313 0-13.304687-3.050781-17.617187-8.828125-10.382813-13.917969-21.46875-32.847656-14.964844-55.910156 4.855468-17.214844 18.433594-32.015625 37.324218-48.941406 9.03125-8.09375 22.914063-7.332032 31.003907 1.699218 8.09375 9.03125 7.332031 22.910156-1.699219 31.003906-5.4375 4.871094-21.976562 19.6875-24.363281 28.15625-.402344 1.417969-1.464844 5.191407 7.894531 17.734376 7.25 9.71875 5.25 23.476562-4.46875 30.730468-3.941406 2.9375-8.546875 4.355469-13.109375 4.355469zm0 0"/><path d="m367.152344 447.949219c-6.617188 0-13.160156-2.976563-17.480469-8.648438-14.179687-18.601562-24.96875-38.410156-33.640625-54.328125-4.246094-7.796875-7.914062-14.53125-11.253906-19.855468-6.445313-10.273438-3.339844-23.824219 6.929687-30.269532 10.273438-6.445312 23.824219-3.339844 30.269531 6.933594 4.058594 6.46875 8.214844 14.101562 12.617188 22.1875 8.371094 15.363281 17.855469 32.777344 30.003906 48.714844 7.351563 9.644531 5.492188 23.417968-4.152344 30.769531-3.976562 3.03125-8.65625 4.496094-13.292968 4.496094zm0 0"/><path d="m129.914062 387.71875c-1.597656 0-3.214843-.171875-4.839843-.539062-11.828125-2.660157-19.261719-14.410157-16.601563-26.238282 7.160156-31.820312 21.976563-69.503906 73.433594-78.578125 11.953125-2.101562 23.332031 5.871094 25.4375 17.8125 2.105469 11.941407-5.871094 23.328125-17.8125 25.4375-21.875 3.855469-31.519531 15.203125-38.214844 44.96875-2.296875 10.203125-11.359375 17.136719-21.402344 17.136719zm0 0"/><path d="m352.683594 292.078125c-11.21875-2.472656-18.730469-13.277344-16.949219-24.792969 1.851563-11.984375 13.070313-20.195312 25.054687-18.34375 23.609376 3.652344 37.886719-8.871094 62.933594-40.238281 7.566406-9.476563 21.382813-11.023437 30.855469-3.457031 9.476563 7.566406 11.023437 21.378906 3.457031 30.855468-21.6875 27.164063-51.390625 64.367188-103.960937 56.238282-.46875-.074219-.933594-.160156-1.390625-.261719zm0 0"/></g><path d="m392.320312 266.523438c-1.304687-7.390626-3.410156-14.484376-6.21875-21.226563-7.800781 3.957031-15.800781 5.117187-25.316406 3.644531-11.984375-1.851562-23.199218 6.359375-25.050781 18.34375-1.78125 11.515625 5.730469 22.320313 16.949219 24.792969.457031.101563.921875.1875 1.390625.261719 14.941406 2.308594 28.03125.957031 39.617187-2.785156.417969-7.582032-.007812-15.289063-1.371094-23.03125zm0 0" fill="#d1a582"/><path d="m354.59375 363.964844c-4.402344-8.082032-8.5625-15.714844-12.621094-22.1875-6.445312-10.269532-19.996094-13.375-30.265625-6.929688-10.273437 6.445313-13.375 19.996094-6.929687 30.269532 3.339844 5.324218 7.007812 12.058593 11.253906 19.855468.652344 1.191406 1.316406 2.414063 1.992188 3.648438 14.136718-5.464844 26.832031-13.242188 37.621093-22.722656-.351562-.644532-.703125-1.292969-1.050781-1.933594zm0 0" fill="#d1a582"/><path d="m266.199219 343.878906c-8.089844-9.03125-21.972657-9.792968-31-1.699218-13.910157 12.460937-24.921875 23.773437-31.710938 35.742187 12.269531 7.976563 26.292969 13.785156 41.402344 16.902344 5.996094-7.746094 15.691406-16.429688 19.609375-19.941407 9.03125-8.09375 9.792969-21.972656 1.699219-31.003906zm0 0" fill="#d1a582"/><path d="m207.34375 300.175781c-2.105469-11.941406-13.484375-19.917969-25.4375-17.8125-10.511719 1.851563-19.46875 4.917969-27.171875 8.863281.035156 5.597657.535156 11.25 1.535156 16.917969 1.800781 10.21875 5.128907 19.882813 9.742188 28.8125 5.820312-6.136719 13.34375-9.554687 23.523437-11.347656 11.9375-2.105469 19.910156-13.492187 17.808594-25.433594zm0 0" fill="#d1a582"/><path d="m379.875 268.730469c-9.28125-52.644531-64-87.003907-122.214844-76.742188s-97.882812 61.257813-88.601562 113.90625c9.28125 52.648438 63.996094 87.007813 122.210937 76.746094 58.214844-10.265625 97.882813-61.261719 88.605469-113.910156zm0 0" fill="#ddaf89"/><path d="m358.894531 209.3125c-22.054687 25.988281-52.960937 44.730469-89.152343 51.109375-36.191407 6.382813-71.640626-.65625-101.253907-17.539063-4.238281 8.082032-7.453125 16.632813-9.46875 25.492188-2.75 12.066406 3.90625 24.316406 15.503907 28.632812 31.929687 11.882813 67.34375 15.683594 103.320312 9.339844 35.972656-6.34375 67.949219-22.027344 93.890625-44.113281 9.421875-8.023437 11.488281-21.8125 4.777344-32.210937-4.925781-7.632813-10.871094-14.566407-17.617188-20.710938zm0 0" fill="#7f9ae6"/><path d="m220.34375 260.988281c-18.4375-2.839843-35.984375-9.058593-51.855469-18.105469-4.238281 8.085938-7.453125 16.636719-9.46875 25.492188-2.75 12.066406 3.90625 24.316406 15.503907 28.632812 16.605468 6.175782 34.152343 10.148438 52.226562 11.667969-8.578125-11.597656-10.148438-31.003906-6.40625-47.6875zm0 0" fill="#5e78bf"/><path d="m200.378906 107.070312c-4.449218.785157-9.175781.222657-13.546875-1.910156l-30.296875-14.773437c-13.265625-6.46875-29.003906-2.960938-38.265625 8.53125l-14.878906 18.453125c-7.683594 9.53125-21.636719 11.027344-31.164063 3.34375-9.53125-7.683594-11.027343-21.636719-3.347656-31.167969l14.878906-18.453125c10.730469-13.304688 25.828126-22.683594 42.511719-26.402344 16.683594-3.714844 34.332031-1.640625 49.695313 5.851563l30.296875 14.773437c11.003906 5.367188 15.574219 18.632813 10.207031 29.636719-3.234375 6.632813-9.339844 10.929687-16.089844 12.117187zm0 0" fill="#495059"/><path d="m282.476562 92.59375c-6.75 1.191406-13.957031-.753906-19.265624-5.882812-8.804688-8.503907-9.050782-22.535157-.542969-31.339844l23.414062-24.246094c11.878907-12.292969 27.757813-20.277344 44.699219-22.496094 16.949219-2.210937 34.34375 1.4375 48.976562 10.273438l20.292969 12.25c10.480469 6.328125 13.84375 19.953125 7.515625 30.433594-6.324218 10.476562-19.949218 13.84375-30.429687 7.515624l-20.292969-12.253906c-12.632812-7.628906-28.621094-5.542968-38.875 5.074219l-23.417969 24.246094c-3.378906 3.496093-7.628906 5.644531-12.074219 6.425781zm0 0" fill="#495059"/><path d="m271.910156 272.714844c110.808594-19.539063 151.796875-79.105469 123.609375-147.832032-30.292969-73.855468-90.460937-106.597656-166.121093-93.257812-75.65625 13.339844-120.996094 64.6875-124.203126 144.449219-2.980468 74.222656 55.90625 116.179687 166.714844 96.640625zm0 0" fill="#ddaf89"/><path d="m308.394531 310.0625c0 16.511719-13.386719 29.898438-29.898437 29.898438-16.511719 0-29.898438-13.386719-29.898438-29.898438s13.386719-29.898438 29.898438-29.898438c16.511718 0 29.898437 13.386719 29.898437 29.898438zm0 0" fill="#f6e06a"/><path d="m196.648438 180.691406c-2.457032-13.941406-18.640626-22.742187-36.144532-19.65625-17.507812 3.085938-29.707031 16.890625-27.25 30.832032 2.457032 13.941406 18.640625 22.738281 36.148438 19.652343 17.503906-3.085937 29.703125-16.886719 27.246094-30.828125zm0 0" fill="#ffdbdb"/><path d="m311.160156 160.480469c2.457032 13.9375 18.640625 22.738281 36.144532 19.652343 17.507812-3.085937 29.703124-16.886718 27.246093-30.828124-2.457031-13.941407-18.640625-22.742188-36.144531-19.65625-17.507812 3.085937-29.703125 16.890624-27.246094 30.832031zm0 0" fill="#ffdbdb"/><path d="m266.847656 146.792969c-11.402344-.929688-22.851562 1.089843-33.246094 5.863281-4.304687 1.976562-7.746093 5.449219-9.691406 9.769531-2.625 5.835938.671875 12.621094 6.882813 14.167969l17.222656 4.285156c5.128906 1.277344 10.558594.320313 14.941406-2.636718l14.71875-9.914063c5.304688-3.578125 6.082031-11.082031 1.621094-15.667969-3.304687-3.394531-7.726563-5.480468-12.449219-5.867187zm0 0" fill="#495059"/><path d="m289.535156 221.230469c-2.332031-13.226563-15.636718-21.9375-29.710937-19.453125-14.078125 2.480468-23.601563 15.214844-21.269531 28.441406 2.332031 13.226562 15.632812 21.9375 29.710937 19.457031s23.601563-15.214843 21.269531-28.445312zm0 0" fill="#d16283"/><path d="m357.988281 37.050781-247.566406 43.652344c-10.578125 1.867187-17.640625 11.953125-15.777344 22.53125l3.714844 21.066406c1.863281 10.582031 11.953125 17.644531 22.53125 15.777344l247.566406-43.652344c10.582031-1.863281 17.644531-11.953125 15.777344-22.53125l-3.714844-21.066406c-1.863281-10.578125-11.949219-17.640625-22.53125-15.777344zm0 0" fill="#f3e5b7"/><path d="m381.078125 55.96875 2.605469 14.773438-285.875 50.421874-2.605469-14.773437zm0 0" fill="#7f9ae6"/><path d="m483.292969 82.617188c16.683593 6.070312 25.304687 24.484374 19.316406 41.175781-6.269531 17.464843-26.292969 25.578125-43.484375 18.585937-21.960938-8.929687-23.238281-24.929687-38.382812-34.253906-4.519532-2.78125-4.769532-9.261719-.507813-12.421875 22.925781-17.007813 41.695313-20.863281 63.058594-13.085937zm0 0" fill="#7f9ae6"/><path d="m10.507812 191.296875c-7.503906 16.089844-.582031 35.207031 15.457032 42.773437 16.785156 7.917969 36.679687-.503906 43.890625-17.601562 9.214843-21.84375-1.195313-34.0625 2.917969-51.363281 1.226562-5.160157-3.175782-9.921875-8.425782-9.144531-28.234375 4.183593-44.230468 14.730468-53.839844 35.335937zm0 0" fill="#7f9ae6"/><path d="m485.859375 75.570312c-23.699219-8.625-45.3125-4.273437-70.09375 14.105469-4.011719 2.976563-6.277344 7.734375-6.0625 12.726563.214844 4.976562 2.871094 9.503906 7.109375 12.109375 5.195312 3.203125 8.492188 7.5 12.3125 12.480469 5.890625 7.6875 12.570312 16.398437 27.175781 22.335937 4.988281 2.027344 10.304688 3.042969 15.609375 3.042969 5.746094 0 11.480469-1.1875 16.777344-3.554688 9.910156-4.425781 17.363281-12.414062 20.980469-22.488281 7.367187-20.527344-3.3125-43.300781-23.808594-50.757813zm9.691406 45.6875c-2.226562 6.195313-6.832031 11.117188-12.976562 13.863282-6.480469 2.890625-13.996094 3.007812-20.621094.3125-10.828125-4.40625-15.507813-10.503906-20.925781-17.570313-4.324219-5.640625-8.796875-11.472656-16.324219-16.136719 14.09375-10.457031 26.078125-15.4375 38.21875-15.4375 5.816406 0 11.671875 1.144532 17.804687 3.375 12.757813 4.644532 19.40625 18.820313 14.824219 31.59375zm-415.480469 45.582032c1.152344-4.839844-.171874-9.917969-3.539062-13.589844-3.375-3.683594-8.347656-5.445312-13.28125-4.710938-30.519531 4.523438-48.882812 16.734376-59.539062 39.585938-9.21875 19.769531-.667969 43.421875 19.054687 52.726562 5.257813 2.480469 10.878906 3.726563 16.539063 3.726563 4.765624 0 9.5625-.882813 14.199218-2.65625 10.421875-3.988281 18.902344-12.203125 23.261719-22.539063 6.128906-14.523437 4.691406-25.410156 3.425781-35.011718-.824218-6.21875-1.53125-11.589844-.121094-17.53125zm-17.125 46.710937c-2.78125 6.589844-8.175781 11.824219-14.804687 14.359375-6.285156 2.40625-13.019531 2.183594-18.972656-.625-12.28125-5.792968-17.601563-20.515625-11.863281-32.820312 8.523437-18.273438 22.472656-27.28125 48.171874-31.09375-2.050781 8.628906-1.089843 15.917968-.160156 22.964844 1.164063 8.824218 2.171875 16.445312-2.371094 27.214843zm256.976563-73.066406c.433594 0 .871094-.035156 1.3125-.113281 4.078125-.71875 6.800781-4.609375 6.082031-8.6875l-1.972656-11.195313c-.722656-4.078125-4.617188-6.800781-8.691406-6.085937-4.078125.71875-6.804688 4.609375-6.082032 8.691406l1.972657 11.191406c.640625 3.640625 3.804687 6.199219 7.378906 6.199219zm139.335937 58.898437c-12.695312-10.132812-31.265624-8.050781-41.398437 4.640626-12.058594 15.101562-21.652344 25.875-30.789063 31.984374-.5-2.148437-1.222656-4.265624-2.183593-6.304687 6.3125-6.546875 11.582031-13.597656 15.734375-21.140625 14-25.40625 14.632812-55.328125 1.835937-86.523438-4.355469-10.621093-9.40625-20.582031-15.03125-29.707031 2.597657-3.851562 4.128907-8.214843 4.511719-12.738281 8.972656-1.015625 17.199219-6.097656 22.050781-14.132812 4.097657-6.785157 5.308594-14.753907 3.40625-22.449219-1.898437-7.691407-6.683593-14.183594-13.464843-18.277344l-20.292969-12.253906c-16.082031-9.710938-35.195313-13.71875-53.824219-11.289063-17.082031 2.234375-33.203125 9.835938-45.824219 21.523438-17.519531-2.449219-36.195312-1.949219-55.890625 1.523437-19.6875 3.472657-37.382812 9.410157-53 17.695313-15.871094-6.675782-33.636718-8.308594-50.460937-4.5625-18.335938 4.085937-34.925781 14.390625-46.71875 29.015625l-14.875 18.453125c-4.976563 6.167968-7.25 13.902344-6.402344 21.785156.84375 7.875 4.707031 14.953125 10.875 19.929688 5.402344 4.351562 11.988281 6.5625 18.605469 6.5625 2.328125 0 4.660156-.292969 6.945312-.84375 1.90625 4.125 4.839844 7.707031 8.605469 10.441406-2.167969 10.5-3.507813 21.589844-3.96875 33.058594-.976563 24.3125 4.257813 45.382812 15.5625 62.621093 1.441406 2.195313 3.835937 3.390625 6.277344 3.390625 1.414062 0 2.839843-.398437 4.105469-1.230468 3.464843-2.269532 4.433593-6.921876 2.160156-10.382813-9.550782-14.574219-13.964844-32.671875-13.117188-53.796875.398438-9.898438 1.5-19.464844 3.257813-28.550781.503906.03125 1.003906.058593 1.507812.058593 1.574219 0 3.15625-.136718 4.738281-.414062l247.570313-43.65625c2.085937-.367188 4.09375-.972656 5.992187-1.789062 4.761719 7.933593 9.066407 16.546874 12.820313 25.707031 11.015625 26.851562 10.636719 52.300781-1.09375 73.597656-4.195313 7.613281-9.753906 14.675781-16.59375 21.164063-.410156.3125-.777344.660156-1.105469 1.035156-21.464844 19.765625-55.121094 34.035156-99.175781 41.800781-53.039063 9.351563-95.691406 4.582031-123.351563-13.792969-3.453124-2.292968-8.105468-1.355468-10.398437 2.097656-2.292969 3.449219-1.355469 8.105469 2.09375 10.394532 3.796875 2.523437 7.835937 4.8125 12.089844 6.882812-.410157 4.480469.140625 8.910156 1.515625 13.039063-14.300782 7.074219-25.914063 17.582031-34.574219 31.351562-9.671875 15.375-14.234375 32.472657-16.828125 43.992188-3.5625 15.847656 6.425781 31.640625 22.273438 35.207031 2.132812.480469 4.3125.722656 6.484374.722656 13.859376 0 25.671876-9.457031 28.71875-22.996094 4.1875-18.617187 9.238282-27.472656 15.285157-32.394531 6.757812 11.261719 15.734375 21.078125 26.34375 29.0625-4.535157 6.769531-7.699219 13.429688-9.609375 20.191407-3.328125 11.800781-2.894532 23.875 1.285156 35.886718 3.855469 11.074219 10.34375 20.453125 14.886719 26.542969 5.53125 7.417969 14.363281 11.84375 23.628906 11.84375 6.382813 0 12.46875-2.019531 17.59375-5.84375 6.308594-4.707031 10.40625-11.585937 11.539063-19.371094 1.132812-7.789062-.835938-15.546875-5.542969-21.855469-5.527344-7.414062-6.46875-10.609374-6.625-11.402343.367187-1.070313 2.207031-4.988281 10.675781-13.632813 4.175781.433594 8.40625.679688 12.683594.679688 7.171875 0 14.476562-.625 21.816406-1.917969 5.347656-.945313 10.546875-2.21875 15.582031-3.785156.421875.773437.835938 1.53125 1.269531 2.328125 8.789063 16.140625 19.730469 36.222656 34.261719 55.289062 5.621094 7.375 14.164063 11.601563 23.441407 11.601563 6.496093 0 12.667968-2.085938 17.84375-6.03125 3.898437-2.972657 7.015624-6.894531 9.011718-11.34375 1.695313-3.78125.007813-8.21875-3.773437-9.917969-3.777344-1.691406-8.214844-.003906-9.910157 3.773438-.992187 2.207031-2.480468 4.078124-4.421874 5.558593-2.539063 1.9375-5.566407 2.960938-8.746094 2.960938-4.558594 0-8.757813-2.078125-11.515625-5.695313-13.835938-18.15625-24.472657-37.683594-33.019531-53.371094-.097657-.179687-.1875-.347656-.285157-.527343 8.984375-4.058594 17.285157-9.121094 24.753907-14.992188.308593.566407.613281 1.121094.921874 1.691407 7.09375 13.015624 15.128907 27.769531 24.949219 41.878906 1.460938 2.09375 3.792969 3.214844 6.164063 3.214844 1.480468 0 2.972656-.433594 4.277344-1.34375 3.398437-2.367188 4.238281-7.042969 1.871093-10.441407-2.386719-3.429687-4.675781-6.921875-6.875-10.429687 2.683594.296875 5.359375.464844 8.042969.464844 14.097656 0 28.148438-4.15625 42.960938-12.703126 5.800781-3.347656 9.949218-8.75 11.683593-15.21875 1.734375-6.464843.847657-13.222656-2.5-19.019531-6.90625-11.96875-22.261719-16.089843-34.234375-9.183593-9.574218 5.519531-17.351562 8.78125-31.363281 2.507812 7.402344-11.746094 12.425781-24.746094 14.574219-38.34375 36.121094-7.820312 59.238281-36.746094 76.339844-58.15625 10.132812-12.691406 8.050781-31.261719-4.640626-41.398438zm-280.269531-142.484374c.160157-.085938.316407-.175782.46875-.273438 14.875-8.320312 32-14.21875 51.246094-17.613281s37.359375-3.707031 54.179687-.976563c.179688.039063.355469.070313.535157.097656 3.609375.601563 7.160156 1.339844 10.648437 2.222657l-126.324218 22.273437c2.976562-2.023437 6.058593-3.929687 9.246093-5.730468zm-87.265625 27.503906c-4.128906 5.894531-5.714844 13.046875-4.464844 20.136718l2.320313 13.15625c-4.34375 1.054688-9.035156.09375-12.648437-2.820312-6.292969-5.074219-7.285157-14.324219-2.210938-20.621094l14.878906-18.453125c9.664063-11.988281 23.269532-20.4375 38.300782-23.789062 10.070312-2.246094 20.554687-2.128907 30.542968.222656-6.539062 4.6875-12.617187 9.890625-18.214844 15.597656l-31.105468 5.484375c-7.089844 1.253906-13.269532 5.1875-17.398438 11.085938zm283.148438-.273438c-.441406.628906-.9375 1.207032-1.480469 1.730469-.140625.117187-.273437.238281-.402344.363281-1.632812 1.445313-3.628906 2.429688-5.832031 2.816406l-247.566406 43.652344c-2.21875.394532-4.445313.144532-6.484375-.667968-.152344-.066407-.300781-.128907-.457031-.183594-.691407-.308594-1.355469-.683594-1.988282-1.125-2.613281-1.832032-4.359375-4.570313-4.914062-7.714844l-.359375-2.03125c-.003907-.019531-.007813-.042969-.011719-.0625l-3.34375-18.972656c-.554688-3.140625.148438-6.3125 1.976562-8.925782 1.832032-2.617187 4.570313-4.359374 7.714844-4.914062l247.570313-43.652344c.695312-.125 1.394531-.183594 2.078125-.183594 5.6875 0 10.742187 4.085938 11.765625 9.875l3.339843 18.964844c.007813.03125.011719.066406.019532.101563l.351562 2c.554688 3.140625-.144531 6.3125-1.976562 8.929687zm1.953125-50c-5.894531-4.128906-13.046875-5.710937-20.136719-4.464844l-31.058594 5.476563c-7.21875-3.449219-14.714844-6.261719-22.472656-8.433594 8.578125-5.617187 18.378906-9.300781 28.597656-10.640625 15.277344-1.992187 30.945313 1.292969 44.128906 9.253906l20.292969 12.253907c3.351563 2.023437 5.714844 5.234375 6.65625 9.035156.9375 3.804687.339844 7.746094-1.683593 11.097656-2.402344 3.976563-6.476563 6.492188-10.917969 6.988281l-2.324219-13.167968c-1.25-7.089844-5.183594-13.269532-11.082031-17.398438zm-4.121094 206.546875c.632813 4-.164063 8.136719-2.277344 11.636719-.003906.007812-.007812.015625-.011719.023438-.933593 1.542968-2.109374 2.964843-3.542968 4.1875-16.945313 14.429687-36.066406 25.617187-56.902344 33.34375-3.980469-6.1875-9.703125-11.042969-16.351562-13.996094 32.816406-7.847656 59.449218-19.730469 79.085937-35.195313zm-98.097656 47.328125c1.3125-.230468 2.613281-.339844 3.902343-.339844 10.65625 0 20.132813 7.65625 22.046876 18.507813 2.144531 12.164063-6.007813 23.804687-18.171876 25.945313-5.882812 1.039062-11.832031-.277344-16.734374-3.707032-4.898438-3.433594-8.171876-8.566406-9.210938-14.460937-2.144531-12.160157 6.007812-23.800781 18.167969-25.945313zm-130.605469 80.925782c-1.472656 6.542968-7.394531 11.289062-14.085938 11.289062-1.066406 0-2.140624-.117188-3.191406-.355469-7.777344-1.75-12.679687-9.5-10.929687-17.277343 5.292969-23.535157 15.191406-51.859376 44.648437-65.78125.226563 3.488281.644532 6.972656 1.246094 10.386718 1.167969 6.617188 3.019531 12.960938 5.445312 19-11.242187 7.660156-18.167968 20.671875-23.132812 42.738282zm22.226562-91.90625c16.066407 5.273437 34.570313 7.941406 55.179688 7.941406 9.921875 0 20.332031-.621094 31.183594-1.859375-5.242188 5.054687-8.957032 11.582031-10.582032 18.765625-22.195312-.136719-43.984374-4.117188-64.867187-11.890625-5.796875-2.160157-9.808594-7.195313-10.914063-12.957031zm78.511719 158.960937c-.554687 3.820313-2.5625 7.195313-5.660156 9.503906-2.515625 1.878907-5.5 2.871094-8.625 2.871094-4.621094 0-8.847656-2.117187-11.605469-5.8125-9.933594-13.316406-19.339844-29.597656-13.753906-49.390625 1.488281-5.277344 4.042969-10.582031 7.75-16.085938 8.601562 4.804688 17.941406 8.546876 27.796875 11.074219-5.378906 6.46875-7.007813 10.320313-7.722656 12.859375-1.28125 4.542969-1.066407 10.625 9.101562 24.253906 2.3125 3.097657 3.277344 6.90625 2.71875 10.726563zm167.105469-88.214844c4.808594-2.773437 10.976562-1.117187 13.746094 3.6875 1.34375 2.328125 1.703125 5.042969 1.003906 7.636719-.695312 2.597656-2.359375 4.765625-4.6875 6.109375-12.472656 7.199219-24.074219 10.695313-35.464844 10.695313-6.019531 0-12.035156-.949219-18.308594-2.894532-2.417968-4.320312-4.738281-8.5625-6.949218-12.625-.886719-1.625-1.761719-3.230468-2.628906-4.8125 1.882812-1.933594 3.691406-3.929687 5.417968-5.976562 22.109375 10.90625 35.769532 5.160156 47.871094-1.820313zm-121.855469 27.472657c-53.617187 9.457031-104.15625-21.664063-113.308593-69.5 21.023437 7.242187 42.847656 10.972656 65.050781 11.128906 1.792969 9.703125 7.21875 18.160156 15.316406 23.828125 6.359375 4.449219 13.765625 6.773437 21.371094 6.773437 2.179687 0 4.378906-.191406 6.574219-.578125 20.207031-3.566406 33.777343-22.832031 30.378906-43.035156 20.828125-7.742187 40.070312-18.699219 57.324218-32.675781 7.757813 48.078125-29.089843 94.605468-82.707031 104.058594zm162.1875-143.820313c-15.730469 19.699219-34.949219 43.769531-63.445312 51.792969-.042969-5.230469-.519531-10.507813-1.453125-15.800782-.609375-3.464843-1.421875-6.925781-2.417969-10.320312.558594-1.191406 1.042969-2.414062 1.449219-3.660156 14.121094-5.925782 26.429687-18.957032 43.273437-40.050782 4.976563-6.226562 14.085938-7.25 20.316407-2.277343 6.226562 4.976562 7.25 14.089843 2.277343 20.316406zm-170.308593-56.875c4.375-2.949219 7.199218-7.652344 7.742187-12.902344s-1.257813-10.429687-4.9375-14.214843c-4.570313-4.695313-10.683594-7.578126-17.214844-8.109376-12.652343-1.035156-25.445312 1.21875-36.984375 6.519532-5.953125 2.734375-10.714844 7.53125-13.402344 13.507812-2.164062 4.8125-2.082031 10.296875.222657 15.046875 2.304687 4.746094 6.566406 8.203125 11.6875 9.476563l17.222656 4.285156c1.089844.269531 2.1875.464844 3.289063.59375l1.390624 7.894531c-5.488281 2.332031-10.257812 6.03125-13.839843 10.820313-5.269531 7.050781-7.351563 15.589844-5.859375 24.046875 2.703125 15.328125 16.5625 26.074219 32.316406 26.074219 2.003906 0 4.039062-.171876 6.085938-.535157 18.128906-3.195312 30.398437-19.851562 27.351562-37.132812-1.492188-8.457031-6.367188-15.769531-13.730469-20.589844-5.246093-3.4375-11.316406-5.296875-17.582031-5.46875l-1.363281-7.722656c.992187-.5 1.960937-1.046875 2.890625-1.671875zm-17.210938 34.292969c3.703125 0 7.28125 1.039062 10.332031 3.035156 3.859375 2.527344 6.410157 6.308594 7.175781 10.648438 1.609376 9.128906-5.203124 17.996093-15.183593 19.753906-9.988281 1.761718-19.414063-4.238282-21.023438-13.371094-.765625-4.335938.335938-8.761719 3.097657-12.457031 2.871093-3.839844 7.164062-6.429688 12.085937-7.296875 1.175781-.207032 2.351563-.3125 3.515625-.3125zm-5.890625-36.816406c-2.617187 1.765624-5.878906 2.335937-8.941406 1.578124l-17.222657-4.289062c-1.089843-.269531-1.605468-1.039062-1.816406-1.472656-.210937-.433594-.492187-1.3125-.035156-2.335938 1.203125-2.667968 3.324219-4.8125 5.984375-6.03125 7.75-3.558594 16.207031-5.398437 24.710937-5.398437 1.597657 0 3.195313.066406 4.792969.195312 2.914063.238281 5.640625 1.523438 7.683594 3.617188.78125.808593.816406 1.730469.765625 2.210937-.050781.480469-.273438 1.378906-1.203125 2.007813zm-79.777344-6.6875c.433594 0 .871094-.039063 1.3125-.113282 4.078125-.722656 6.800781-4.609375 6.082031-8.691406l-1.972656-11.191406c-.722656-4.082032-4.613281-6.800782-8.691406-6.085938-4.078125.722656-6.804688 4.609375-6.082031 8.691406l1.972656 11.191407c.644531 3.640625 3.808594 6.199219 7.378906 6.199219zm0 0"/></svg>