<svg id="Capa_1" enable-background="new 0 0 512 512" height="512" viewBox="0 0 512 512" width="512" xmlns="http://www.w3.org/2000/svg"><g><path d="m504.493 204.5-160.576-160.586c-23.316-23.315-54.938-36.414-87.911-36.414s-64.595 13.099-87.911 36.414l-160.586 160.586v240h496.991v-240z" fill="#ffb357"/><g><path d="m391 7.5h-270c-16.569 0-30 13.431-30 30v407h330v-407c0-16.569-13.431-30-30-30z" fill="#b9f0ff"/><path d="m176.443 127.679c0-27.807 14.276-52.268 35.889-66.491 3.155-30.17 28.663-53.688 59.668-53.688h-151c-16.569 0-30 13.432-30 30v407h121v-250.543c-21.428-14.255-35.557-38.613-35.557-66.278z" fill="#7ce3ff"/></g><g><path d="m343.919 365.088c-23.315 23.315-54.938 36.414-87.911 36.414s-64.595-13.099-87.911-36.414l-160.588-160.588h-.009v240c0 33.137 26.863 60 60 60h377c33.137 0 60-26.863 60-60v-239.993z" fill="#ffce71"/><path d="m343.917 283.912c-23.315-23.315-54.938-36.414-87.911-36.414s-64.595 13.099-87.911 36.414l-160.595 160.588c0 33.137 26.863 60 60 60h377c33.137 0 60-26.863 60-60z" fill="#fce3a0"/><path d="m91 444.5v-83.496h-83.5v83.496c0 33.137 26.863 60 60 60h83.5c-33.137 0-60-26.863-60-60z" fill="#ffce71"/></g><g fill="#ff8e9e"><path d="m176.443 399.483c-16.212 0-29.355 10.466-29.355 23.377 0 12.91 13.142 23.376 29.355 23.376 16.212 0 29.355-10.466 29.355-23.376 0-12.911-13.142-23.377-29.355-23.377z"/><path d="m335.557 399.483c-16.212 0-29.355 10.466-29.355 23.377 0 12.91 13.143 23.376 29.355 23.376s29.355-10.466 29.355-23.376c-.001-12.911-13.143-23.377-29.355-23.377z"/></g><g><path d="m509.804 199.204-81.304-81.308v-80.396c0-20.678-16.822-37.5-37.5-37.5h-270c-20.678 0-37.5 16.822-37.5 37.5v80.402l-81.303 81.294c-1.407 1.407-2.197 3.315-2.197 5.304v240c0 37.22 30.28 67.5 67.5 67.5h263.304c4.143 0 7.5-3.357 7.5-7.5s-3.357-7.5-7.5-7.5h-263.304c-27.935 0-50.843-21.932-52.414-49.479l158.313-158.305c45.658-45.658 119.554-45.661 165.215 0l158.301 158.305c-1.572 27.547-24.48 49.479-52.415 49.479h-83.696c-4.143 0-7.5 3.357-7.5 7.5s3.357 7.5 7.5 7.5h83.696c37.22 0 67.5-30.28 67.5-67.5v-239.993c0-1.989-.79-3.897-2.196-5.303zm-494.804 227.19v-218.788l68.5-68.493v130.771l-40.99-40.986c-2.938-2.938-7.678-2.932-10.61 0-2.896 2.898-2.947 7.631 0 10.601l85 84.999zm334.221-147.786c-51.519-51.517-134.905-51.525-186.43 0l-35.282 35.281-29.009-29.005c0-7.24 0-241.968 0-247.384 0-12.406 10.094-22.5 22.5-22.5h270c12.406 0 22.5 10.094 22.5 22.5v247.4l-28.994 28.995zm147.779 147.784-101.887-101.89c1.338-1.339 62.507-62.513 84.866-84.862 2.92-2.93 2.92-7.689 0-10.61-2.97-2.97-7.734-2.897-10.609 0l-40.87 40.87v-130.791l68.5 68.504z"/><path d="m186.051 388.356v12c0 4.143 3.357 7.5 7.5 7.5s7.5-3.357 7.5-7.5v-12c0-4.143-3.357-7.5-7.5-7.5s-7.5 3.358-7.5 7.5z"/><path d="m310.948 388.356v12c0 4.143 3.357 7.5 7.5 7.5s7.5-3.357 7.5-7.5v-12c0-4.143-3.357-7.5-7.5-7.5s-7.5 3.358-7.5 7.5z"/><path d="m266.81 395.072c-2.73 3.132-6.669 4.928-10.81 4.928s-8.08-1.796-10.81-4.928c-2.721-3.124-7.459-3.448-10.581-.728-3.123 2.721-3.449 7.459-.728 10.581 5.579 6.403 13.641 10.075 22.119 10.075s16.54-3.672 22.118-10.074c2.722-3.122 2.396-7.86-.728-10.581-3.121-2.722-7.861-2.398-10.58.727z"/><path d="m256 40.179c-48.238 0-87.5 39.27-87.5 87.5 0 48.027 38.997 87.5 87.5 87.5 7.294 0 14.546-.9 21.555-2.676 4.015-1.018 6.445-5.098 5.428-9.112-1.017-4.016-5.096-6.444-9.112-5.429-5.805 1.471-11.817 2.217-17.87 2.217-40.238 0-72.5-32.759-72.5-72.5 0-39.983 32.566-72.5 72.5-72.5 39.907 0 72.5 32.492 72.5 72.5 0 8.518-1.47 16.857-4.368 24.79-3.117 8.531-10.773 10.397-16.382 9.407-5.651-1-12.25-5.415-12.25-14.566v-50.03c0-4.143-3.358-7.5-7.5-7.5-3.964 0-7.201 3.077-7.473 6.971-6.743-5.359-15.264-8.572-24.527-8.572-21.78 0-39.5 17.72-39.5 39.5s17.72 39.5 39.5 39.5c9.982 0 19.104-3.729 26.065-9.858 3.701 11.108 13.418 17.618 23.072 19.326 12.214 2.16 27.185-2.883 33.084-19.03 3.502-9.586 5.278-19.659 5.278-29.938 0-48.27-39.301-87.5-87.5-87.5zm0 112c-13.509 0-24.5-10.99-24.5-24.5s10.991-24.5 24.5-24.5 24.5 10.99 24.5 24.5-10.991 24.5-24.5 24.5z"/></g></g></svg>