<?xml version="1.0" encoding="iso-8859-1"?>
<!-- Generator: Adobe Illustrator 19.0.0, SVG Export Plug-In . SVG Version: 6.00 Build 0)  -->
<svg version="1.1" id="Layer_1" xmlns="http://www.w3.org/2000/svg" xmlns:xlink="http://www.w3.org/1999/xlink" x="0px" y="0px"
	 viewBox="0 0 512 512" style="enable-background:new 0 0 512 512;" xml:space="preserve">
<path style="fill:#8FE673;" d="M256,481.131c433.278-255.003,206.484-538.213,0-424.252C49.516-57.082-177.278,226.128,256,481.131z
	"/>
<path style="fill:#76CC5B;" d="M256,425.04C86.256,318.284,43.027,213.52,60.505,149.364c11.669-42.833,50.768-70.511,99.609-70.511
	c23.889,0,49.038,6.911,72.727,19.986l23.159,12.781l23.159-12.781c23.689-13.076,48.839-19.986,72.727-19.986
	c48.831,0,87.922,27.677,99.591,70.508C468.956,213.523,425.734,318.289,256,425.04z"/>
<g style="opacity:0.1;">
	<path d="M124.008,164.005c9.435-41.016,36.802-70.29,72.747-80.003c-12.302-3.399-24.631-5.149-36.642-5.149
		c-48.842,0-87.941,27.677-99.61,70.51c-16.037,58.868,19.056,151.927,156.082,249.342
		C132.241,306.178,110.812,221.381,124.008,164.005z"/>
</g>
<path d="M434.795,43.055c-52.237-29.33-118.75-27.901-178.817,3.617c-42.63-22.418-87.548-29.828-130.197-21.421
	c-41.812,8.242-77.308,31.263-99.951,64.824c-27.111,40.181-33.113,91.69-16.9,145.037c18.482,60.811,65.623,123.348,136.327,180.85
	c1.668,1.355,3.671,2.015,5.665,2.015c2.612,0,5.203-1.132,6.977-3.317c3.132-3.85,2.549-9.51-1.301-12.642
	C88.678,346.783,43.562,287.261,26.125,229.887c-14.608-48.069-9.423-94.151,14.602-129.76
	c19.969-29.596,51.408-49.925,88.528-57.242c39.904-7.864,82.215-0.304,122.378,21.862c2.703,1.492,5.981,1.492,8.684,0
	c55.702-30.743,117.638-32.993,165.678-6.02c4.328,2.432,9.807,0.893,12.236-3.436C440.66,50.963,439.121,45.485,434.795,43.055z"/>
<path d="M510.919,196.987c5.655-52.297-11.013-99.433-46.935-132.723c-3.64-3.374-9.327-3.157-12.7,0.483
	c-3.373,3.641-3.157,9.327,0.483,12.7c31.65,29.332,46.311,71.099,41.282,117.608c-5.824,53.87-44.448,160.958-237.075,275.632
	c-26.297-15.661-50.928-31.952-73.274-48.467c-3.99-2.948-9.615-2.106-12.568,1.886c-2.949,3.992-2.104,9.619,1.887,12.568
	c24.135,17.835,50.849,35.397,79.398,52.2c1.407,0.828,2.981,1.241,4.558,1.241c1.577,0,3.151-0.413,4.558-1.241
	c79.958-47.059,142.276-97.799,185.221-150.811C483.973,290.887,505.899,243.422,510.919,196.987z"/>
<path d="M366.228,340.698c1.754,1.754,4.055,2.631,6.354,2.631c2.299,0,4.6-0.877,6.355-2.632
	c66.902-66.908,96.492-137.507,81.187-193.696c-12.765-46.856-55.26-77.133-108.261-77.133c-25.404,0-52.054,7.298-77.07,21.105
	l-18.816,10.385L237.16,90.972c-25.016-13.807-51.666-21.105-77.07-21.105c-17.043,0-33.175,3.125-47.953,9.288
	c-4.579,1.911-6.745,7.172-4.833,11.753c1.911,4.582,7.171,6.745,11.754,4.835c12.571-5.244,26.378-7.903,41.032-7.903
	c22.375,0,46.022,6.524,68.385,18.868l23.159,12.781c2.703,1.492,5.981,1.492,8.684,0l23.159-12.781
	c22.363-12.344,46.01-18.868,68.385-18.868c44.659,0,80.348,25.076,90.921,63.884c6.417,23.559,11.806,87.895-76.556,176.264
	C362.718,331.498,362.718,337.187,366.228,340.698z"/>
<path d="M93.316,112c3.668-3.345,3.926-9.03,0.581-12.696c-3.344-3.666-9.03-3.926-12.695-0.581
	c-14.14,12.901-24.303,29.595-29.394,48.278c-10.219,37.513-0.064,83.325,28.598,129.001
	c33.864,53.967,91.324,106.67,170.783,156.643c1.463,0.92,3.122,1.379,4.784,1.379c1.662,0,3.321-0.46,4.784-1.379
	c35.17-22.12,66.514-45.187,93.16-68.561c3.731-3.272,4.104-8.95,0.83-12.682c-3.273-3.731-8.952-4.101-12.682-0.829
	c-24.726,21.688-53.668,43.144-86.094,63.829C93.776,310.967,52.981,211.074,69.15,151.726
	C73.342,136.336,81.699,122.599,93.316,112z"/>
<g>
</g>
<g>
</g>
<g>
</g>
<g>
</g>
<g>
</g>
<g>
</g>
<g>
</g>
<g>
</g>
<g>
</g>
<g>
</g>
<g>
</g>
<g>
</g>
<g>
</g>
<g>
</g>
<g>
</g>
</svg>
