<svg id="Capa_1" enable-background="new 0 0 511.943 511.943" height="512" viewBox="0 0 511.943 511.943" width="512" xmlns="http://www.w3.org/2000/svg"><g><path d="m466.791 135.501c0 16.62-13.46 39.09-30.07 39.12h-361.5c-16.61-.03-30.07-22.5-30.07-39.12 0-16.63 13.48-30.12 30.11-30.12 6.95 0 13.34 2.36 18.43 6.3-2.15-4.14-3.37-8.84-3.37-13.83 0-16.63 13.49-30.12 30.12-30.12 5.61 0 10.86 1.54 15.36 4.22-.19-1.38-.3-2.79-.3-4.22 0-16.63 13.479-30.11 30.12-30.11 4.39 0 8.57.94 12.33 2.65 1 .44 1.98.94 2.92 1.5 1.68-15.04 14.43-26.74 29.92-26.74 1.93 0 3.81.18 5.63.53 5.17.98 9.87 3.28 13.74 6.53 5.27-8.74 14.86-14.59 25.81-14.59s20.54 5.85 25.81 14.59c5.23-4.4 11.99-7.06 19.37-7.06 15.49 0 28.24 11.7 29.92 26.74 4.47-2.64 9.69-4.15 15.25-4.15 16.64 0 30.12 13.48 30.12 30.11 0 1.43-.11 2.84-.3 4.22 4.5-2.68 9.75-4.22 15.36-4.22 16.63 0 30.12 13.49 30.12 30.12 0 4.99-1.22 9.69-3.37 13.83 5.09-3.94 11.479-6.3 18.43-6.3 16.63.001 30.11 13.491 30.11 30.12z" fill="#dd8857"/><path d="m206.402 174.622h-131.181c-16.61-.03-30.07-22.5-30.07-39.12 0-16.63 13.48-30.12 30.11-30.12 6.95 0 13.34 2.36 18.43 6.3-2.15-4.14-3.37-8.84-3.37-13.83 0-16.63 13.49-30.12 30.12-30.12 5.61 0 10.86 1.54 15.36 4.22-.19-1.38-.3-2.79-.3-4.22 0-16.63 13.479-30.11 30.12-30.11 4.39 0 8.57.94 12.33 2.65-3.31 29.36-4.84 89.36 28.451 134.35z" fill="#d67c41"/><ellipse cx="172.406" cy="113.446" fill="#fff" rx="30.834" ry="24.555"/><ellipse cx="339.537" cy="113.446" fill="#fff" rx="30.834" ry="24.555"/><path d="m484.791 424.222c9.18 19.88-5.34 42.57-27.24 42.57h-43.2c-10.75 0-21.29 2.72-30.83 7.68-23.91 12.46-50.48 21.28-78.81 25.99-15.76 2.63-32.06 3.979-48.74 3.979-12.25 0-24.28-.729-36.05-2.16-33.1-4-64.05-13.51-91.5-27.81-9.54-4.96-20.08-7.68-30.83-7.68h-43.2c-21.9 0-36.42-22.69-27.24-42.57l.15-.32c8.11-17.58 8.1-37.75.37-55.5-11.67-26.84-18.11-56.99-18.11-89.84 0-28.11 4.71-56.17 13.38-83 2.97-9.2 6.41-12.44 10.28-15.26h.01l54.75.09 31.28.05 31.41.05 329.02.55c3.48 2.66 6.6 6.1 9.311 14.52 8.67 26.83 13.38 54.89 13.38 83 0 32.85-6.44 63-18.11 89.84-7.73 17.75-7.74 37.92.37 55.5z" fill="#fdf2e3"/><path d="m219.922 502.282c-33.1-4-64.05-13.51-91.5-27.81-9.54-4.96-20.08-7.68-30.83-7.68h-43.2c-21.9 0-36.42-22.69-27.24-42.57l.15-.32c8.11-17.58 8.1-37.75.37-55.5-11.67-26.84-18.11-56.99-18.11-89.84 0-28.11 4.71-56.17 13.38-83 2.97-9.2 6.41-12.44 10.28-15.26h.01l54.75.09 31.28.05c-12.571 76.57-28.521 263.349 100.66 321.84z" fill="#fde9cc"/><path d="m504.441 182.271c0 7.58-2.75 14.57-7.34 19.88-4.58 5.31-10.99 8.94-18.3 9.83l-6.78.82c-98.89 11.99-198.48 15.72-297.81 11.18-2.43-.11-4.87-.23-7.3-.35-3.96-.2-7.91-.41-11.87-.63-38.45-2.16-76.83-5.56-115.12-10.2l-6.78-.82c-14.62-1.77-25.64-14.54-25.64-29.71 0-16.7 13.189-29.91 28.979-29.91 1.13 0 2.28.07 3.44.21 33.95 4.12 67.99 7.26 102.08 9.42 2.08.14 4.15.26 6.229.39 5.47.33 10.94.63 16.41.91 30.42 1.55 60.88 2.33 91.33 2.33 72.14 0 144.28-4.35 216.05-13.05 1.16-.14 2.31-.21 3.44-.21 15.793.001 28.982 13.211 28.982 29.91z" fill="#fde9cc"/><path d="m166.911 223.632c-3.96-.2-7.91-.41-11.87-.63-38.45-2.16-76.83-5.56-115.12-10.2l-6.78-.82c-14.62-1.77-25.64-14.54-25.64-29.71 0-16.7 13.189-29.91 28.979-29.91 1.13 0 2.28.07 3.44.21 33.95 4.12 67.99 7.26 102.08 9.42 2.08.14 4.15.26 6.229.39 5.47.33 10.94.63 16.41.91-5.458 10.439-12.538 32.289 2.272 60.34z" fill="#fddeb5"/><g fill="#dd8857"><path d="m263.501 361.194h-15.059c-33.267 0-60.235 26.968-60.235 60.235 0 20.792 16.855 37.647 37.647 37.647 5.132 0 10.023-1.027 14.481-2.886 10.046-4.191 21.227-4.191 31.273 0 4.458 1.859 9.349 2.886 14.481 2.886 20.792 0 37.647-16.855 37.647-37.647 0-33.266-26.968-60.235-60.235-60.235z"/><ellipse cx="218.324" cy="300.959" rx="22.588" ry="30.118" transform="matrix(.985 -.171 .171 .985 -48.151 41.667)"/><ellipse cx="293.618" cy="300.959" rx="30.118" ry="22.588" transform="matrix(.171 -.985 .985 .171 -53.028 538.918)"/><ellipse cx="358.955" cy="347.892" rx="30.118" ry="22.588" transform="matrix(.536 -.844 .844 .536 -127.197 464.229)"/><ellipse cx="152.988" cy="347.892" rx="22.588" ry="30.118" transform="matrix(.844 -.536 .536 .844 -162.737 136.346)"/></g></g><g><path d="m190.375 96.991c4.143 0 7.5-3.357 7.5-7.5v-12c0-4.143-3.357-7.5-7.5-7.5s-7.5 3.357-7.5 7.5v12c0 4.143 3.357 7.5 7.5 7.5z"/><path d="m278.919 94.346c2.722-3.123 2.396-7.86-.727-10.582-3.125-2.722-7.861-2.396-10.582.727-6.166 7.076-17.121 7.067-23.279 0-2.723-3.123-7.46-3.447-10.582-.727-3.122 2.722-3.448 7.459-.727 10.582 12.145 13.936 33.766 13.92 45.897 0z"/><path d="m309.976 96.656c4.143 0 7.5-3.357 7.5-7.5 0-3.532 2.874-6.406 6.406-6.406s6.406 2.874 6.406 6.406c0 4.143 3.357 7.5 7.5 7.5s7.5-3.357 7.5-7.5c0-11.804-9.603-21.406-21.406-21.406s-21.406 9.603-21.406 21.406c0 4.143 3.358 7.5 7.5 7.5z"/><path d="m507.08 240.134c-.594-4.101-4.406-6.951-8.499-6.346-4.099.594-6.939 4.399-6.345 8.499 5.983 41.245 2.181 83.952-14.842 123.104-8.641 19.841-8.481 42.307.457 61.682 7.178 15.328-4.026 32.203-20.301 32.203h-43.2c-11.705 0-23.562 2.948-34.296 8.528-74.417 38.779-173.465 38.928-248.174-.003-10.728-5.577-22.585-8.525-34.29-8.525h-43.2c-16.162 0-27.543-16.773-20.279-32.249 8.917-19.329 9.076-41.795.438-61.632-20.123-46.282-22.054-98.445-10.049-147.815 2.464.879 5.051 1.507 7.738 1.833 153.436 18.597 293.814 18.623 447.467 0 18.378-2.228 32.237-18.2 32.237-37.152 0-21.684-17.9-38.686-38.839-37.334 6.964-27.033-16.848-51.821-43.99-46.305.539-24.188-21.879-42.814-45.753-37.514-3.834-21.531-25.541-35.639-47.144-29.622-8.17-21.085-32.968-30.093-52.759-19.546-14.929-15.906-40.015-15.936-54.973 0-19.797-10.551-44.591-1.533-52.759 19.546-21.578-6.01-43.305 8.066-47.144 29.622-23.861-5.298-46.293 13.309-45.753 37.514-27.122-5.512-50.959 19.252-43.99 46.305-9.514-.614-18.967 2.625-26.208 9.04-16.17 14.326-16.973 39.842-1.477 55.189-14.248 54.437-12.302 111.756 9.641 162.224 6.982 16.035 6.827 34.205-.454 49.682-11.48 24.865 6.701 53.215 34.05 53.215h43.2c9.307 0 18.771 2.363 27.364 6.831 78.744 41.031 182.975 41.195 262.025.003 8.599-4.471 18.063-6.834 27.37-6.834h43.2c27.363 0 45.532-28.347 34.029-53.258-7.234-15.399-7.428-33.576-.432-49.643 17.751-40.822 22.482-86.102 15.934-131.242zm-468.059-80.134c36.437 4.416 72.824 7.595 103.506 9.529 4.143.253 7.696-2.88 7.957-7.014s-2.88-7.696-7.014-7.957c-29.146-1.838-58.592-4.431-87.741-7.713-2.011-3.428-3.08-7.297-3.08-11.359 0-18.846 21.725-29.287 36.449-17.89 2.785 2.156 6.693 2.083 9.396-.173s3.474-6.089 1.851-9.214c-7.689-14.804 3.013-32.994 20.094-32.994 4.062 0 8.047 1.094 11.522 3.164 5.372 3.206 12.127-1.234 11.268-7.468-2.633-19.087 17.878-32.116 33.827-22.698 4.676 2.763 10.662-.222 11.268-5.626 2.013-18.028 23.343-26.269 37.008-14.772 3.532 2.973 8.877 2.071 11.251-1.867 8.822-14.631 29.969-14.603 38.773 0 2.374 3.938 7.719 4.84 11.251 1.867 13.663-11.495 34.995-3.26 37.008 14.772.605 5.399 6.585 8.392 11.268 5.626 15.998-9.446 36.453 3.661 33.827 22.698-.856 6.214 5.874 10.683 11.268 7.468 3.476-2.07 7.46-3.164 11.522-3.164 17.073 0 27.787 18.181 20.094 32.994-1.623 3.125-.853 6.958 1.851 9.214 2.703 2.257 6.611 2.329 9.396.173 14.726-11.399 36.449-.955 36.449 17.89 0 4.058-1.066 7.924-3.074 11.35-93.545 10.535-188.475 13.701-282.41 9.377-4.141-.179-7.646 3.009-7.837 7.147-.19 4.138 3.01 7.646 7.147 7.837 99.763 4.592 200.955.78 299.803-11.197 13.066-1.582 24.021 9.14 24.021 22.261 0 11.375-8.187 20.945-19.042 22.262-158.358 19.194-298.587 17.607-443.857 0-10.855-1.317-19.041-10.887-19.041-22.262 0-13.096 10.937-23.841 24.021-22.261z"/><path d="m243.22 463.097c8.223-3.43 17.277-3.43 25.5 0 29.607 12.349 62.515-9.477 62.515-41.683 0-37.35-30.386-67.735-67.735-67.735h-15.059c-37.35 0-67.735 30.386-67.735 67.735 0 32.209 32.909 54.031 62.514 41.683zm5.221-94.418h15.059c29.078 0 52.735 23.657 52.735 52.735 0 21.542-22.012 36.067-41.741 27.839-11.924-4.974-25.077-4.993-37.047 0-19.724 8.226-41.741-6.291-41.741-27.839 0-29.078 23.657-52.735 52.735-52.735z"/><path d="m220.593 338.366c17.704 0 31.444-19.078 27.377-42.558-3.539-20.438-19.716-34.762-36.066-31.931-16.347 2.831-26.767 21.762-23.228 42.199v.001c3.24 18.706 17.065 32.289 31.917 32.289zm-6.129-59.709c8.045-1.394 16.634 7.631 18.727 19.711 1.081 6.247.288 12.598-2.176 17.424-1.235 2.42-4.026 6.605-8.833 7.438-8.04 1.393-16.634-7.631-18.727-19.712v.001c-2.091-12.08 2.951-23.465 11.009-24.862z"/><path d="m287.198 338.009c16.997 2.943 32.669-12.311 36.066-31.931v-.001c3.539-20.438-6.881-39.368-23.228-42.199-16.353-2.83-32.526 11.492-36.066 31.932-1.648 9.515-.371 19.034 3.595 26.803 4.271 8.364 11.427 13.976 19.633 15.396zm-8.448-39.64c1.949-11.252 9.521-19.854 17.062-19.854.556 0 1.111.047 1.664.143 8.059 1.396 13.101 12.781 11.009 24.861v-.001c-3.149 18.188-19.872 27.333-27.56 12.274-2.464-4.826-3.256-11.177-2.175-17.423z"/><path d="m338.775 379.625c13.145 8.352 33.624 3.192 45.572-15.609 11.126-17.506 8.786-38.987-5.215-47.887-13.129-8.34-33.61-3.213-45.572 15.608-5.18 8.15-7.661 17.428-6.987 26.125.725 9.363 5.173 17.295 12.202 21.763zm20.771-51.272c3.809-1.439 8.116-1.742 11.539.437 6.902 4.387 7.178 16.834.602 27.182-9.823 15.458-28.844 17.702-30.159.732-.91-11.728 7.758-24.476 18.018-28.351z"/><path d="m178.38 331.737c-5.18-8.149-12.526-14.336-20.687-17.418-8.783-3.317-17.854-2.658-24.886 1.81-14.001 8.899-16.341 30.381-5.215 47.887 7.041 11.079 18.962 19.507 31.757 19.507 23.536 0 34.331-27.711 19.031-51.786zm-7.967 24.966c-1.32 17.043-20.375 14.665-30.159-.732-6.576-10.348-6.301-22.795.602-27.182 3.418-2.174 7.719-1.88 11.539-.437 5.068 1.914 9.926 6.081 13.326 11.431v.001c3.401 5.35 5.111 11.517 4.692 16.919z"/></g></svg>