<svg id="Capa_1" enable-background="new 0 0 512 512" height="512" viewBox="0 0 512 512" width="512" xmlns="http://www.w3.org/2000/svg"><g><g><g><g><path d="m256 504.5c-20.002 0-36.217-16.215-36.217-36.217v-8.048c0-20.002 16.215-36.217 36.217-36.217 20.002 0 36.217 16.215 36.217 36.217v8.048c0 20.002-16.215 36.217-36.217 36.217z" fill="#fd7a6e"/><path d="m184.598 295.276c8.591-48.724-40.838-139.181-40.838-139.181s-77.387 68.096-85.978 116.819 14.837 81.863 49.856 88.038c35.019 6.176 68.369-16.952 76.96-65.676z" fill="#fdc072"/><path d="m327.402 295.276c-8.591-48.724 40.838-139.181 40.838-139.181s77.387 68.096 85.978 116.819-14.837 81.863-49.856 88.038c-35.019 6.176-68.369-16.952-76.96-65.676z" fill="#fdcb89"/><g><path d="m385.93 341.26c12.68 59.88-3.43 92.49-15.34 107.55-9.22 11.65-20.66 18.25-32.71 21.56 0 0-104.863-35.258-125.302-75.71-32.449-64.222-42.022-200.66 53.122-289.85 75.49 4.73 135.17 64.31 135.17 136.58 0 24.12-5.14 49.56-13.49 74.4-2.76 8.21-3.24 17-1.45 25.47z" fill="#ffd9a0"/><path d="m337.88 470.37c-28.41 7.79-60.22-2.69-74.38-8.44l-7.5-13.31-7.5 13.31c-20.17 8.19-76.15 25.99-107.09-13.12-11.91-15.06-28.02-47.67-15.34-107.55 1.79-8.47 1.31-17.26-1.45-25.47-8.35-24.84-13.49-50.28-13.49-74.4 0-75.34 64.86-136.89 144.87-136.89 3.26 0 6.5.1 9.7.31-70.76 139.04-52.64 230.54-11.9 289.85 3.11 4.53 6.35 8.88 9.7 13.04 23.15 28.81 51.21 48.94 74.38 62.67z" fill="#fdcb89"/><g fill="#ffd9a0"><path d="m242.86 464.1c.82-.3 1.61-.6 2.37-.88-.75.29-1.54.58-2.37.88z"/><path d="m266.77 463.22c.76.28 1.55.58 2.37.88-.83-.3-1.62-.59-2.37-.88z"/></g></g><path d="m208.657 378.701c0 22.225 21.196 48.29 47.343 48.29s47.343-26.065 47.343-48.29-21.196-32.193-47.343-32.193-47.343 9.968-47.343 32.193z" fill="#e4996d"/></g><g><g><g><g><ellipse cx="176.443" cy="341.063" fill="#ffa1ac" rx="29.355" ry="23.377"/></g><g><ellipse cx="335.557" cy="341.063" fill="#ffa1ac" rx="29.355" ry="23.377"/></g></g></g></g></g><g><circle cx="77.972" cy="51.782" fill="#fff1cf" r="20"/><circle cx="61" cy="401.6" fill="#fff1cf" r="20"/><circle cx="451" cy="290" fill="#fff8e6" r="20"/><circle cx="423.953" cy="51.782" fill="#fff8e6" r="25"/><circle cx="63.792" cy="257.239" fill="#fff1cf" r="15"/><circle cx="193.021" cy="22.5" fill="#fff1cf" r="15"/><circle cx="248.017" cy="262.014" fill="#fff8e6" r="15"/><g><path d="m454.12 187.97c-3.45 20.81-24.94 30.51-40.43 30.19-3.04-.03-5.59 2.23-5.99 5.25-7.2 47.74-72.8 44.97-79.28.2-.55-3.97-4.76-6.37-8.39-4.67-5.79 2.7-12.24 4.21-19.04 4.21-16.38 0-30.71-8.75-38.58-21.82-2.02-3.36-6.73-3.87-9.42-1.02-3.72 3.95-8.1 7.3-12.94 9.88-22.873-6.152-57.949-18.11-62.029-28.5-15.7-39.95 27.777-86.041 64.569-123.87 4.26-1.19 8.76-1.82 13.4-1.82 6.86 0 13.39 1.38 19.34 3.88 2.99 1.25 6.48-.05 7.77-3.02 18.95-43.42 80.45-23.22 76.59 18.92-.21 2.9 1.58 5.53 4.37 6.33 9.17 2.61 17.78 7.63 24.81 15.06 9.48 10 14.47 22.62 15.03 35.39.15 3.39 3.04 6.06 6.42 5.75 23.59-2.16 49.2 17.13 43.8 49.66z" fill="#fff8e6"/><path d="m223.75 181.69c4.08 10.39 9.58 19.91 16.3 28.5-6.99 3.71-14.97 5.81-23.43 5.81-6.71 0-13.1-1.32-18.95-3.72-3.02-1.23-6.45.17-7.76 3.16-4.77 10.87-13.8 19.85-25.83 24.22-23.35 8.51-49.18-3.54-57.68-26.89-2.5-6.89-3.22-13.99-2.39-20.8.32-2.67-1.16-5.18-3.62-6.27-40.46-16.94-26.29-84.76 23.49-75.93 2.9.53 5.69-1.19 6.7-3.97 6.95-19.24 25.38-33 47.03-33 10.21 0 19.71 3.07 27.62 8.32 2.84 1.89 6.64 1.08 8.47-1.8 6.54-10.37 16.79-18.15 28.89-21.5-26.13 39.11-34.54 83.92-18.84 123.87z" fill="#fff1cf"/></g></g></g><g><path d="m186.051 306.56v12c0 4.143 3.357 7.5 7.5 7.5s7.5-3.357 7.5-7.5v-12c0-4.143-3.357-7.5-7.5-7.5s-7.5 3.357-7.5 7.5z"/><path d="m310.948 306.56v12c0 4.143 3.357 7.5 7.5 7.5s7.5-3.357 7.5-7.5v-12c0-4.143-3.357-7.5-7.5-7.5s-7.5 3.357-7.5 7.5z"/><path d="m77.972 79.282c15.163 0 27.5-12.337 27.5-27.5s-12.337-27.5-27.5-27.5-27.5 12.337-27.5 27.5 12.337 27.5 27.5 27.5zm0-40c6.893 0 12.5 5.607 12.5 12.5s-5.607 12.5-12.5 12.5-12.5-5.607-12.5-12.5 5.607-12.5 12.5-12.5z"/><path d="m61 374.101c-15.163 0-27.5 12.337-27.5 27.5s12.337 27.5 27.5 27.5 27.5-12.337 27.5-27.5-12.337-27.5-27.5-27.5zm0 40c-6.893 0-12.5-5.607-12.5-12.5s5.607-12.5 12.5-12.5 12.5 5.607 12.5 12.5-5.607 12.5-12.5 12.5z"/><path d="m478.5 290c0-12.088-7.84-22.379-18.702-26.057-3.74-12.808-11.407-27.416-22.87-43.575 12.168-5.932 22.183-16.651 24.59-31.17 2.752-16.579-1.449-31.862-11.831-43.033-9.804-10.549-24.047-16.246-38.378-15.447-.466-6.887-2.053-13.59-4.727-19.945-1.605-3.819-6.006-5.61-9.82-4.006-3.818 1.605-5.612 6.002-4.007 9.82 2.178 5.178 3.406 10.661 3.651 16.303.164 3.705 1.854 7.224 4.64 9.653 2.773 2.422 6.309 3.57 9.957 3.235 10.158-.933 20.758 3.133 27.696 10.599 5.056 5.44 10.551 15.124 8.021 30.366-2.803 16.909-20.944 24.193-32.955 23.917h-.136c-6.713 0-12.427 4.994-13.354 11.682-3.183 20.943-19.059 28.366-31.739 28.366h-.097c-14.202-.042-29.789-8.77-32.592-28.126-.589-4.254-3.191-8.016-6.962-10.064-3.774-2.05-8.163-2.185-12.025-.375-4.992 2.328-10.332 3.508-15.871 3.508-13.276 0-25.297-6.8-32.152-18.186-2.184-3.63-5.858-5.975-10.084-6.431-4.212-.454-8.312 1.048-11.22 4.13-8.11 8.6-19.09 13.336-30.914 13.336-5.576 0-10.994-1.062-16.12-3.165-6.823-2.783-14.499.335-17.457 7.091-4.164 9.487-11.808 16.656-21.531 20.188-9.41 3.429-19.591 2.986-28.671-1.248-9.079-4.234-15.967-11.749-19.391-21.154-2.04-5.624-2.712-11.456-1.994-17.348.713-5.942-2.514-11.577-8.028-14.021-.047-.021-.094-.041-.142-.061-17.049-7.139-21.681-25.454-17.445-39.858 3.822-12.996 15.471-25.544 36.69-21.776 6.462 1.181 12.818-2.513 15.103-8.8 6.061-16.777 22.127-28.048 39.977-28.048 8.388 0 16.505 2.444 23.465 7.064 3.064 2.039 6.729 2.744 10.318 1.982 3.593-.761 6.66-2.894 8.648-6.023 7.836-12.412 21.274-19.823 35.949-19.823 5.702 0 11.231 1.108 16.447 3.3 6.774 2.83 14.645-.285 17.536-6.939 8.149-18.671 24.493-21.873 37.074-18.641 18.981 4.876 26.355 20.979 25.174 33.877-.004.047-.008.095-.012.142-.471 6.503 3.551 12.293 9.783 14.082 3.802 1.089 7.41 2.616 10.726 4.538 3.584 2.077 8.173.858 10.25-2.727 2.078-3.584.856-8.173-2.727-10.25-4.05-2.348-8.413-4.244-12.985-5.646 1.795-26.445-17.505-43.672-36.478-48.545-10.465-2.688-21.371-1.893-30.709 2.239-10.069 4.456-18.06 12.554-23.19 23.485-6.652-2.599-13.673-3.916-20.89-3.916-19.369 0-37.146 9.542-47.832 25.583-9.156-5.751-19.686-8.783-30.548-8.783-23.77 0-45.199 14.776-53.683 36.874-28.326-4.418-46.74 13.015-52.476 32.518-3.223 10.96-2.754 22.649 1.321 32.914 4.429 11.154 12.6 19.624 23.671 24.559-.049.484-.091.968-.126 1.451-12.801 14.691-23.113 28.515-30.731 41.195-.592-.047-1.19-.071-1.793-.071-12.406 0-22.5 10.094-22.5 22.5 0 7.149 3.352 13.531 8.567 17.655-3.571 23.7-.107 45.037 10.08 61.878 10.21 16.882 26.688 28.091 46.404 31.564 2.704.475 5.406.795 8.088.961-3.2 43.175 9.477 69.471 21.096 84.165 14.196 17.945 34.927 27.181 60.596 27.181 5.624 0 11.486-.444 17.566-1.336 4.913 18.873 22.133 32.693 42.311 32.693s37.398-13.821 42.31-32.693c33.839 4.963 60.856-3.968 78.165-25.847 3.005-3.804 5.76-8 8.188-12.473 1.976-3.64.626-8.193-3.015-10.169-3.644-1.978-8.193-.626-10.169 3.015-2.02 3.72-4.298 7.194-6.771 10.323-29.168 36.874-85.536 16.337-101.208 9.633v-19.892c27.179-4.33 47.343-31.526 47.343-55.196 0-24.483-21.015-39.693-54.843-39.693s-54.843 15.21-54.843 39.693c0 12.752 5.926 26.794 15.852 37.562 8.927 9.685 19.9 15.784 31.491 17.632v19.894c-15.681 6.708-72.043 27.238-101.207-9.632-10.594-13.396-22.172-38.409-17.162-81.504.721-6.285 1.823-12.962 3.277-19.843 2.072-9.807 1.492-19.977-1.681-29.416-2.647-7.854-4.945-15.769-6.829-23.524-.977-4.025-5.032-6.496-9.059-5.519-4.024.978-6.495 5.033-5.518 9.058 1.986 8.178 4.405 16.514 7.188 24.771 2.318 6.896 2.741 14.341 1.222 21.529-1.057 4.999-1.941 9.908-2.641 14.66-2.362-.115-4.752-.384-7.15-.804-15.386-2.711-28.229-11.432-36.168-24.555-7.981-13.197-10.87-30.128-8.442-49.277 12.158-.288 21.96-10.268 21.96-22.493 0-6.368-2.659-12.126-6.926-16.223 5.209-8.485 11.728-17.556 19.486-27.123.16.482.327.963.501 1.442 1.35 3.708 3.083 7.206 5.161 10.45-.587 5.155-.884 10.391-.884 15.604 0 5.311.245 10.821.729 16.38.34 3.906 3.614 6.851 7.463 6.851.218 0 .438-.009.658-.028 4.127-.358 7.182-3.995 6.822-8.121-.445-5.129-.672-10.202-.672-15.081 0-.316.001-.632.004-.949 2.464 1.712 5.093 3.225 7.868 4.519 12.712 5.927 26.97 6.549 40.139 1.749 13.156-4.778 23.598-14.317 29.545-26.951 6.521 2.483 13.389 3.742 20.435 3.742 15.099 0 29.719-6.031 40.427-16.612 9.646 14.706 26.302 23.763 43.943 23.763 7.046 0 13.866-1.368 20.313-4.073 4.82 26.788 27.568 39.073 47.093 39.131h.142c8.063 0 16.456-2.043 23.895-6.324-1.717 16.959-5.787 35.053-12.162 54.017-3.171 9.434-3.751 19.604-1.679 29.41 1.454 6.881 2.557 13.558 3.278 19.855 1.691 14.54 1.573 28.101-.349 40.307-.645 4.092 2.149 7.931 6.241 8.575.396.062.788.093 1.176.093 3.628 0 6.817-2.638 7.399-6.334 1.756-11.149 2.166-23.231 1.228-36.008 2.684-.166 5.389-.487 8.096-.962 27.672-4.872 47.972-24.393 55.069-52.615 10.377-3.94 17.771-13.985 17.771-25.724zm-262.343 88.701c0-22.913 30.496-24.693 39.843-24.693s39.843 1.78 39.843 24.693c0 18.361-18.385 40.79-39.843 40.79s-39.843-22.429-39.843-40.79zm39.843 88.197c4.964 2.218 14.986 6.318 27.562 9.467-3.504 11.964-14.604 20.635-27.562 20.635s-24.058-8.671-27.562-20.635c12.576-3.149 22.598-7.249 27.562-9.467zm-192.208-202.159c-4.136 0-7.5-3.364-7.5-7.5s3.364-7.5 7.5-7.5 7.5 3.364 7.5 7.5-3.364 7.5-7.5 7.5zm339.272 88.824c-2.402.421-4.794.689-7.156.804-.7-4.754-1.584-9.661-2.64-14.659-1.52-7.188-1.097-14.633 1.222-21.529 8.89-26.448 13.551-51.451 13.864-74.36 3.089-5.099 5.386-11.134 6.58-18.154 2.281-.023 4.592-.215 6.904-.57 10.598 14.362 17.973 27.207 22.022 38.344-11.713 3.152-20.36 13.865-20.36 26.56 0 13.031 9.111 23.974 21.296 26.794-6.591 19.744-21.711 33.245-41.732 36.77zm47.936-51.063c-6.893 0-12.5-5.607-12.5-12.5s5.607-12.5 12.5-12.5 12.5 5.607 12.5 12.5-5.607 12.5-12.5 12.5z"/><path d="m423.952 84.282c17.921 0 32.5-14.579 32.5-32.5s-14.579-32.5-32.5-32.5-32.5 14.579-32.5 32.5 14.579 32.5 32.5 32.5zm0-50c9.649 0 17.5 7.851 17.5 17.5s-7.851 17.5-17.5 17.5-17.5-7.851-17.5-17.5 7.851-17.5 17.5-17.5z"/><path d="m193.021 45c12.406 0 22.5-10.094 22.5-22.5s-10.093-22.5-22.5-22.5-22.5 10.094-22.5 22.5 10.094 22.5 22.5 22.5zm0-30c4.136 0 7.5 3.364 7.5 7.5s-3.364 7.5-7.5 7.5-7.5-3.364-7.5-7.5 3.365-7.5 7.5-7.5z"/><path d="m225.517 262.015c0 12.406 10.094 22.5 22.5 22.5s22.5-10.094 22.5-22.5-10.094-22.5-22.5-22.5-22.5 10.093-22.5 22.5zm30 0c0 4.136-3.364 7.5-7.5 7.5s-7.5-3.364-7.5-7.5 3.364-7.5 7.5-7.5 7.5 3.364 7.5 7.5z"/></g></g></svg>