<?xml version="1.0" encoding="iso-8859-1"?>
<!-- Generator: Adobe Illustrator 19.0.0, SVG Export Plug-In . SVG Version: 6.00 Build 0)  -->
<svg version="1.1" id="Layer_1" xmlns="http://www.w3.org/2000/svg" xmlns:xlink="http://www.w3.org/1999/xlink" x="0px" y="0px"
	 viewBox="0 0 512 512" style="enable-background:new 0 0 512 512;" xml:space="preserve">
<g>
	<path style="fill:#91DC5A;" d="M385.398,477.728c-8.536-10.138-13.686-23.22-13.686-37.51c0-32.19,26.095-58.285,58.284-58.285
		c29.393,0,53.692,21.762,57.694,50.051c9.982,5.499,16.748,16.119,16.748,28.321c0,6.419-1.879,12.394-5.105,17.423
		L385.398,477.728L385.398,477.728z"/>
	<path style="fill:#91DC5A;" d="M126.6,477.728c8.536-10.138,13.686-23.22,13.686-37.51c0-32.19-26.095-58.285-58.284-58.285
		c-29.393,0-53.692,21.762-57.694,50.051c-9.982,5.499-16.748,16.119-16.748,28.322c0,6.419,1.879,12.394,5.105,17.423
		L126.6,477.728L126.6,477.728z"/>
</g>
<g>
	<path style="fill:#6DC82A;" d="M82.003,381.935c-8.412,0-16.403,1.789-23.625,4.997v75.793c0,5.365,1.212,10.45,3.369,15.004
		h64.853c8.536-10.138,13.686-23.22,13.686-37.51C140.288,408.03,114.193,381.935,82.003,381.935z"/>
	<path style="fill:#6DC82A;" d="M429.996,381.935c8.412,0,16.403,1.789,23.625,4.997v75.793c0,5.365-1.212,10.45-3.369,15.004
		h-64.853c-8.536-10.138-13.686-23.22-13.686-37.51C371.712,408.03,397.807,381.935,429.996,381.935z"/>
</g>
<path style="fill:#FFDAAA;" d="M418.455,233.644H96.449c-8.252,0-15.004,6.752-15.004,15.004v214.077
	c0,8.252,6.751,15.004,15.004,15.004h322.007c8.252,0,15.004-6.752,15.004-15.004V248.647
	C433.459,240.396,426.708,233.644,418.455,233.644z"/>
<g>
	<path style="fill:#FFC477;" d="M433.459,288.61v-39.962c0-8.252-6.751-15.004-15.004-15.004H96.449
		c-8.252,0-15.004,6.751-15.004,15.004V288.6c1.939,0.251,19.75,0.391,34.266-9.561c7.783,6.22,17.636,9.952,28.351,9.952
		c10.718,0,20.576-3.734,28.359-9.958c7.784,6.224,17.641,9.958,28.359,9.958s20.576-3.734,28.359-9.958
		c7.784,6.224,17.641,9.958,28.359,9.958s20.576-3.734,28.359-9.958c7.784,6.224,17.641,9.958,28.359,9.958
		c10.718,0,20.576-3.734,28.359-9.958c7.784,6.224,17.641,9.958,28.359,9.958c10.714,0,20.568-3.732,28.35-9.952
		C410.685,288.992,431.55,288.854,433.459,288.61z"/>
	<path style="fill:#FFC477;" d="M213.561,437.487h-41.497c-3.327,0-6.049,2.722-6.049,6.049v14.142c0,3.327,2.722,6.049,6.049,6.049
		h41.497c3.327,0,6.049-2.722,6.049-6.049v-14.142C219.61,440.209,216.888,437.487,213.561,437.487z"/>
</g>
<path style="fill:#FFB655;" d="M337.167,424.367h-41.497c-3.327,0-6.049,2.722-6.049,6.049v14.142c0,3.327,2.722,6.049,6.049,6.049
	h41.497c3.327,0,6.049-2.722,6.049-6.049v-14.142C343.216,427.09,340.494,424.367,337.167,424.367z"/>
<path style="fill:#FFC477;" d="M358.405,450.607h-41.497c-3.327,0-6.049,2.722-6.049,6.049v14.142c0,3.327,2.722,6.049,6.049,6.049
	h41.497c3.327,0,6.049-2.722,6.049-6.049v-14.142C364.454,453.329,361.732,450.607,358.405,450.607z"/>
<path style="fill:#FFB655;" d="M102.193,424.367H81.445v26.239h20.749c3.327,0,6.049-2.722,6.049-6.049v-14.142
	C108.242,427.09,105.52,424.367,102.193,424.367z"/>
<path style="fill:#FFC477;" d="M416.734,109.616h-65.202c-9.602-43.113-48.074-75.345-94.08-75.345s-84.478,32.232-94.08,75.345
	H98.171c-3.327,0-6.049,2.722-6.049,6.049v61.57c0,3.327,2.722,6.049,6.049,6.049h318.563c3.327,0,6.049-2.722,6.049-6.049v-61.57
	C422.782,112.338,420.06,109.616,416.734,109.616z"/>
<g>
	<path style="fill:#FFA733;" d="M271.075,35.243c-4.452-0.63-8.996-0.971-13.623-0.971c-46.006,0-84.478,32.232-94.08,75.345h27.245
		C199.254,70.839,231.251,40.879,271.075,35.243z"/>
	<path style="fill:#FFA733;" d="M119.367,177.236v-61.57c0-3.327,2.722-6.049,6.049-6.049H98.171c-3.327,0-6.049,2.722-6.049,6.049
		v61.57c0,3.327,2.722,6.049,6.049,6.049h27.245C122.089,183.285,119.367,180.562,119.367,177.236z"/>
</g>
<path style="fill:#EE8700;" d="M422.782,161.558H92.122c-4.176,0-7.561-3.384-7.561-7.561s3.385-7.561,7.561-7.561h330.66
	c4.176,0,7.561,3.384,7.561,7.561S426.958,161.558,422.782,161.558z"/>
<g>
	<path style="fill:#FF728B;" d="M200.779,271.853c15.662,0,28.359-12.697,28.359-28.359h-56.719
		C172.42,259.157,185.117,271.853,200.779,271.853z"/>
	<path style="fill:#FF728B;" d="M314.217,271.853c15.662,0,28.359-12.697,28.359-28.359h-56.718
		C285.858,259.157,298.555,271.853,314.217,271.853z"/>
	<path style="fill:#FF728B;" d="M452.693,256.633c5.431-10.176,0-22.989,0-22.989l-20.916-64.098
		c-1.553-4.742-5.978-7.947-10.967-7.947H94.187c-4.989,0-9.414,3.206-10.967,7.947l-22.183,67.683
		c-1.217,4.529-2.478,12.56,1.174,19.404l0,0c4.739,9.046,14.211,15.22,25.131,15.22c15.662,0,28.359-12.697,28.359-28.359h56.718
		h56.719h56.718h56.718h56.719c0,15.663,12.697,28.359,28.359,28.359c10.909,0,20.373-6.163,25.117-15.193
		C452.726,256.641,452.695,256.63,452.693,256.633z"/>
</g>
<g>
	<path style="fill:#FFFFFF;" d="M136.479,161.599l-20.777,81.895c0,15.663,12.697,28.359,28.359,28.359s28.359-12.697,28.359-28.359
		l12.448-81.895L136.479,161.599L136.479,161.599z"/>
	<path style="fill:#FFFFFF;" d="M378.518,161.599h-48.389l12.448,81.895c0,15.663,12.697,28.359,28.359,28.359
		c15.662,0,28.359-12.697,28.359-28.359L378.518,161.599z"/>
	<path style="fill:#FFFFFF;" d="M279.723,161.599h-44.45l-6.134,81.895c0,15.663,12.697,28.359,28.359,28.359
		s28.359-12.697,28.359-28.359L279.723,161.599z"/>
</g>
<path style="fill:#FF3F62;" d="M89.457,256.633c-3.652-6.844-2.392-14.875-1.174-19.404l22.183-67.682
	c1.553-4.741,5.978-7.947,10.967-7.947H94.187c-4.989,0-9.414,3.206-10.967,7.947l-22.183,67.682
	c-1.217,4.529-2.478,12.56,1.174,19.404c4.739,9.046,14.211,15.22,25.131,15.22c4.943,0,9.588-1.267,13.635-3.49
	C96.078,265.674,92.054,261.589,89.457,256.633z"/>
<path style="fill:#D1E7F8;" d="M140.612,243.494l20.777-81.895h-24.91l-20.777,81.895c0,15.663,12.697,28.359,28.359,28.359
	c4.469,0,8.695-1.037,12.455-2.879C147.098,264.363,140.612,254.687,140.612,243.494z"/>
<path style="fill:#FF3F62;" d="M196.283,243.494l10.764-81.895h-22.178l-12.448,81.895c0,15.663,12.697,28.359,28.359,28.359
	c4.328,0,8.428-0.974,12.097-2.707C195.453,261.317,196.283,243.494,196.283,243.494z"/>
<path style="fill:#D1E7F8;" d="M257.452,161.599h-22.178l-6.134,81.895c0,15.663,12.697,28.359,28.359,28.359
	c4.557,0,8.858-1.081,12.673-2.99l0,0c-18.028-1.306-15.744-24.4-15.744-24.4L257.452,161.599z"/>
<path style="fill:#FF3F62;" d="M312.397,243.494l-10.219-81.895h-22.452l6.134,81.895c0,15.663,12.697,28.359,28.359,28.359
	c5.897,0,11.372-1.801,15.91-4.881C314.599,267.3,312.397,243.494,312.397,243.494z"/>
<path style="fill:#D1E7F8;" d="M342.577,243.494c0,15.663,12.697,28.359,28.359,28.359c8.909,0,16.854-4.111,22.052-10.536l0,0
	c-16.688,5.766-24.19-17.823-24.19-17.823l-14.545-81.895h-24.125L342.577,243.494z"/>
<path style="fill:#FF3F62;" d="M399.296,243.494c0,15.663,12.697,28.359,28.359,28.359c7.485,0,14.29-2.902,19.357-7.641
	c-15.588,2.61-20.197-20.718-20.197-20.718l-24.195-81.895h-24.102L399.296,243.494L399.296,243.494z"/>
<path style="fill:#FFFFFF;" d="M281.632,105.468c0,0-5.444-3.2-8.099-11.666c-2.18-6.952-8.347-12.248-16.005-12.248
	c-7.658,0-14.273,5.363-16.005,12.248c-2.129,8.467-6.963,10.953-6.963,10.953c-4.976,2.862-8.33,8.227-8.33,14.38
	c0,9.157,7.424,16.58,16.58,16.58c4.478,0,6.323-1.137,7.989-2.052c7.295-4.005,13.732,0.149,13.732,0.149
	c2.304,1.214,4.927,1.902,7.713,1.902c9.157,0,16.58-7.424,16.58-16.58C288.826,113.463,285.976,108.458,281.632,105.468z"/>
<path style="fill:#D1E7F8;" d="M169.147,415.337h-59.245c-3.327,0-6.049-2.722-6.049-6.049V298.354c0-3.327,2.722-6.049,6.049-6.049
	h59.245c3.327,0,6.049,2.722,6.049,6.049v110.933C175.195,412.615,172.474,415.337,169.147,415.337z"/>
<path style="fill:#B9D8F4;" d="M126.896,409.289V298.354c0-3.327,2.722-6.049,6.049-6.049h-23.042c-3.327,0-6.049,2.722-6.049,6.049
	v110.933c0,3.327,2.722,6.049,6.049,6.049h23.042C129.618,415.337,126.896,412.615,126.896,409.289z"/>
<path style="fill:#D1E7F8;" d="M405.001,415.337h-59.245c-3.327,0-6.049-2.722-6.049-6.049V298.354c0-3.327,2.722-6.049,6.049-6.049
	h59.245c3.327,0,6.049,2.722,6.049,6.049v110.933C411.05,412.615,408.328,415.337,405.001,415.337z"/>
<path style="fill:#B9D8F4;" d="M362.75,409.289V298.354c0-3.327,2.722-6.049,6.049-6.049h-23.042c-3.327,0-6.049,2.722-6.049,6.049
	v110.933c0,3.327,2.722,6.049,6.049,6.049h23.042C365.472,415.337,362.75,412.615,362.75,409.289z"/>
<polygon style="fill:#FFFFFF;" points="175.195,351.848 175.195,305.448 126.896,339.943 126.896,386.341 "/>
<polygon style="fill:#D1E7F8;" points="126.896,339.943 103.853,356.399 103.853,402.797 126.896,386.341 "/>
<polygon style="fill:#FFFFFF;" points="411.05,351.848 411.05,305.448 362.75,339.943 362.75,386.341 "/>
<polygon style="fill:#D1E7F8;" points="362.75,339.943 339.709,356.399 339.709,402.797 362.75,386.341 "/>
<path style="fill:#A4E276;" d="M301.416,292.306h-87.927c-8.252,0-15.004,6.751-15.004,15.004v170.418H316.42V307.31
	C316.42,299.058,309.667,292.306,301.416,292.306z"/>
<path style="fill:#7ED63E;" d="M240.734,292.306h-27.245c-8.252,0-15.004,6.751-15.004,15.004v170.418h27.245V307.31
	C225.73,299.058,232.481,292.306,240.734,292.306z"/>
<path style="fill:#D1E7F8;" d="M296.126,381.555h-77.349c-3.327,0-6.049-2.722-6.049-6.049v-63.696c0-3.327,2.722-6.049,6.049-6.049
	h77.349c3.327,0,6.049,2.722,6.049,6.049v63.696C302.175,378.833,299.453,381.555,296.126,381.555z"/>
<path style="fill:#B9D8F4;" d="M234.235,375.506v-63.696c0-3.327,2.722-6.049,6.049-6.049h-21.506c-3.327,0-6.049,2.722-6.049,6.049
	v63.696c0,3.327,2.722,6.049,6.049,6.049h21.506C236.957,381.555,234.235,378.833,234.235,375.506z"/>
<path style="fill:#5EAC24;" d="M292.258,422.898c1.986,0,3.942-0.806,5.343-2.218c1.411-1.401,2.218-3.347,2.218-5.343
	c0-1.996-0.806-3.942-2.218-5.343c-1.401-1.411-3.357-2.218-5.343-2.218c-1.986,0-3.942,0.806-5.343,2.218
	c-1.411,1.401-2.218,3.357-2.218,5.343c0,1.986,0.806,3.942,2.218,5.343C288.316,422.091,290.272,422.898,292.258,422.898z"/>
<path d="M109.903,422.898h59.245c7.504,0,13.609-6.105,13.609-13.609V298.354c0-7.504-6.105-13.609-13.609-13.609h-59.245
	c-7.504,0-13.609,6.105-13.609,13.609v110.934C96.294,416.793,102.399,422.898,109.903,422.898z M111.415,299.866h56.22v107.91
	h-56.22V299.866z"/>
<path d="M405.001,422.898c7.504,0,13.609-6.105,13.609-13.609V298.354c0-7.504-6.105-13.609-13.609-13.609h-59.245
	c-7.504,0-13.609,6.105-13.609,13.609v110.934c0,7.504,6.105,13.609,13.609,13.609H405.001z M347.27,299.866h56.22v107.91h-56.22
	V299.866z"/>
<path d="M296.126,305.761h-77.349c-3.327,0-6.049,2.722-6.049,6.049v63.696c0,3.327,2.722,6.049,6.049,6.049h77.349
	c3.327,0,6.049-2.722,6.049-6.049v-63.696C302.175,308.483,299.453,305.761,296.126,305.761z M287.053,366.433H227.85v-45.55h59.203
	V366.433z"/>
<path d="M81.445,340.818c4.176,0,7.561-3.384,7.561-7.561v-16.806c0-4.177-3.385-7.561-7.561-7.561s-7.561,3.384-7.561,7.561v16.806
	C73.884,337.434,77.269,340.818,81.445,340.818z"/>
<path d="M494.569,427.346c-5.311-26.734-26.87-47.499-53.549-52.034v-98.487c7.796-3.121,14.387-8.924,18.444-16.651
	c0.199-0.377,0.363-0.768,0.493-1.167c5.677-12.044,0.916-25.288-0.164-27.975l-20.833-63.84c-1.507-4.6-4.633-8.307-8.619-10.601
	v-40.926c0-7.504-6.105-13.609-13.609-13.609h-59.327c-5.833-20.357-17.929-38.702-34.499-52.149
	c-18.43-14.958-41.676-23.196-65.456-23.196c-23.779,0-47.025,8.237-65.456,23.196c-16.57,13.447-28.666,31.791-34.499,52.149
	H98.169c-7.504,0-13.609,6.105-13.609,13.609v40.979c-3.942,2.298-7.031,5.984-8.527,10.548c0,0-22.265,67.943-22.301,68.075
	c-1.438,5.351-3.114,15.703,1.779,24.875c4.042,7.714,10.603,13.514,18.371,16.648v16.142c0,4.177,3.385,7.561,7.561,7.561
	s7.561-3.384,7.561-7.561v-13.567c10.835-0.497,20.436-5.807,26.696-13.848c6.578,8.452,16.845,13.898,28.359,13.898
	s21.781-5.446,28.359-13.898c6.578,8.452,16.845,13.898,28.359,13.898c11.515,0,21.781-5.446,28.359-13.898
	c6.578,8.452,16.845,13.898,28.359,13.898c11.515,0,21.781-5.446,28.359-13.898c6.578,8.452,16.844,13.898,28.359,13.898
	c11.515,0,21.781-5.446,28.359-13.898c6.578,8.452,16.845,13.898,28.359,13.898c11.515,0,21.781-5.446,28.359-13.898
	c6.241,8.02,15.805,13.323,26.603,13.846v183.362c0,4.104-3.339,7.443-7.443,7.443h-94.475V307.31
	c0-12.443-10.122-22.566-22.565-22.566h-87.927c-12.442,0-22.565,10.122-22.565,22.566v162.857h-94.47
	c-4.104,0-7.443-3.339-7.443-7.443V357.117c0-4.177-3.385-7.561-7.561-7.561s-7.561,3.384-7.561,7.561v17.754
	c-28.112,3.447-50.94,24.544-56.455,52.477C6.592,434.733,0,447.043,0,460.306c0,7.643,2.18,15.08,6.303,21.506
	c1.39,2.166,3.788,3.477,6.363,3.477h486.668c2.575,0,4.973-1.311,6.363-3.477c4.123-6.426,6.303-13.863,6.303-21.506
	C512,447.042,505.406,434.731,494.569,427.346z M15.122,460.306c0-9.023,4.918-17.337,12.834-21.698
	c2.084-1.148,3.506-3.209,3.839-5.564c3.145-22.237,20.391-39.42,42.089-42.897v72.577c0,2.607,0.45,5.111,1.267,7.443H17.171
	C15.823,467.072,15.122,463.723,15.122,460.306z M206.046,470.167V307.31c0-4.104,3.339-7.444,7.443-7.444h87.927
	c4.104,0,7.443,3.34,7.443,7.444v162.857H206.046z M163.372,117.177c3.542,0,6.61-2.459,7.38-5.917
	c8.96-40.229,45.422-69.428,86.699-69.428s77.739,29.199,86.699,69.428c0.77,3.458,3.838,5.917,7.38,5.917h63.689v36.861H99.683
	v-36.861C99.683,117.177,163.372,117.177,163.372,117.177z M87.343,264.292c-24.899-0.257-19.903-21.675-19.054-24.915L90.405,171.9
	c0.537-1.639,2.057-2.741,3.781-2.741h32.574l-17.757,69.987c-0.107,0.421-0.863,3.248-0.863,4.348
	C108.141,254.962,98.81,264.41,87.343,264.292z M144.061,264.292c-11.314,0-20.53-9.086-20.775-20.342
	c0.147-0.349,19.076-74.791,19.076-74.791h33.71c0,0-11.211,74.279-11.211,74.334C164.859,254.962,155.529,264.292,144.061,264.292z
	 M200.78,264.292c-11.323,0-20.545-9.1-20.777-20.369l11.363-74.763h35.759c0,0-5.548,74.238-5.548,74.334
	C221.578,254.962,212.249,264.292,200.78,264.292z M314.217,264.292c-11.468,0-20.798-9.33-20.798-20.798
	c0-0.097-1.869-25.247-1.869-25.247c-0.313-4.165-3.937-7.288-8.104-6.976c-4.164,0.313-7.287,3.941-6.975,8.104l1.819,24.286
	c-0.092,11.391-9.378,20.63-20.79,20.63c-11.412,0-20.699-9.239-20.79-20.63l5.581-74.503h30.421l1.381,18.441
	c0.297,3.971,3.612,6.995,7.532,6.995c0.19,0,0.38-0.007,0.573-0.021c4.165-0.313,7.288-3.941,6.975-8.105l-1.296-17.311h35.756
	l11.363,74.761C334.763,255.191,325.541,264.292,314.217,264.292z M370.936,264.292c-11.468,0-20.798-9.33-20.798-20.798
	c0-0.052-11.211-74.334-11.211-74.334h33.711l19.057,75.121C391.277,255.383,382.138,264.292,370.936,264.292z M406.856,243.495
	c0-0.047-0.22-1.813-0.232-1.861l-18.386-72.475h32.572c1.725,0,3.245,1.102,3.779,2.733c0,0,21.058,64.502,21.143,64.702
	c0.04,0.095,8.026,27.442-18.077,27.699C416.188,264.405,406.857,254.963,406.856,243.495z M494.829,470.167h-55.075
	c0.818-2.332,1.267-4.835,1.267-7.443v-72.01c20.264,4.523,36.208,21.292,39.184,42.331c0.334,2.355,1.755,4.416,3.839,5.564
	c7.917,4.36,12.834,12.675,12.834,21.698C496.878,463.723,496.177,467.072,494.829,470.167z"/>
<path d="M218.669,119.134c0,13.311,10.83,24.141,24.141,24.141c5.741,0,8.902-1.48,11.414-2.867c0,0,1.777-0.852,3.23-0.927
	c1.822-0.095,3.278,0.874,3.554,1.019c3.445,1.816,7.33,2.775,11.236,2.775c13.311,0,24.141-10.83,24.141-24.141
	c0-7.947-3.913-15.385-10.468-19.894c-0.229-0.157-3.286-2.046-5.171-7.7c-3.478-10.434-12.622-17.546-23.219-17.546
	c-10.905,0-20.72,7.555-23.337,17.965c-1.114,4.431-3.086,6.013-3.392,6.238c-0.002,0.002-0.004,0.003-0.007,0.004
	C223.315,102.501,218.669,110.522,218.669,119.134z M238.27,111.344c1.758-0.977,7.915-5.073,10.586-15.697
	c0.937-3.723,4.665-6.532,8.673-6.532c4.567,0,7.705,3.49,8.79,6.95c3.125,9.964,9.418,14.595,11.123,15.698
	c2.396,1.695,3.823,4.441,3.823,7.371c0,4.974-4.047,9.02-9.02,9.02c-1.416,0-2.768-0.318-4.019-0.946
	c-1.398-0.821-5.393-2.849-10.771-2.849c-3.597,0-7.06,0.9-10.292,2.675c0,0-1.244,1.2-4.352,1.119
	c-4.971-0.129-9.02-4.047-9.02-9.02C233.791,115.941,235.506,112.963,238.27,111.344z"/>
<path d="M296.447,96.238c1.986,0,3.942-0.806,5.343-2.218c1.411-1.401,2.218-3.347,2.218-5.343s-0.806-3.942-2.218-5.343
	c-1.401-1.411-3.357-2.218-5.343-2.218c-1.986,0-3.942,0.806-5.343,2.218c-1.411,1.401-2.218,3.357-2.218,5.343
	s0.806,3.942,2.218,5.343C292.505,95.432,294.461,96.238,296.447,96.238z"/>
<path d="M274.049,72.731c1.986,0,3.942-0.806,5.343-2.218c1.411-1.401,2.218-3.347,2.218-5.343c0-1.996-0.806-3.942-2.218-5.343
	c-1.401-1.411-3.357-2.218-5.343-2.218c-1.986,0-3.942,0.806-5.343,2.218c-1.411,1.401-2.218,3.357-2.218,5.343
	s0.806,3.942,2.218,5.343C270.108,71.924,272.064,72.731,274.049,72.731z"/>
<path d="M240.855,72.731c1.986,0,3.942-0.806,5.343-2.218c1.411-1.401,2.218-3.347,2.218-5.343c0-1.996-0.807-3.942-2.218-5.343
	c-1.401-1.411-3.357-2.218-5.343-2.218s-3.942,0.806-5.343,2.218c-1.411,1.401-2.218,3.357-2.218,5.343s0.806,3.942,2.218,5.343
	C236.914,71.924,238.87,72.731,240.855,72.731z"/>
<path d="M218.457,96.238c1.986,0,3.942-0.806,5.343-2.218c1.411-1.401,2.218-3.347,2.218-5.343s-0.806-3.942-2.218-5.343
	c-1.401-1.411-3.357-2.218-5.343-2.218s-3.942,0.806-5.343,2.218c-1.411,1.401-2.218,3.357-2.218,5.343s0.807,3.942,2.218,5.343
	C214.516,95.432,216.471,96.238,218.457,96.238z"/>
<g>
</g>
<g>
</g>
<g>
</g>
<g>
</g>
<g>
</g>
<g>
</g>
<g>
</g>
<g>
</g>
<g>
</g>
<g>
</g>
<g>
</g>
<g>
</g>
<g>
</g>
<g>
</g>
<g>
</g>
</svg>
