<svg id="Capa_1" enable-background="new 0 0 512.004 512.004" height="512" viewBox="0 0 512.004 512.004" width="512" xmlns="http://www.w3.org/2000/svg"><g><g><g><circle cx="256.002" cy="126.025" fill="#c9f6b0" r="118.523"/><path d="m256.002 7.502c-5.08 0-10.086.322-15 .946 58.298 7.395 103.523 57.304 103.523 117.578s-45.225 110.182-103.523 117.577c4.914.623 9.92.946 15 .946 65.354 0 118.523-53.169 118.523-118.523 0-65.355-53.169-118.524-118.523-118.524z" fill="#9be69d"/><g fill="#fff"><g><ellipse cx="227.879" cy="76.577" rx="13.344" ry="18.977" transform="matrix(.992 -.124 .124 .992 -7.742 28.872)"/><ellipse cx="284.126" cy="76.577" rx="18.977" ry="13.344" transform="matrix(.124 -.992 .992 .124 172.88 349.003)"/></g><g><ellipse cx="186.162" cy="118.762" rx="13.344" ry="18.977" transform="matrix(.707 -.707 .707 .707 -29.452 166.421)"/><ellipse cx="325.842" cy="120.112" rx="18.977" ry="13.344" transform="matrix(.707 -.707 .707 .707 10.505 265.585)"/></g><path d="m266.437 187.717c8.881 8.881 23.28 8.881 32.161 0 8.202-8.202 8.917-21.262 1.659-30.31l-19.552-24.375c-12.677-15.804-36.729-15.804-49.405 0l-19.552 24.375c-7.258 9.048-6.543 22.108 1.659 30.31 8.881 8.881 23.28 8.881 32.161 0 5.762-5.763 15.106-5.763 20.869 0z"/></g></g><g><g><g><g><path d="m446.841 444.502v-84.6c.03-.19 1.89-7.33 3.23-10.58l52.17-126.84c3.32-8.06 2.97-17.15-.96-24.93l-75.77-150.18c-3.06-6.05-9.26-9.87-16.04-9.87-10.16 0-17.97 8.31-17.97 17.93 0 1.45.18 2.93.55 4.41l28.54 117.78-33.123 266.88z" fill="#ffcebf"/><path d="m501.281 197.552-75.77-150.18c-3.06-6.05-9.26-9.87-16.04-9.87-6.377 0-11.826 3.276-15.001 8.094.375.57.729 1.158 1.042 1.777l75.77 150.18c3.93 7.78 4.28 16.87.96 24.93l-52.17 126.84c-1.34 3.25-3.2 10.39-3.23 10.58v84.6h30v-84.6c.03-.19 1.89-7.33 3.23-10.58l52.17-126.84c3.319-8.061 2.969-17.151-.961-24.931z" fill="#ffb09e"/><path d="m332.111 444.502v-23.364c0-4.414-.42-8.818-1.254-13.153l-8.306-43.183c-4.85-25.25.55-51.4 15.02-72.67l73.19-107.57c4.776-7.87 15.375-10.585 23.05-5.19 7.241 5.09 9.758 15.248 6 23.65l-10.51 35.09-3.4 11.36c-3.21 10.72-6.42 21.43-9.63 32.14l-24.77 162.89z" fill="#ffcebf"/><path d="m433.811 179.372c-5.898-4.146-13.514-3.488-18.896.604 6.63 5.255 8.841 14.957 5.223 23.046 0 0-17.908 59.797-19.906 66.467-1.811 6.045 2.715 12.123 9.026 12.123 4.162 0 7.831-2.729 9.026-6.716 2.539-8.472 21.527-71.874 21.527-71.874 3.758-8.402 1.241-18.56-6-23.65z" fill="#ffb09e"/></g></g><path d="m320.814 502.002v-77.593c0-11.046 8.954-20 20-20h102.554c11.046 0 20 8.954 20 20v77.593c0 5.523-4.477 10-10 10h-122.554c-5.523 0-10-4.477-10-10z" fill="#c9f6b0"/><path d="m443.368 404.409h-30c11.046 0 20 8.954 20 20v77.593c0 5.523-4.477 10-10 10h30c5.523 0 10-4.477 10-10v-77.593c0-11.046-8.954-20-20-20z" fill="#9be69d"/></g></g><g><g><g><g><path d="m65.163 444.502v-84.6c-.03-.19-1.89-7.33-3.23-10.58l-52.17-126.84c-3.32-8.06-2.97-17.15.96-24.93l75.77-150.18c3.06-6.05 9.26-9.87 16.04-9.87 10.16 0 17.97 8.31 17.97 17.93 0 1.45-.18 2.93-.55 4.41l-28.54 117.78 33.123 266.88z" fill="#ffcebf"/><path d="m10.723 197.552 75.77-150.18c3.06-6.05 9.26-9.87 16.04-9.87 6.377 0 11.826 3.276 15.001 8.094-.375.57-.729 1.158-1.042 1.777l-75.77 150.18c-3.93 7.78-4.28 16.87-.96 24.93l52.17 126.84c1.34 3.25 3.2 10.39 3.23 10.58v84.6h-30v-84.6c-.03-.19-1.89-7.33-3.23-10.58l-52.17-126.84c-3.319-8.061-2.969-17.151.961-24.931z" fill="#ffb09e"/><path d="m179.893 444.502v-23.364c0-4.414.42-8.818 1.253-13.153l8.307-43.183c4.85-25.25-.55-51.4-15.02-72.67l-73.19-107.57c-4.776-7.87-15.375-10.585-23.05-5.19-7.241 5.09-9.758 15.248-6 23.65l10.51 35.09 3.4 11.36c3.21 10.72 6.42 21.43 9.63 32.14l24.77 162.89z" fill="#ffcebf"/><path d="m78.193 179.372c5.898-4.146 13.514-3.488 18.896.604-6.63 5.255-8.841 14.957-5.223 23.046 0 0 17.908 59.797 19.906 66.467 1.811 6.045-2.716 12.123-9.026 12.123-4.162 0-7.831-2.729-9.026-6.716-2.539-8.472-21.527-71.874-21.527-71.874-3.757-8.402-1.241-18.56 6-23.65z" fill="#ffb09e"/></g></g><path d="m191.19 502.002v-77.593c0-11.046-8.954-20-20-20h-102.554c-11.046 0-20 8.954-20 20v77.593c0 5.523 4.477 10 10 10h122.554c5.523 0 10-4.477 10-10z" fill="#c9f6b0"/><path d="m68.636 404.409h30c-11.046 0-20 8.954-20 20v77.593c0 5.523 4.477 10 10 10h-30c-5.523 0-10-4.477-10-10v-77.593c0-11.046 8.954-20 20-20z" fill="#9be69d"/></g></g></g><path d="m250.871 193.021c1.371-1.371 3.193-2.126 5.131-2.126s3.761.755 5.131 2.126c5.896 5.896 13.64 8.843 21.385 8.843 7.744 0 15.488-2.947 21.384-8.843 10.926-10.927 11.874-28.255 2.206-40.307l-19.552-24.376c-7.475-9.316-18.61-14.659-30.555-14.659-11.943 0-23.079 5.344-30.552 14.66l-19.552 24.374c-9.668 12.053-8.72 29.381 2.206 40.308 11.791 11.791 30.977 11.791 42.768 0zm-33.273-30.922 19.552-24.375c4.611-5.748 11.482-9.045 18.852-9.045s14.242 3.297 18.853 9.045l19.552 24.376c4.873 6.074 4.395 14.808-1.112 20.313-5.942 5.944-15.613 5.943-21.554 0-4.204-4.203-9.793-6.519-15.738-6.519s-11.534 2.315-15.738 6.519c-5.942 5.943-15.611 5.943-21.555.001-5.507-5.507-5.985-14.24-1.112-20.315zm13.567-59.249c11.598-1.451 19.24-14.128 17.397-28.859-.819-6.548-3.459-12.564-7.433-16.941-4.567-5.029-10.593-7.486-16.535-6.744-5.942.743-11.178 4.609-14.366 10.608-2.774 5.221-3.851 11.702-3.032 18.251 1.826 14.601 12.126 25.167 23.969 23.685zm-7.692-34.898c.852-1.604 1.966-2.636 2.981-2.763.076-.01.154-.015.234-.015.98 0 2.207.715 3.335 1.958 1.889 2.081 3.221 5.259 3.654 8.719.856 6.846-2.066 11.825-4.375 12.113-2.315.3-6.368-3.816-7.224-10.662-.431-3.46.077-6.868 1.395-9.35zm-18.589 69.533c8.265-8.266 6.516-22.963-3.982-33.461-4.667-4.667-10.444-7.796-16.268-8.811-6.69-1.165-12.958.595-17.193 4.827-4.234 4.234-5.994 10.501-4.828 17.193 1.015 5.824 4.144 11.602 8.81 16.268v.001c9.39 9.389 24.071 13.373 33.461 3.983zm-26.837-26.837c.723-.724 2.225-.969 4.012-.657 2.768.482 5.77 2.173 8.236 4.64 4.878 4.878 5.628 10.603 3.983 12.247-1.644 1.647-7.369.896-12.248-3.982v.001c-2.466-2.467-4.157-5.469-4.64-8.237-.311-1.791-.066-3.29.657-4.012zm278.962 241.527 52.168-126.837c4.151-10.079 3.714-21.439-1.198-31.164l-75.775-150.186c-4.362-8.627-13.073-13.985-22.732-13.985-14.044 0-25.47 11.407-25.47 25.43 0 2.081.261 4.178.761 6.176l26.994 111.412c-2.923 1.918-5.431 4.456-7.296 7.469l-73.09 107.424c-15.475 22.746-21.374 51.287-16.185 78.306l7.262 37.743c-5.604 5.038-9.135 12.337-9.135 20.447v80.093c0 4.143 3.357 7.5 7.5 7.5s7.5-3.357 7.5-7.5v-80.093c0-6.893 5.607-12.5 12.5-12.5h102.555c6.893 0 12.5 5.607 12.5 12.5v80.093c0 4.143 3.357 7.5 7.5 7.5s7.5-3.357 7.5-7.5v-80.093c0-11.264-6.81-20.962-16.526-25.209v-38.365c.532-2.02 1.828-6.626 2.667-8.661zm-13.87-5.711c-1.503 3.645-3.548 11.278-3.704 12.261-.062.39-.093.783-.093 1.178v37.007h-98.528c-1.49 0-2.952.123-4.378.353l-6.518-33.875c-4.442-23.129.608-47.562 13.856-67.036l73.189-107.57c2.657-4.21 8.135-6.368 12.535-3.272 5.003 3.52 5.047 9.673 3.129 15.362l-13.909 46.45c-3.21 10.72-6.42 21.429-9.63 32.138-1.19 3.968 1.062 8.148 5.029 9.338 3.969 1.192 8.148-1.062 9.339-5.029 3.211-10.711 6.421-21.422 9.632-32.145l13.78-46.02c4.899-11.549 1.194-25.38-8.742-32.365-3.561-2.504-7.645-3.906-11.886-4.145l-26.913-111.072c-.216-.863-.325-1.734-.325-2.59 0-5.751 4.696-10.43 10.47-10.43 3.971 0 7.552 2.205 9.344 5.748l75.772 150.183c2.946 5.835 3.209 12.648.718 18.697zm-145.764-250.358c3.975-4.377 6.615-10.394 7.434-16.941s-.258-13.03-3.032-18.251c-3.188-5.999-8.424-9.865-14.364-10.608-5.943-.741-11.969 1.714-16.536 6.744-3.975 4.377-6.615 10.394-7.435 16.941-1.841 14.731 5.801 27.408 17.398 28.859 6.113.765 11.98-1.728 16.535-6.744zm-19.049-20.254c.433-3.46 1.765-6.638 3.653-8.718 1.221-1.344 2.549-2.074 3.57-1.944 1.015.126 2.129 1.159 2.98 2.763 1.318 2.481 1.827 5.89 1.394 9.351-.433 3.46-1.764 6.638-3.652 8.718-1.221 1.345-2.562 2.077-3.569 1.944-2.308-.289-5.231-5.269-4.376-12.114zm-118.452 356.965c-4.142 0-7.5 3.357-7.5 7.5 0 4.142 3.358 7.5 7.5 7.5s7.5-3.358 7.5-7.5c0-4.143-3.358-7.5-7.5-7.5zm164.44-289.157c5.824-1.015 11.602-4.143 16.268-8.809 4.666-4.667 7.795-10.444 8.81-16.269 1.167-6.692-.593-12.959-4.826-17.193-4.235-4.233-10.503-5.993-17.193-4.827-5.824 1.015-11.602 4.144-16.269 8.81-4.666 4.667-7.795 10.444-8.81 16.269-1.166 6.692.594 12.96 4.827 17.193 3.377 3.376 8.047 5.179 13.194 5.179 1.306 0 2.644-.116 3.999-.353zm-6.587-15.433c-.723-.723-.968-2.222-.656-4.011.482-2.769 2.173-5.771 4.64-8.236 2.466-2.467 5.468-4.157 8.235-4.64.511-.089.998-.133 1.45-.133 1.132 0 2.045.272 2.562.79.723.723.969 2.222.656 4.011-.482 2.769-2.173 5.771-4.64 8.236-4.879 4.88-10.601 5.629-12.247 3.983zm64.299-2.201c0-24.43-7.031-48.145-20.334-68.58-2.26-3.471-6.904-4.454-10.377-2.193-3.472 2.259-4.453 6.905-2.193 10.377 11.713 17.994 17.904 38.879 17.904 60.396 0 61.219-49.805 111.023-111.023 111.023s-111.023-49.805-111.023-111.023 49.803-111.024 111.022-111.024c26.104 0 51.483 9.278 71.463 26.125 3.167 2.672 7.898 2.268 10.568-.898 2.671-3.167 2.268-7.898-.898-10.568-22.682-19.125-51.494-29.658-81.133-29.658-69.49 0-126.023 56.534-126.023 126.023s56.534 126.023 126.023 126.023 126.024-56.534 126.024-126.023zm-192.471 277.936 7.262-37.745c5.189-27.017-.71-55.557-16.185-78.304l-14.315-21.039c-2.33-3.426-6.996-4.311-10.42-1.982-3.424 2.331-4.312 6.996-1.981 10.42l14.315 21.039c13.248 19.474 18.298 43.908 13.856 67.034l-6.518 33.877c-1.427-.229-2.889-.353-4.379-.353h-98.528v-37.007c0-.395-.031-.788-.093-1.178-.156-.982-2.201-8.617-3.701-12.255l-52.171-126.843c-2.49-6.045-2.228-12.858.721-18.696l75.767-150.173c1.795-3.55 5.376-5.755 9.347-5.755 5.773 0 10.47 4.679 10.47 10.43 0 .854-.11 1.726-.339 2.645l-26.898 111.016c-4.243.238-8.327 1.641-11.887 4.144-9.937 6.986-13.642 20.817-8.743 32.365l23.412 78.164c1.196 4.014 5.457 6.194 9.337 5.031 3.968-1.189 6.22-5.37 5.031-9.338l-23.54-78.59c-1.924-5.685-2.01-11.75 3.129-15.362 4.021-2.826 9.827-1.187 12.323 2.942.068.112.139.223.213.331l39.25 57.687c2.33 3.426 6.995 4.31 10.42 1.982 3.424-2.33 4.312-6.995 1.981-10.42l-39.149-57.54c-1.865-3.014-4.373-5.552-7.296-7.469l26.981-111.36c.513-2.055.773-4.15.773-6.229 0-14.022-11.426-25.43-25.47-25.43-9.659 0-18.37 5.358-22.735 13.992l-75.767 150.177c-4.915 9.729-5.352 21.09-1.202 31.165l52.172 126.846c.837 2.03 2.132 6.634 2.664 8.653v38.366c-9.717 4.247-16.526 13.945-16.526 25.209v80.093c0 4.143 3.358 7.5 7.5 7.5s7.5-3.357 7.5-7.5v-80.093c0-6.893 5.607-12.5 12.5-12.5h102.554c6.893 0 12.5 5.607 12.5 12.5v80.093c0 4.143 3.358 7.5 7.5 7.5s7.5-3.357 7.5-7.5v-80.093c0-8.11-3.531-15.409-9.135-20.447zm162.576 28.855c-4.142 0-7.5 3.357-7.5 7.5 0 4.142 3.358 7.5 7.5 7.5s7.5-3.358 7.5-7.5c0-4.143-3.358-7.5-7.5-7.5z"/></g></svg>