<svg id="dog-cat" enable-background="new 0 0 300 300" height="512" viewBox="0 0 300 300" width="512" xmlns="http://www.w3.org/2000/svg" xmlns:xlink="http://www.w3.org/1999/xlink"><pattern id="New_Pattern_Swatch_1" height="75" overflow="visible" patternUnits="userSpaceOnUse" viewBox="0 -75 75 75" width="75" x="300"><g><path d="m0-75h75v75h-75z" fill="none"/><path d="m0-75h75v75h-75z" fill="#4c241d"/></g></pattern><pattern id="SVGID_1_" patternTransform="matrix(4.093 0 0 13.092 23318.822 100825.516)" xlink:href="#New_Pattern_Swatch_1"/><pattern id="SVGID_2_" patternTransform="matrix(2.519 0 0 11.078 11734.229 85388.219)" xlink:href="#New_Pattern_Swatch_1"/><pattern id="SVGID_3_" patternTransform="matrix(.71 0 0 3.538 -2907.44 21463.523)" xlink:href="#New_Pattern_Swatch_1"/><pattern id="SVGID_4_" patternTransform="matrix(4.093 0 0 13.092 23318.822 100817.516)" xlink:href="#New_Pattern_Swatch_1"/><pattern id="SVGID_5_" patternTransform="matrix(4.093 0 0 13.092 23290.822 100817.516)" xlink:href="#New_Pattern_Swatch_1"/><g><circle cx="156" cy="131.176" fill="#ffe4b8" r="92"/><g><path d="m136.259 145.09c2.491-4.046 5.979-11.043 4.29-16.535-2.34-7.608-8.089-25.066-8.089-25.066s-3.229 6.074-9.069 9.827c-4.682 3.009-7.416 10-8.489 13.303l.773.805c-6.009-2.707-12.655-4.249-19.674-4.249-7.098 0-13.812 1.581-19.874 4.345l.866-.901c-1.074-3.303-3.808-10.294-8.49-13.303-5.84-3.753-9.069-9.827-9.069-9.827s-5.75 17.458-8.089 25.066c-1.702 5.532 1.849 12.592 4.343 16.623-4.845 7.497-7.688 16.408-7.688 25.998v36h96v-36c0-9.627-2.862-18.572-7.741-26.086z" fill="#6b4f5b"/><path d="m144 211.176h-96c-2.209 0-4-1.791-4-4v-36c0-9.168 2.422-18.119 7.025-26.045-2.861-5.172-5.314-11.867-3.506-17.752 2.348-7.631 8.115-25.143 8.115-25.143.5-1.521 1.861-2.598 3.459-2.734 1.582-.152 3.119.691 3.871 2.109.023.041 2.859 5.229 7.699 8.34 4.281 2.752 7.123 7.816 8.838 11.936 10.621-3.592 22.268-3.604 32.9-.035 1.717-4.113 4.553-9.154 8.826-11.9 4.84-3.111 7.676-8.299 7.705-8.352.758-1.404 2.295-2.242 3.875-2.09 1.592.141 2.949 1.209 3.449 2.727 0 0 5.768 17.512 8.115 25.143 1.799 5.852-.623 12.508-3.453 17.654 4.639 7.945 7.08 16.932 7.08 26.143v36c.002 2.208-1.789 3.999-3.998 3.999zm-92-8h88v-32c0-8.49-2.453-16.758-7.098-23.908-.842-1.295-.861-2.961-.051-4.275 3.371-5.473 4.783-10.305 3.875-13.262-1.346-4.369-3.818-12-5.674-17.684-1.506 1.602-3.346 3.25-5.5 4.635-2.234 1.436-4.477 4.822-6.168 9.246.494 1.23.359 2.664-.441 3.801-1.105 1.564-3.164 2.127-4.912 1.344-11.549-5.201-24.717-5.172-36.246.088-1.744.803-3.809.244-4.924-1.326-.842-1.188-.953-2.701-.379-3.969-1.691-4.395-3.924-7.756-6.145-9.184-2.154-1.385-3.992-3.033-5.5-4.635-1.854 5.684-4.326 13.312-5.67 17.684-.916 2.975.514 7.838 3.92 13.342.814 1.314.797 2.979-.041 4.275-4.608 7.136-7.046 15.375-7.046 23.828z" fill="#4c241d"/></g><g><path d="m144 259.176v-76.44c0-19.639-13.646-35.56-30.48-35.56-5.258 0-9.52 4.262-9.52 9.52v6.48c0 4.418-3.582 8-8 8-4.418 0-8-3.582-8-8v-6.48c0-5.258-4.262-9.52-9.52-9.52-16.833 0-30.48 15.921-30.48 35.56v76.44" fill="#b5a19c"/><path d="m144 263.176c-2.209 0-4-1.791-4-4v-76.439c0-17.402-11.879-31.561-26.48-31.561-3.043 0-5.52 2.477-5.52 5.52v6.48c0 6.617-5.383 12-12 12s-12-5.383-12-12v-6.48c0-3.043-2.477-5.52-5.52-5.52-14.602 0-26.48 14.158-26.48 31.561v76.439c0 2.209-1.791 4-4 4s-4-1.791-4-4v-76.439c0-21.814 15.469-39.561 34.48-39.561 7.455 0 13.52 6.064 13.52 13.52v6.48c0 2.205 1.795 4 4 4s4-1.795 4-4v-6.48c0-7.455 6.064-13.52 13.52-13.52 19.012 0 34.48 17.746 34.48 39.561v76.439c0 2.209-1.791 4-4 4z" fill="#4c241d"/></g><g><path d="m96 231.176c-6.627 0-12-5.373-12-12v-16h24v16c0 6.627-5.373 12-12 12z" fill="#e66353"/><path d="m96 235.176c-8.822 0-16-7.178-16-16v-16c0-2.209 1.791-4 4-4h24c2.209 0 4 1.791 4 4v16c0 8.822-7.178 16-16 16zm-8-28v12c0 4.412 3.588 8 8 8s8-3.588 8-8v-12z" fill="#4c241d"/></g><g><path d="m72 191.452 2.12 7.574c1.39 4.966 5.591 7.988 9.909 7.126l11.206-2.235c.975-.195 1.971-.193 2.946.003l10.353 2.089c4.585.925 8.993-2.525 10.12-7.921l1.346-6.44" fill="#b5a19c"/><path d="m82.584 210.297c-5.529 0-10.6-4.061-12.316-10.193l-2.119-7.572c-.596-2.127.646-4.334 2.773-4.93 2.131-.602 4.336.645 4.93 2.773l2.119 7.572c.822 2.928 3.074 4.729 5.275 4.283l11.207-2.234c1.492-.303 3.014-.297 4.514.002l10.357 2.09c2.357.484 4.75-1.635 5.414-4.818l1.346-6.439c.453-2.164 2.58-3.537 4.734-3.098 2.162.453 3.549 2.572 3.098 4.734l-1.346 6.439c-1.574 7.537-8.078 12.371-14.826 11.025l-10.354-2.092c-.455-.088-.916-.092-1.371 0l-11.209 2.234c-.744.152-1.49.224-2.226.224z" fill="#4c241d"/></g><path d="m96 223.176c-2.209 0-4-1.791-4-4v-24c0-2.209 1.791-4 4-4s4 1.791 4 4v24c0 2.209-1.791 4-4 4z" fill="#4c241d"/><g><path d="m98.71 191.176h-5.42c-1.053 0-1.987-.201-2.32-.499l-2.842-2.542c-.528-.472.651-.96 2.32-.96h11.104c1.669 0 2.848.488 2.32.96l-2.842 2.542c-.333.298-1.267.499-2.32.499z" fill="#ffce56"/><path d="m98.709 195.176h-5.418c-1.498 0-3.578-.262-4.98-1.508l-2.852-2.553c-1.234-1.105-1.771-3.17-1.182-4.719.793-2.076 2.984-3.221 6.17-3.221h11.105c3.186 0 5.377 1.145 6.17 3.221.592 1.551.053 3.617-1.186 4.723l-2.838 2.539c-1.411 1.256-3.491 1.518-4.989 1.518z" fill="#4c241d"/></g><circle cx="76" cy="171.176" fill="#4c241d" r="4"/><circle cx="116" cy="171.176" fill="#4c241d" r="4"/><g><path d="m197.836 83.176c-3.824 0-7.288 1.654-9.836 4.331-2.548-2.677-6.012-4.331-9.836-4.331-7.823 0-14.164 6.891-14.164 15.391 0 12.826 24 28.609 24 28.609s24-15.782 24-28.609c0-8.5-6.341-15.391-14.164-15.391z" fill="#e66353"/><path d="m188 131.176c-.766 0-1.531-.219-2.197-.658-2.641-1.737-25.803-17.389-25.803-31.952 0-10.691 8.148-19.391 18.164-19.391 3.535 0 6.926 1.078 9.836 3.09 2.91-2.012 6.301-3.09 9.836-3.09 10.016 0 18.164 8.699 18.164 19.391 0 14.562-23.162 30.215-25.803 31.951-.666.44-1.431.659-2.197.659zm-9.836-44c-5.605 0-10.164 5.109-10.164 11.391 0 7.119 11.479 17.699 20 23.76 8.521-6.061 20-16.641 20-23.76 0-6.281-4.559-11.391-10.164-11.391-2.578 0-5.043 1.098-6.939 3.09-1.512 1.582-4.281 1.582-5.793 0-1.897-1.993-4.362-3.09-6.94-3.09z" fill="#4c241d"/></g><g><path d="m116.608 47.176c-2.781 0-5.3 1.203-7.154 3.15-1.853-1.947-4.372-3.15-7.154-3.15-5.688 0-10.3 5.011-10.3 11.194 0 9.328 17.455 20.806 17.455 20.806s17.455-11.478 17.455-20.806c-.001-6.183-4.613-11.194-10.302-11.194z" fill="#e66353"/><path d="m109.455 83.176c-.766 0-1.531-.219-2.197-.658-3.217-2.116-19.258-13.217-19.258-24.149 0-8.377 6.416-15.193 14.301-15.193 2.549 0 5.002.707 7.154 2.035 2.152-1.328 4.604-2.035 7.152-2.035 7.885 0 14.301 6.816 14.301 15.193 0 10.932-16.039 22.033-19.256 24.148-.666.44-1.431.659-2.197.659zm-7.154-32c-3.475 0-6.301 3.227-6.301 7.193 0 4.408 7.27 11.436 13.453 15.938 6.184-4.51 13.455-11.545 13.455-15.938 0-3.967-2.826-7.193-6.301-7.193-1.572 0-3.084.678-4.256 1.908-1.508 1.586-4.285 1.586-5.793 0-1.171-1.23-2.683-1.908-4.257-1.908z" fill="#4c241d"/></g><g fill="#4c241d"><circle cx="204" cy="39.176" r="4"/><circle cx="68" cy="83.176" r="4"/><path d="m242 83.176c-7.719 0-14-6.281-14-14s6.281-14 14-14 14 6.281 14 14-6.281 14-14 14zm0-20c-3.309 0-6 2.691-6 6s2.691 6 6 6 6-2.691 6-6-2.691-6-6-6z"/><path d="m244 139.176c-2.209 0-4-1.791-4-4v-16c0-2.209 1.791-4 4-4s4 1.791 4 4v16c0 2.209-1.791 4-4 4z"/><path d="m252 131.176h-16c-2.209 0-4-1.791-4-4s1.791-4 4-4h16c2.209 0 4 1.791 4 4s-1.791 4-4 4z"/></g><g><path d="m164.199 260.823v-18c0-14.359 11.641-26 26-26 14.359 0 26 11.641 26 26v18" fill="#fc8c29"/><path d="m216.199 264.824c-2.209 0-4-1.791-4-4v-18c0-12.131-9.869-22-22-22s-22 9.869-22 22v18c0 2.209-1.791 4-4 4s-4-1.791-4-4v-18c0-16.543 13.457-30 30-30s30 13.457 30 30v18c0 2.209-1.791 4-4 4z" fill="url(#SVGID_1_)"/></g><g><path d="m204 171.176h-28l-20-16v16 26c0 18.777 15.222 34 34 34s34-15.223 34-34v-26-16z" fill="#fc8c29"/><path d="m190 235.176c-20.953 0-38-17.047-38-38v-42c0-1.537.881-2.939 2.268-3.605 1.379-.666 3.027-.479 4.23.482l18.904 15.123h25.195l18.904-15.123c1.199-.961 2.848-1.146 4.23-.482 1.387.666 2.268 2.068 2.268 3.605v42c.001 20.953-17.046 38-37.999 38zm-30-71.678v33.678c0 16.543 13.457 30 30 30s30-13.457 30-30v-33.678l-13.502 10.801c-.709.568-1.59.877-2.498.877h-28c-.908 0-1.789-.309-2.498-.877z" fill="url(#SVGID_2_)"/></g><circle cx="208.199" cy="196.823" fill="#4c241d" r="4"/><circle cx="172.199" cy="196.823" fill="#4c241d" r="4"/><path d="m191.86 212.554 5.049-5.678c1.275-1.433.257-3.7-1.661-3.7h-10.098c-1.918 0-2.936 2.267-1.661 3.7l5.049 5.678c.884.994 2.438.994 3.322 0z" fill="url(#SVGID_3_)"/><path d="m204.199 264.824c-2.209 0-4-1.791-4-4v-12c0-2.209 1.791-4 4-4s4 1.791 4 4v12c0 2.209-1.791 4-4 4z" fill="url(#SVGID_4_)"/><path d="m176.199 264.824c-2.209 0-4-1.791-4-4v-12c0-2.209 1.791-4 4-4s4 1.791 4 4v12c0 2.209-1.791 4-4 4z" fill="url(#SVGID_5_)"/></g></svg>