<svg id="Capa_1" enable-background="new 0 0 511.201 511.201" height="512" viewBox="0 0 511.201 511.201" width="512" xmlns="http://www.w3.org/2000/svg"><g><g><path d="m417.959 376.607 78.873 78.873c9.159 9.159 9.159 24.008 0 33.167l-6.313 6.314c-9.159 9.159-24.008 9.159-33.167 0l-78.415-78.415-56.453-57.314 44.39-37.418z" fill="#d7d0d6"/><circle cx="239.345" cy="238.005" fill="#fee45a" r="231.157"/><path d="m91.328 218.267c0-47.187 14.143-91.068 38.417-127.643h-68.478c-33.15 40.006-53.08 91.365-53.08 147.382 0 127.665 103.493 231.157 231.157 231.157 33.546 0 65.428-7.154 94.197-20.006-3.661.172-7.353.268-11.057.268-127.664-.001-231.156-103.494-231.156-231.158z" fill="#fedf30"/><g><g id="XMLID_536_"><path d="m403.702 235.88-258.38-2.466-58.986 84.67 4.289 33.068c5.12 6.58 10.68 12.8 16.62 18.61l64.832 16.575h148.257l44.691-16.575c30.74-30.07 51.01-70.83 54.78-116.27z" fill="#97da7b"/></g></g><path d="m103.725 293.122-17.39 24.962 4.289 33.068c5.12 6.58 10.68 12.8 16.62 18.61l53.566 13.695c-25.516-24.978-45.274-55.81-57.085-90.335z" fill="#80d261"/><path d="m79.669 223.076-27.204 30.415c1.73 20.92 6.97 40.85 15.11 59.2h.01l39.365-6.294 38.372-70.518z" fill="#97da7b"/><path d="m107.971 304.519c-9.89-24.575-15.682-51.237-16.525-79.146l-11.777-2.297-27.204 30.415c1.73 20.92 6.97 40.85 15.11 59.2h.01l39.365-6.294z" fill="#80d261"/><path d="m41.432 118.516c3.181 9.141 7.741 17.808 13.638 25.76l34.617 47.735c4.089 5.637 6.907 11.947 8.378 18.752l2.596 12.013c3.247 15.029 16.765 25.938 32.142 25.938 15.375 0 28.893-10.907 32.143-25.938l2.596-12.012c1.471-6.808 4.289-13.117 8.377-18.753l34.62-47.736c12.752-17.202 19.313-37.64 18.972-59.109-.395-24.994-10.382-48.606-28.12-66.488-2.564-2.584-5.261-4.988-8.054-7.244-64.351 12.997-119.011 52.716-151.905 107.082z" fill="#fedf30"/><path d="m361.207 126.54-8.772-31.538c-31.72-25.84-72.2-41.32-116.3-41.32-93.03 0-169.97 68.93-182.52 158.5h.01l37.581 21.233h217.876l68.415-52.546z" fill="#97da7b"/><path d="m91.834 233.414c-.324-5.009-.507-10.056-.507-15.147 0-47.187 14.143-91.068 38.417-127.643h-4.302c-38.205 28.742-64.882 71.984-71.828 121.558h.01l37.581 21.233h.629z" fill="#80d261"/><path d="m164.944 222.776 2.596-12.012c1.471-6.808 4.289-13.117 8.377-18.753l34.62-47.736c12.752-17.202 19.313-37.64 18.972-59.109-.169-10.729-2.118-21.198-5.677-31.074-69.486 4.58-128.447 47.67-155.751 108.126l21.605 29.793c4.089 5.637 6.907 11.947 8.378 18.752l2.596 12.013c.833 3.857 2.347 7.439 4.39 10.638h55.503c2.044-3.199 3.557-6.781 4.391-10.638z" fill="#80d261"/><path d="m381.705 124.941-24.878 3.657-61.258 92.156 69.199 15.126 53.887-23.699c-4.56-32.59-17.65-62.44-36.95-87.24z" fill="#97da7b"/><g id="XMLID_535_"><g><path d="m420.455 238.001c0 5.22-.22 10.38-.65 15.49h-.01-253.03c-2.948 0-5.719 1.406-7.46 3.785l-68.68 93.875c-9.16-11.76-16.93-24.66-23.05-38.46h.01l40.708-55.643c1.081-1.478.026-3.557-1.805-3.557h-54.023c-.43-5.11-.65-10.27-.65-15.49 0-8.76.61-17.38 1.8-25.82h.01 212.286c.493 0 .956-.235 1.247-.633l85.267-116.537.01-.01c10.85 8.83 20.68 18.88 29.27 29.94l-62.032 84.783c-.747 1.021-.018 2.457 1.247 2.457h97.726.01c1.189 8.43 1.799 17.06 1.799 25.82z" fill="#fdf6ec"/></g></g><g fill="#fef1da"><path d="m114.285 318.811c-7.197-14.875-12.838-30.641-16.732-47.084l-29.969 40.964h-.01c6.12 13.8 13.89 26.7 23.05 38.46z"/><path d="m93.995 253.491c-1.756-11.485-2.667-23.248-2.667-35.225 0-2.036.036-4.063.088-6.085h-37.791-.01c-1.19 8.44-1.8 17.06-1.8 25.82 0 5.22.22 10.38.65 15.49z"/></g><path d="m167.234 212.181h-68.863l2.289 10.595c3.247 15.029 16.765 25.938 32.142 25.938 15.375 0 28.893-10.907 32.143-25.938z" fill="#fef1da"/><path d="m134.653 10.026c-43.217-1.018-78.571 33.711-78.571 76.698 0 17.134 5.621 32.953 15.113 45.722l34.682 47.823c5.692 7.848 9.688 16.794 11.736 26.27l2.596 12.013c1.281 5.93 6.526 10.162 12.593 10.162s11.312-4.232 12.593-10.162l2.596-12.013c2.048-9.476 6.044-18.422 11.736-26.269l34.682-47.823c9.721-13.077 15.382-29.353 15.103-46.964-.648-40.941-33.925-74.493-74.859-75.457z" fill="#ee6161"/><path d="m144.226 200.901c-2.048-9.476-6.044-18.422-11.736-26.27l-34.682-47.823c-9.493-12.769-15.113-28.588-15.113-45.722 0-32.108 19.728-59.602 47.72-71.041-41.266 1.262-74.333 35.106-74.333 76.679 0 17.134 5.621 32.953 15.113 45.722l34.682 47.823c5.692 7.848 9.688 16.794 11.736 26.27l2.596 12.013c1.281 5.93 6.526 10.162 12.593 10.162s11.312-4.232 12.593-10.162l1.323-6.12z" fill="#e94444"/><g><path d="m101.351 59.503c7.626-8.81 18.887-14.378 31.451-14.378 22.974 0 41.596 18.628 41.596 41.602 0 10.41-3.821 19.924-10.145 27.218-7.626 8.81-18.887 14.378-31.451 14.378-22.974 0-41.596-18.622-41.596-41.596 0-10.41 3.821-19.925 10.145-27.224z" fill="#f9f7f8"/><path d="m365.025 369.761c-33.24 32.52-78.72 52.56-128.89 52.56s-95.65-20.04-128.89-52.56z" fill="#fdf6ec"/><path d="m147.891 369.761h-40.646c27.487 26.892 63.349 45.236 103.307 50.785-23.766-13.179-44.97-30.413-62.661-50.785z" fill="#fef1da"/></g><circle cx="239.344" cy="318.084" fill="#ee6161" r="24.131"/></g><g><path d="m236.133 429.824c105.77 0 191.819-86.05 191.819-191.819 0-105.77-86.05-191.82-191.819-191.82-.414 0-.826.007-1.239.014l-.684.01c-4.142.039-7.468 3.429-7.429 7.571.039 4.118 3.39 7.429 7.498 7.429h.073l.798-.011c.327-.006.654-.012.982-.012 39.69 0 76.366 13.147 105.907 35.312l-79.148 108.184h-85.408c-4.143 0-7.5 3.358-7.5 7.5s3.357 7.5 7.5 7.5h89.214c2.392 0 4.641-1.141 6.053-3.072l80.908-110.59c6.65 5.928 12.855 12.344 18.548 19.201l-60.381 82.533c-1.668 2.28-1.914 5.303-.636 7.822s3.863 4.106 6.688 4.106h94.129c.623 6.025.946 12.137.946 18.324 0 2.676-.07 5.335-.188 7.982h-57.957c-4.143 0-7.5 3.358-7.5 7.5s3.357 7.5 7.5 7.5h56.653c-5.083 38.99-22.921 74.023-49.172 100.777h-92.334c-4.143 0-7.5 3.358-7.5 7.5s3.357 7.5 7.5 7.5h75.65c-30.13 23.821-68.167 38.06-109.47 38.06s-79.34-14.239-109.47-38.06h82.073c4.143 0 7.5-3.358 7.5-7.5s-3.357-7.5-7.5-7.5h-98.757c-3.429-3.495-6.719-7.127-9.851-10.895l65.758-89.882h156.959c4.143 0 7.5-3.358 7.5-7.5s-3.357-7.5-7.5-7.5h-160.767c-2.392 0-4.641 1.141-6.053 3.072l-65.362 89.34c-5.44-7.859-10.262-16.175-14.392-24.882l40.678-55.602c1.668-2.28 1.914-5.303.636-7.822s-3.863-4.106-6.688-4.106h-51.396c-.118-2.647-.188-5.307-.188-7.982 0-6.152.324-12.263.948-18.324h27.86c4.143 0 7.5-3.358 7.5-7.5s-3.357-7.5-7.5-7.5h-25.66c1.882-9.853 4.595-19.533 8.15-28.975 1.46-3.876-.499-8.202-4.376-9.662-3.872-1.458-8.201.499-9.661 4.376-8.136 21.604-12.261 44.343-12.261 67.584-.001 105.77 86.049 191.819 191.819 191.819zm96.525-225.143 49.004-66.983c13.685 19.793 23.437 42.498 28.126 66.983zm-236.54 56.307-26.565 36.312c-4.141-11.599-7.109-23.749-8.747-36.313h35.312z"/><path d="m502.136 450.177-74.273-74.273c28.832-39.908 44.404-87.703 44.404-137.899 0-63.073-24.563-122.372-69.162-166.971-44.6-44.6-103.898-69.162-166.972-69.162-9.669 0-19.46.601-29.102 1.787-4.111.505-7.034 4.248-6.529 8.359.506 4.112 4.253 7.033 8.359 6.529 9.037-1.111 18.212-1.674 27.271-1.674 59.066 0 114.599 23.002 156.365 64.769s64.769 97.298 64.769 156.365-23.002 114.598-64.769 156.365c-41.767 41.766-97.299 64.768-156.365 64.768s-114.597-23.004-156.363-64.77c-41.767-41.767-64.769-97.298-64.769-156.365 0-36.695 9.174-73.04 26.529-105.104 1.972-3.643.617-8.194-3.025-10.166-3.643-1.973-8.194-.617-10.166 3.025-18.539 34.251-28.338 73.064-28.338 112.245 0 63.073 24.563 122.372 69.162 166.971s103.897 69.162 166.971 69.162c52.013 0 101.45-16.718 142.203-47.587l22.447 22.447c1.465 1.464 3.385 2.197 5.304 2.197s3.839-.732 5.304-2.197c2.929-2.929 2.929-7.678 0-10.606l-21.314-21.314c4.468-3.853 8.814-7.887 13.028-12.101 5.481-5.481 10.656-11.187 15.524-17.093l72.901 72.9c3.013 3.013 4.672 7.019 4.672 11.28s-1.659 8.267-4.673 11.28l-6.313 6.313c-3.013 3.013-7.019 4.672-11.279 4.672s-8.267-1.659-11.279-4.672l-28.665-28.665c-2.93-2.929-7.678-2.929-10.607 0s-2.929 7.678 0 10.606l28.665 28.665c5.846 5.846 13.619 9.066 21.887 9.066s16.041-3.22 21.887-9.066l6.313-6.313c5.847-5.846 9.066-13.619 9.066-21.887-.003-8.267-3.223-16.04-9.068-21.886z"/><path d="m132.802 37.625c-14.255 0-27.783 6.184-37.118 16.967-7.724 8.915-11.978 20.327-11.978 32.135 0 27.072 22.024 49.096 49.096 49.096 14.256 0 27.786-6.185 37.117-16.965 7.726-8.909 11.979-20.32 11.979-32.131 0-27.075-22.024-49.102-49.096-49.102zm25.78 71.411c-6.484 7.491-15.881 11.787-25.78 11.787-18.801 0-34.096-15.295-34.096-34.096 0-8.201 2.952-16.125 8.313-22.313.001-.001.002-.001.003-.002 6.483-7.491 15.88-11.787 25.779-11.787 18.801 0 34.097 15.298 34.097 34.102 0 8.201-2.952 16.123-8.316 22.309z"/><path d="m99.806 184.673c5.112 7.049 8.638 14.939 10.477 23.45l2.596 12.013c2.013 9.316 10.393 16.079 19.924 16.079 9.53 0 17.91-6.762 19.925-16.079l2.596-12.012c1.84-8.513 5.364-16.402 10.476-23.451l10.896-15.023c2.432-3.353 1.686-8.043-1.668-10.475-3.353-2.432-8.043-1.686-10.475 1.668l-10.896 15.023c-6.341 8.743-10.713 18.53-12.995 29.089l-2.596 12.012c-.531 2.461-2.745 4.248-5.263 4.248s-4.73-1.786-5.262-4.247l-2.596-12.013c-2.282-10.557-6.654-20.344-12.996-29.088l-34.734-47.895c-8.918-11.996-13.632-26.259-13.632-41.248 0-18.798 7.407-36.386 20.857-49.523 13.445-13.132 31.209-20.121 50.037-19.677 17.849.42 34.679 7.708 47.389 20.521s19.865 29.702 20.148 47.556c.243 15.402-4.468 30.053-13.676 42.442l-4.881 6.73c-2.432 3.353-1.685 8.042 1.668 10.474s8.043 1.686 10.475-1.668l4.829-6.659c11.145-14.993 16.879-32.821 16.583-51.557-.345-21.749-9.044-42.305-24.497-57.883-15.455-15.578-35.941-24.44-57.685-24.952-22.913-.536-44.513 7.964-60.871 23.942-16.364 15.983-25.377 37.382-25.377 60.254 0 18.236 5.738 35.594 16.541 50.125z"/><path d="m239.345 385.844c4.143 0 7.5-3.358 7.5-7.5v-29.534c13.832-3.377 24.131-15.868 24.131-30.725 0-17.441-14.189-31.631-31.631-31.631s-31.632 14.19-31.632 31.631c0 14.857 10.3 27.348 24.132 30.725v29.534c0 4.142 3.357 7.5 7.5 7.5zm-16.632-67.76c0-9.17 7.461-16.631 16.632-16.631 9.17 0 16.631 7.461 16.631 16.631s-7.461 16.631-16.631 16.631c-9.171 0-16.632-7.461-16.632-16.631z"/></g></g></svg>