<svg id="Layer_1" enable-background="new 0 0 512 512" height="512" viewBox="0 0 512 512" width="512" xmlns="http://www.w3.org/2000/svg"><g><path d="m465.16 181.011c0 90.38-73.53 163.91-163.91 163.91-9.18 0-18.18-.76-26.95-2.22 0 0 0 0-.01 0-77.61-12.89-136.96-80.49-136.96-161.69h30c0 73.84 60.08 133.91 133.92 133.91s133.91-60.07 133.91-133.91z" fill="#77f2d2"/><path d="m465.16 181.011c0 90.38-73.53 163.91-163.91 163.91-9.18 0-18.18-.76-26.95-2.22 100.1-.94 176.16-80.07 176.16-161.69z" fill="#2cdddd"/><g><path d="m356.694 228.57c-2.3 17.57-20.74 28.36-37.8 23.58-2.56-.72-5.36-1.28-8.33-1.66-2.92-.37-6.02-.58-9.21-.58-6.33 0-12.25.79-17.27 2.17-18.19 4.98-38.02-7.44-38.02-27.41 0-8.19 3.57-15.55 9.23-20.62 0 0 11.85-10.31 20.56-30.31 2.67-6.43 7.7-11.64 14.01-14.54 3.52-1.62 7.43-2.52 11.55-2.52 11.52 0 21.4 7.04 25.56 17.05 6.97 16.01 15.95 25.8 19.26 29.08 7.55 5.87 11.81 15.32 10.46 25.76z" fill="#ff6248"/><path d="m356.694 228.57c-2.3 17.57-20.74 28.36-37.8 23.58-2.56-.72-5.36-1.28-8.33-1.66 20.845-3.618 22.23-20.53 22.27-20.79.16-1.24-.15-2.1-1.01-2.76-5.6-5.56-19.6-19.2-25.65-39.17-1.836-6.044-1.252-17.238-12.845-20.461-3.477-.966-5.241-4.813-3.53-7.99l.064-.119c3.52-1.62 7.43-2.52 11.55-2.52 11.52 0 21.4 7.04 25.56 17.05 6.97 16.01 15.95 25.8 19.26 29.08 7.551 5.87 11.811 15.32 10.461 25.76z" fill="#f00"/><g fill="#ff6248"><path d="m238.737 154.186c5.853 11.33 3.791 24.035-4.609 28.374-8.399 4.339-19.955-1.329-25.81-12.66-5.853-11.33-3.791-24.035 4.609-28.374 8.399-4.343 19.954 1.326 25.81 12.66z"/><path d="m363.754 154.186c-5.853 11.33-3.791 24.035 4.609 28.374 8.399 4.339 19.955-1.329 25.81-12.66 5.853-11.33 3.791-24.035-4.609-28.374-8.398-4.343-19.953 1.326-25.81 12.66z"/><path d="m285.237 109.143c.752 6.331-.373 12.669-3.077 17.396-2.337 4.083-6.012 7.244-10.65 7.244-7.87 0-15.389-9.434-16.758-21.022-.749-6.325.373-12.669 3.077-17.396 2.31-4.035 5.961-7.238 10.647-7.238 7.87-.001 15.393 9.427 16.761 21.016z"/><path d="m317.765 109.143c-.752 6.331.373 12.669 3.077 17.396 2.337 4.083 6.012 7.244 10.65 7.244 7.87 0 15.389-9.434 16.758-21.022.749-6.325-.373-12.669-3.077-17.396-2.31-4.035-5.961-7.238-10.647-7.238-7.87-.001-15.393 9.427-16.761 21.016z"/></g></g><path d="m423.58 32.561s-9.04 15.14-20.93 21.88c-3.41 1.94-7.05 3.19-10.78 3.19-13.82 0-25.02-11.22-25.02-25.07 0-13.84 11.2-25.06 25.02-25.06 3.73 0 7.38 1.25 10.79 3.19 11.88 6.74 20.92 21.87 20.92 21.87z" fill="#ff6248"/><path d="m402.65 54.441c-3.41 1.94-7.05 3.19-10.78 3.19-13.82 0-25.02-11.22-25.02-25.07 0-13.84 11.2-25.06 25.02-25.06 3.73 0 7.38 1.25 10.79 3.19-7.64 4.28-12.81 12.47-12.81 21.88 0 9.4 5.16 17.58 12.8 21.87z" fill="#f00"/><path d="m234.99 32.561c0 13.85-11.2 25.07-25.02 25.07-3.49 0-6.9-1.09-10.11-2.81-12.22-6.55-21.6-22.26-21.6-22.26s9.38-15.7 21.59-22.24c3.21-1.73 6.63-2.82 10.12-2.82 13.82 0 25.02 11.22 25.02 25.06z" fill="#ff6248"/><path d="m234.99 32.561c0 13.85-11.2 25.07-25.02 25.07-3.49 0-6.9-1.09-10.11-2.81 8.02-4.18 13.49-12.58 13.49-22.26s-5.48-18.08-13.5-22.24c3.21-1.73 6.63-2.82 10.12-2.82 13.82 0 25.02 11.22 25.02 25.06z" fill="#f00"/><path d="m155.83 449.861c0 30.1-24.4 54.49-54.5 54.49-3.42 0-6.76-.31-10-.92-25.31-4.69-44.49-26.89-44.49-53.57s19.18-48.87 44.49-53.56c3.24-.61 6.58-.92 10-.92 30.1 0 54.5 24.39 54.5 54.48z" fill="#aac2cc"/><path d="m155.83 449.861c0 30.1-24.4 54.49-54.5 54.49-3.42 0-6.76-.31-10-.92 25.32-4.69 44.5-26.89 44.5-53.57s-19.18-48.87-44.5-53.56c3.24-.61 6.58-.92 10-.92 30.1 0 54.5 24.39 54.5 54.48z" fill="#86a0a8"/><path d="m122.74 449.861c0 11.83-9.58 21.41-21.41 21.41-3.9 0-7.55-1.04-10.7-2.87-6.4-3.69-10.7-10.61-10.7-18.54 0-7.92 4.3-14.84 10.7-18.53 3.15-1.83 6.8-2.87 10.7-2.87 11.83 0 21.41 9.58 21.41 21.4z" fill="#e1f9ff"/><path d="m122.74 449.861c0 11.83-9.58 21.41-21.41 21.41-3.9 0-7.55-1.04-10.7-2.87 6.4-3.69 10.7-10.61 10.7-18.54 0-7.92-4.3-14.84-10.7-18.53 3.15-1.83 6.8-2.87 10.7-2.87 11.83 0 21.41 9.58 21.41 21.4z" fill="#c2e8ef"/></g><g><path d="m268.948 170.659c-7.847 18.017-18.501 27.573-18.587 27.65-.027.023-.053.046-.08.07-7.446 6.68-11.716 16.248-11.716 26.25 0 11.164 5.102 21.455 13.997 28.236 9.453 7.205 21.98 9.616 33.503 6.452 4.545-1.248 9.831-1.907 15.288-1.907 5.549 0 10.912.681 15.509 1.969 3.397.953 6.871 1.422 10.33 1.422 7.436 0 14.795-2.169 21.14-6.36 8.718-5.758 14.474-14.849 15.791-24.942.001-.002.001-.004.001-.006 1.627-12.54-3.19-24.605-12.9-32.378-3.354-3.389-11.145-12.21-17.352-26.462-5.486-13.153-18.222-21.649-32.463-21.649-14.24-.001-26.974 8.498-32.461 21.655zm13.83 5.809c3.141-7.572 10.454-12.465 18.631-12.465 8.18 0 15.494 4.891 18.634 12.461l.05.117c7.432 17.09 17.057 27.699 20.851 31.466.214.212.44.412.678.597 5.733 4.463 8.585 11.533 7.628 18.915-.765 5.857-4.027 10.96-9.184 14.366-5.662 3.739-12.639 4.839-19.154 3.011-5.896-1.653-12.66-2.526-19.558-2.526-6.779 0-13.439.845-19.261 2.443-7.04 1.933-14.682.471-20.438-3.917-5.217-3.978-8.09-9.769-8.09-16.307 0-5.738 2.446-11.227 6.71-15.065 1.069-.946 13.39-12.136 22.453-32.979z"/><path d="m226.316 133.513c-5.842-1.861-11.823-1.456-16.837 1.144-12.256 6.344-15.694 23.267-7.826 38.528 4.302 8.34 11.258 14.553 19.084 17.047 2.416.77 4.854 1.152 7.239 1.152 3.383 0 6.657-.77 9.6-2.292 12.256-6.344 15.694-23.267 7.827-38.526 0 0 0 0 0-.001-4.303-8.345-11.259-14.56-19.087-17.052zm4.365 42.256c-1.865.967-3.96.625-5.39.17-4-1.275-7.854-4.875-10.307-9.63-4.224-8.192-2.657-16.236 1.392-18.332.878-.455 1.808-.621 2.694-.621.996 0 1.938.208 2.694.449 4 1.274 7.853 4.875 10.307 9.634 4.223 8.192 2.657 16.235-1.39 18.33z"/><path d="m364.915 189.09c2.943 1.523 6.217 2.292 9.601 2.292 2.384 0 4.823-.382 7.238-1.152 7.826-2.493 14.782-8.707 19.086-17.049 7.867-15.259 4.429-32.182-7.825-38.524-5.017-2.598-10.995-3.006-16.84-1.145-7.827 2.493-14.784 8.708-19.087 17.05v.001c-7.867 15.261-4.429 32.183 7.827 38.527zm5.505-31.652c2.454-4.758 6.308-8.358 10.308-9.632 1.427-.455 3.521-.795 5.39.172 4.047 2.095 5.614 10.139 1.392 18.33-2.454 4.756-6.308 8.357-10.309 9.632-1.429.455-3.524.795-5.39-.17-4.047-2.096-5.615-10.14-1.391-18.332z"/><path d="m271.509 141.059c6.899 0 13.155-4.023 17.163-11.038 3.486-6.103 4.948-14.133 4.013-22.032-1.831-15.518-12.464-27.674-24.209-27.674-6.899 0-13.153 4.021-17.159 11.033-3.483 6.1-4.946 14.128-4.013 22.026 1.828 15.524 12.461 27.685 24.205 27.685zm-7.168-42.272c.466-.815 2.14-3.473 4.135-3.473 3.03 0 8.29 5.757 9.313 14.435v.005c.559 4.707-.242 9.502-2.142 12.826-.466.816-2.142 3.479-4.138 3.479-3.028 0-8.286-5.76-9.31-14.443-.555-4.711.245-9.507 2.142-12.829z"/><path d="m331.492 141.059c11.744 0 22.377-12.161 24.206-27.683.934-7.898-.529-15.928-4.014-22.03-4.005-7.01-10.26-11.031-17.159-11.031-11.745 0-22.378 12.156-24.209 27.674-.936 7.898.527 15.928 4.014 22.032 4.008 7.014 10.263 11.038 17.162 11.038zm-6.279-31.305v-.005c1.022-8.678 6.282-14.435 9.313-14.435 1.996 0 3.67 2.658 4.135 3.471 1.897 3.324 2.698 8.121 2.142 12.833-1.023 8.681-6.281 14.44-9.31 14.44-1.995 0-3.671-2.663-4.137-3.479-1.9-3.324-2.702-8.119-2.143-12.825z"/><path d="m72.428 449.907c0 4.142 3.358 7.5 7.5 7.5s7.5-3.358 7.5-7.5c0-7.69 6.239-13.946 13.907-13.946s13.907 6.256 13.907 13.946-6.239 13.946-13.907 13.946c-4.142 0-7.5 3.358-7.5 7.5s3.358 7.5 7.5 7.5c15.939 0 28.907-12.985 28.907-28.946s-12.967-28.946-28.907-28.946-28.907 12.985-28.907 28.946z"/><path d="m472.659 181.01c0-4.142-3.357-7.5-7.5-7.5h-7.201v-114.424c0-17.647-13.326-32.236-30.429-34.204-5.525-7.998-19.145-24.882-35.658-24.882-17.932 0-32.52 14.609-32.52 32.565s14.588 32.565 32.52 32.565c16.625 0 30.318-17.115 35.77-25.044 8.742 1.876 15.317 9.683 15.317 19v114.424h-7.799c-4.143 0-7.5 3.358-7.5 7.5 0 69.847-56.709 126.672-126.414 126.672-47.075 0-89.978-26.02-111.966-67.905-1.926-3.668-6.46-5.082-10.126-3.155-3.667 1.925-5.08 6.459-3.155 10.126 24.588 46.837 72.58 75.933 125.248 75.933 75.463 0 137.311-59.529 141.219-134.172h15.019c-3.922 82.95-72.501 149.23-156.237 149.23-83.735 0-152.313-66.28-156.236-149.23h15.02c.471 8.969 1.786 17.863 3.927 26.529.993 4.021 5.058 6.476 9.08 5.482 4.021-.994 6.476-5.059 5.482-9.08-2.446-9.901-3.686-20.14-3.686-30.432 0-4.142-3.358-7.5-7.5-7.5h-8.452v-114.422c0-9.317 6.575-17.124 15.317-19 5.452 7.929 19.145 25.044 35.77 25.044 17.932 0 32.52-14.608 32.52-32.565s-14.59-32.565-32.521-32.565c-16.512 0-30.133 16.884-35.658 24.883-17.103 1.968-30.429 16.557-30.429 34.204v114.423h-6.548c-4.142 0-7.5 3.358-7.5 7.5 0 92.175 72.861 167.621 163.913 171.567v101.849c0 23.475-19.056 42.574-42.478 42.574s-42.478-19.099-42.478-42.574v-59.113c0-31.746-25.784-57.574-57.478-57.574-29.294 0-53.54 22.065-57.043 50.474-30.869 3.523-54.929 29.847-54.929 61.693 0 34.238 27.811 62.093 61.994 62.093s61.994-27.855 61.994-62.093c0-31.499-23.539-57.596-53.923-61.569 3.331-20.168 20.855-35.598 41.907-35.598 23.422 0 42.478 19.099 42.478 42.574v59.113c0 31.746 25.784 57.574 57.478 57.574s57.478-25.828 57.478-57.574v-101.849c91.051-3.947 163.913-79.392 163.913-171.567zm-80.788-130.88c-9.66 0-17.52-7.879-17.52-17.565s7.86-17.565 17.52-17.565c8.302 0 17.738 10.666 22.705 17.565-4.971 6.904-14.405 17.565-22.705 17.565zm-181.903-35.13c9.661 0 17.52 7.88 17.52 17.565s-7.859 17.565-17.52 17.565c-8.306 0-17.75-10.68-22.714-17.578 5.314-7.395 14.801-17.552 22.714-17.552zm-61.639 434.907c0 25.967-21.081 47.093-46.994 47.093s-46.994-21.126-46.994-47.093 21.082-47.093 46.994-47.093 46.994 21.125 46.994 47.093z"/></g></svg>